<svg id="bold" enable-background="new 0 0 32 32" height="512" viewBox="0 0 32 32" width="512" xmlns="http://www.w3.org/2000/svg"><path d="m26 32h-20c-3.314 0-6-2.686-6-6v-20c0-3.314 2.686-6 6-6h20c3.314 0 6 2.686 6 6v20c0 3.314-2.686 6-6 6z" fill="#e3f8fa"/><path d="m23.681 14.933-1.681-1.569v-4.03c0-.368-.299-.667-.667-.667h-2c-.368 0-.667.299-.667.667v.912l-2.212-2.066c-.257-.239-.654-.239-.91 0l-7.243 6.769c-.194.194-.301.449-.301.718 0 .551.449 1 1 1h1v5.667c0 .918.748 1.666 1.667 1.666h8.667c.918 0 1.666-.748 1.666-1.667v-5.667h1c.551 0 1-.449 1-1 0-.268-.107-.523-.319-.733zm-4.181 4.067h-1.55l-.854 1.424c-.223.371-.78.302-.907-.11l-.994-3.23-.761 1.331c-.089.156-.255.252-.434.252h-1.5c-.276 0-.5-.224-.5-.5s.224-.5.5-.5h1.21l1.189-2.081c.218-.382.784-.314.912.101l1.004 3.262.423-.705c.09-.152.253-.244.429-.244h1.833c.276 0 .5.224.5.5s-.224.5-.5.5z" fill="#26c6da"/></svg>