<svg id="bold" enable-background="new 0 0 32 32" height="512" viewBox="0 0 32 32" width="512" xmlns="http://www.w3.org/2000/svg"><path d="m26 32h-20c-3.314 0-6-2.686-6-6v-20c0-3.314 2.686-6 6-6h20c3.314 0 6 2.686 6 6v20c0 3.314-2.686 6-6 6z" fill="#f5e6fe"/><path d="m16 8c-2.65 0-5.333.801-5.333 2.333s2.683 2.334 5.333 2.334 5.333-.801 5.333-2.333-2.683-2.334-5.333-2.334zm-3.167 2.833c-.276 0-.5-.224-.5-.5s.224-.5.5-.5.5.224.5.5-.224.5-.5.5zm2 0c-.276 0-.5-.224-.5-.5s.224-.5.5-.5.5.224.5.5-.224.5-.5.5zm2.334 0c-.276 0-.5-.224-.5-.5s.224-.5.5-.5.5.224.5.5-.224.5-.5.5zm2 0c-.276 0-.5-.224-.5-.5s.224-.5.5-.5.5.224.5.5-.224.5-.5.5z" fill="#be63f9"/><path d="m21.706 12.411c-1.275 1.141-3.609 1.589-5.706 1.589s-4.431-.448-5.706-1.589l-.829 4.923h13.07z" fill="#d9a4fc"/><path d="m9.346 18.667c.032.864.3 1.696.798 2.413l.493.706c.008.011.021.016.03.026v1.021c0 .643.523 1.167 1.167 1.167h8.333c.643 0 1.167-.523 1.167-1.167v-1.021c.009-.01.022-.015.03-.026l.494-.708c.497-.717.765-1.548.797-2.412h-13.309z" fill="#be63f9"/></svg>