<svg id="bold" enable-background="new 0 0 32 32" height="512" viewBox="0 0 32 32" width="512" xmlns="http://www.w3.org/2000/svg"><path d="m26 32h-20c-3.314 0-6-2.686-6-6v-20c0-3.314 2.686-6 6-6h20c3.314 0 6 2.686 6 6v20c0 3.314-2.686 6-6 6z" fill="#f5e6fe"/><path d="m22.333 8h-12.666c-.92 0-1.667.747-1.667 1.667v9.333c0 .919.747 1.667 1.667 1.667h1v3c0 .135.081.257.206.308.126.052.268.023.363-.072l3.236-3.236h7.862c.919 0 1.666-.748 1.666-1.667v-9.333c0-.92-.747-1.667-1.667-1.667zm-2.333 7.333h-.667v2.333c0 .551-.449 1-1 1h-4.667c-.551 0-1-.449-1-1v-2.333h-.666c-.368 0-.667-.299-.667-.667 0-.163.059-.316.171-.442l4.246-4.78c.126-.143.371-.143.498 0l1.084 1.219v-.33c0-.184.149-.333.333-.333h1.335c.184 0 .333.149.333.333v2.586l1.162 1.305c.112.125.171.278.171.442.001.368-.298.667-.666.667z" fill="#be63f9"/></svg>