<svg id="bold" enable-background="new 0 0 32 32" height="512" viewBox="0 0 32 32" width="512" xmlns="http://www.w3.org/2000/svg"><path d="m26 32h-20c-3.314 0-6-2.686-6-6v-20c0-3.314 2.686-6 6-6h20c3.314 0 6 2.686 6 6v20c0 3.314-2.686 6-6 6z" fill="#ffe6e2"/><path d="m23.661 15.884-3.5-1.19c-.104-.036-.217-.036-.322 0l-3.5 1.19c-.203.069-.339.259-.339.473v2.679c0 3.27 3.649 4.858 3.805 4.925.126.053.265.053.391 0 .155-.067 3.804-1.656 3.804-4.925v-2.679c0-.214-.136-.404-.339-.473zm-1.47 2.528-1.833 2.333c-.234.298-.671.341-.958.094l-1.167-1c-.28-.24-.313-.66-.072-.94.24-.279.661-.312.939-.072l.639.547 1.404-1.786c.227-.289.646-.34.936-.112.289.227.34.646.112.936z" fill="#fd907e"/><path d="m19.333 11.971v-2.638c0-.368-.298-.667-.667-.667-.368.001-.666.299-.666.667v1.334l-2.534-2.477c-.259-.254-.673-.253-.932 0l-6.236 6.096c-.189.188-.298.448-.298.714 0 .551.449 1 1 1h1v3.667c0 .919.747 1.667 1.667 1.667h2.333c.368 0 .667-.299.667-.667s-.299-.667-.667-.667h-2.333c-.184 0-.333-.149-.333-.333v-4.333c0-.368-.298-.667-.667-.667h-.85l5.183-5.068 3.701 3.618c.263.258.686.253.943-.01.258-.263.253-.686-.01-.943z" fill="#fc573b"/></svg>