<svg id="bold" enable-background="new 0 0 32 32" height="512" viewBox="0 0 32 32" width="512" xmlns="http://www.w3.org/2000/svg"><path d="m26 32h-20c-3.314 0-6-2.686-6-6v-20c0-3.314 2.686-6 6-6h20c3.314 0 6 2.686 6 6v20c0 3.314-2.686 6-6 6z" fill="#e3f8fa"/><g fill="#8ce1eb"><path d="m8.735 17.8c.032-.008.062-.022.097-.024 1.947-.082 3.178-.552 4.048-1.04-.713-.662-1.349-1.208-1.919-1.163-.777.021-1.237.469-1.77.987-.31.3-.646.623-1.061.865.022.123.055.24.083.36.179.002.353.007.522.015z"/><path d="m21.346 18.069c.246-.05.488-.098.741-.141-.322-.32-.622-.697-.931-1.091-.797-1.02-1.574-1.997-2.702-1.967-1.413.021-2.215.652-3.23 1.451-.23.181-.47.365-.721.549.979.864 1.999 1.565 3.292 1.565 1.737 0 2.659-.186 3.551-.366z"/><path d="m21.544 19.049c-.896.181-1.911.386-3.75.386-1.716 0-2.997-.949-4.148-1.991-.67.405-1.367.713-2.124.929.988.402 1.683.946 2.298 1.432.875.691 1.566 1.238 2.833 1.238 1.24 0 2.436-.496 3.594-.976 1.007-.417 2.042-.841 3.11-.941.049-.115.088-.227.129-.34-.762.028-1.323.138-1.942.263z"/></g><path d="m8.493 15.844c.597-.58 1.273-1.237 2.439-1.27 1.034-.027 1.902.754 2.815 1.605.299-.213.585-.43.856-.644 1.072-.843 2.083-1.639 3.834-1.665 1.622-.008 2.636 1.239 3.506 2.352.494.632.96 1.229 1.453 1.458.055.025.1.063.14.103.083-.002.173-.001.261-.002.134-.574.203-1.17.203-1.781 0-4.411-3.589-8-8-8s-8 3.589-8 8c0 .095.007.188.011.283.16-.134.317-.279.482-.439z" fill="#26c6da"/><path d="m20.629 20.992c-1.248.518-2.538 1.052-3.977 1.052-1.614 0-2.549-.74-3.452-1.454-1.078-.853-2.193-1.739-4.69-1.802 1.156 3.13 4.119 5.212 7.49 5.212 2.755 0 5.324-1.443 6.772-3.768-.697.163-1.408.455-2.143.76z" fill="#26c6da"/></svg>