<svg id="bold" enable-background="new 0 0 32 32" height="512" viewBox="0 0 32 32" width="512" xmlns="http://www.w3.org/2000/svg"><path d="m26 32h-20c-3.314 0-6-2.686-6-6v-20c0-3.314 2.686-6 6-6h20c3.314 0 6 2.686 6 6v20c0 3.314-2.686 6-6 6z" fill="#ffe6e2"/><path d="m23.681 14.933-1.681-1.569v-4.03c0-.368-.299-.667-.667-.667h-2c-.368 0-.667.299-.667.667v.912l-2.212-2.066c-.257-.239-.654-.239-.91 0l-7.243 6.769c-.194.194-.301.449-.301.718 0 .551.449 1 1 1h1v5.667c0 .918.748 1.666 1.667 1.666h8.667c.918 0 1.666-.748 1.666-1.667v-5.667h1c.551 0 1-.449 1-1 0-.268-.107-.523-.319-.733zm-10.348 3.717v.517c0 .446-.541.666-.854.354l-1-1c-.195-.195-.195-.512 0-.707l1-1c.315-.315.854-.09.854.354v.466c.193-.069.333-.25.333-.466v-2c0-.276.224-.5.5-.5s.5.224.5.5v2c.001.769-.585 1.398-1.333 1.482zm4.021 1.537-1 1c-.098.098-.225.146-.354.146s-.256-.049-.354-.146l-1-1c-.314-.314-.092-.854.354-.854h.5v-5.5c0-.276.224-.5.5-.5s.5.224.5.5v5.5h.5c.446 0 .668.54.354.854zm3.166-1.667-1 1c-.313.313-.854.094-.854-.354v-.516c-.748-.084-1.333-.713-1.333-1.483v-2c0-.276.224-.5.5-.5s.5.224.5.5v2c0 .217.14.397.333.466v-.466c0-.443.539-.668.854-.354l1 1c.196.195.196.512 0 .707z" fill="#fc573b"/></svg>