<svg id="bold" enable-background="new 0 0 32 32" height="512" viewBox="0 0 32 32" width="512" xmlns="http://www.w3.org/2000/svg"><path d="m26 32h-20c-3.314 0-6-2.686-6-6v-20c0-3.314 2.686-6 6-6h20c3.314 0 6 2.686 6 6v20c0 3.314-2.686 6-6 6z" fill="#fff9dd"/><path d="m23.681 14.933-1.681-1.569v-4.03c0-.368-.299-.667-.667-.667h-2c-.368 0-.667.299-.667.667v.912l-2.212-2.066c-.257-.239-.654-.239-.91 0l-7.243 6.769c-.194.194-.301.449-.301.718 0 .551.449 1 1 1h1v5.667c0 .918.748 1.666 1.667 1.666h8.667c.918 0 1.666-.748 1.666-1.667v-5.667h1c.551 0 1-.449 1-1 0-.268-.107-.523-.319-.733zm-9.681 3.067h-.5v1.667c0 .919-.747 1.667-1.667 1.667-.276 0-.5-.224-.5-.5s.224-.5.5-.5c.368 0 .667-.299.667-.667v-1.667h-.5c-.446 0-.668-.54-.354-.854l1-1c.195-.195.512-.195.707 0l1 1c.315.314.093.854-.353.854zm3-2.667h-.5v4.167c0 .276-.224.5-.5.5s-.5-.224-.5-.5v-4.167h-.5c-.446 0-.668-.54-.354-.854l1-1c.195-.195.512-.195.707 0l1 1c.315.314.093.854-.353.854zm3.167 6c-.919 0-1.667-.748-1.667-1.667v-1.666h-.5c-.446 0-.668-.54-.354-.854l1-1c.195-.195.512-.195.707 0l1 1c.315.314.093.854-.353.854h-.5v1.667c0 .368.299.667.667.667.276 0 .5.224.5.5s-.224.499-.5.499z" fill="#ffd200"/></svg>