<svg id="bold" enable-background="new 0 0 32 32" height="512" viewBox="0 0 32 32" width="512" xmlns="http://www.w3.org/2000/svg"><path d="m26 32h-20c-3.314 0-6-2.686-6-6v-20c0-3.314 2.686-6 6-6h20c3.314 0 6 2.686 6 6v20c0 3.314-2.686 6-6 6z" fill="#e3f8fa"/><path d="m21.667 24h-4.333c-1.103 0-2-.897-2-2 0-.971.696-1.784 1.616-1.963.346-1.186 1.451-2.037 2.717-2.037.999 0 1.923.531 2.429 1.375 1.088.199 1.904 1.155 1.904 2.292 0 1.286-1.047 2.333-2.333 2.333z" fill="#8ce1eb"/><path d="m19.333 11.972v-2.639c0-.368-.299-.667-.667-.667s-.666.299-.666.667v1.335l-2.534-2.478c-.259-.254-.673-.254-.932 0l-6.234 6.095c-.19.187-.3.448-.3.715 0 .551.449 1 1 1h1v3.667c0 .919.748 1.667 1.667 1.667h1.667c.368 0 .667-.298.667-.667s-.3-.667-.668-.667h-1.667c-.184 0-.333-.15-.333-.333v-4.333c0-.368-.299-.667-.667-.667h-.848l5.182-5.068 5.182 5.068h-.849c-.368 0-.667.298-.667.667v.666c0 .368.299.667.667.667s.667-.299.667-.667h1c.551 0 1-.449 1-1 0-.267-.11-.528-.301-.715z" fill="#26c6da"/></svg>