<svg id="bold" enable-background="new 0 0 32 32" height="512" viewBox="0 0 32 32" width="512" xmlns="http://www.w3.org/2000/svg"><path d="m26 32h-20c-3.314 0-6-2.686-6-6v-20c0-3.314 2.686-6 6-6h20c3.314 0 6 2.686 6 6v20c0 3.314-2.686 6-6 6z" fill="#ffe6e2"/><path d="m19.667 15.333c-2.389 0-4.333 1.944-4.333 4.333s1.943 4.334 4.333 4.334 4.333-1.944 4.333-4.333-1.944-4.334-4.333-4.334zm-.084 3.834h.167c.689 0 1.25.561 1.25 1.25 0 .542-.349 1.001-.833 1.173v.243c0 .276-.224.5-.5.5s-.5-.224-.5-.5v-.167h-.333c-.276 0-.5-.224-.5-.5s.224-.5.5-.5h.917c.138 0 .25-.112.25-.25s-.112-.25-.25-.25h-.167c-.689 0-1.25-.561-1.25-1.25 0-.542.349-1.001.833-1.173v-.243c0-.276.224-.5.5-.5s.5.224.5.5v.167h.333c.276 0 .5.224.5.5s-.224.5-.5.5h-.917c-.138 0-.25.112-.25.25 0 .137.113.25.25.25z" fill="#fd907e"/><path d="m19.333 11.972v-2.639c0-.368-.299-.667-.667-.667s-.666.299-.666.667v1.335l-2.534-2.478c-.259-.254-.673-.254-.932 0l-6.241 6.101c-.186.188-.293.447-.293.709 0 .551.449 1 1 1h1v3.667c0 .919.748 1.667 1.667 1.667h1.667c.368 0 .667-.298.667-.667s-.3-.667-.668-.667h-1.667c-.184 0-.333-.15-.333-.333v-4.333c0-.368-.299-.667-.667-.667h-.851l5.185-5.068 4.367 4.271c.264.258.686.253.943-.01s.253-.686-.01-.943z" fill="#fc573b"/></svg>