<svg id="bold" enable-background="new 0 0 32 32" height="512" viewBox="0 0 32 32" width="512" xmlns="http://www.w3.org/2000/svg"><path d="m26 32h-20c-3.314 0-6-2.686-6-6v-20c0-3.314 2.686-6 6-6h20c3.314 0 6 2.686 6 6v20c0 3.314-2.686 6-6 6z" fill="#fff9dd"/><path d="m21.667 17.335h-4.667c-.551 0-1-.449-1-1v-2.333h-.667c-.368 0-.667-.299-.667-.667 0-.163.059-.316.171-.442l4.246-4.78c.126-.143.371-.143.498 0l1.084 1.219v-.33c0-.184.149-.333.333-.333h1.333c.184 0 .333.149.333.333v2.586l1.162 1.305c.115.125.174.278.174.442 0 .368-.299.667-.667.667h-.667v2.333c.001.551-.448 1-.999 1z" fill="#ffe777"/><path d="m22.667 18.434v1.567h-13.334v-8h4.513l1.185-1.333h-5.864c-.644 0-1.167.523-1.167 1.167v8.333c0 .643.523 1.167 1.167 1.167h5.5v1.333h-1.333c-.368 0-.667.299-.667.667s.299.667.667.667h5.333c.368 0 .667-.299.667-.667s-.298-.667-.667-.667h-1.333v-1.333h5.5c.643 0 1.167-.523 1.167-1.167v-3.833c-.001.927-.549 1.723-1.334 2.099z" fill="#ffd200"/></svg>