<svg id="bold" enable-background="new 0 0 32 32" height="512" viewBox="0 0 32 32" width="512" xmlns="http://www.w3.org/2000/svg"><path d="m26 32h-20c-3.314 0-6-2.686-6-6v-20c0-3.314 2.686-6 6-6h20c3.314 0 6 2.686 6 6v20c0 3.314-2.686 6-6 6z" fill="#ffe6e2"/><path d="m23.681 14.933-1.681-1.569v-4.03c0-.368-.299-.667-.667-.667h-2c-.368 0-.667.299-.667.667v.912l-2.212-2.066c-.257-.239-.654-.239-.91 0l-7.243 6.769c-.194.194-.301.449-.301.718 0 .551.449 1 1 1h1v5.667c0 .918.748 1.666 1.667 1.666h8.667c.918 0 1.666-.748 1.666-1.667v-5.667h1c.551 0 1-.449 1-1 0-.268-.107-.523-.319-.733zm-11.014 3.067c0-1.667 1.234-3.039 2.833-3.283v3.076l-2.176 2.176c-.408-.554-.657-1.23-.657-1.969zm3.333 3.333c-.739 0-1.415-.25-1.969-.658l2.322-2.322c.094-.093.147-.22.147-.353v-3.283c1.6.244 2.833 1.616 2.833 3.283 0 1.838-1.495 3.333-3.333 3.333z" fill="#fc573b"/></svg>