<svg id="bold" enable-background="new 0 0 32 32" height="512" viewBox="0 0 32 32" width="512" xmlns="http://www.w3.org/2000/svg"><path d="m26 32h-20c-3.314 0-6-2.686-6-6v-20c0-3.314 2.686-6 6-6h20c3.314 0 6 2.686 6 6v20c0 3.314-2.686 6-6 6z" fill="#fff9dd"/><g fill="#ffe777"><path d="m16.167 24h-1c-.644 0-1.167-.523-1.167-1.167v-2.333c0-.643.523-1.167 1.167-1.167h1c.643 0 1.167.523 1.167 1.167v2.333c-.001.644-.524 1.167-1.167 1.167zm-1-3.667c-.092 0-.167.075-.167.167v2.333c0 .092.075.167.167.167h1c.092 0 .167-.075.167-.167v-2.333c0-.092-.075-.167-.167-.167z"/><path d="m20.167 21.333h-1.167v-.833c0-.092.075-.167.167-.167h1c.276 0 .5-.224.5-.5s-.224-.5-.5-.5h-1c-.644 0-1.167.524-1.167 1.167v3c0 .276.224.5.5.5s.5-.224.5-.5v-1.167h1.167c.276 0 .5-.224.5-.5s-.224-.5-.5-.5z"/><path d="m23.5 21.333h-1.167v-.833c0-.092.075-.167.167-.167h1c.276 0 .5-.224.5-.5s-.224-.5-.5-.5h-1c-.643 0-1.167.523-1.167 1.167v3c0 .276.224.5.5.5s.5-.224.5-.5v-1.167h1.167c.276 0 .5-.224.5-.5s-.224-.5-.5-.5z"/></g><path d="m12.667 20.5c0-.507.154-.978.415-1.373l-1.175-.556c-.348-.165-.573-.52-.573-.904 0-.327.16-.634.429-.821l2.174-1.512h-3.604c-.243 0-.406-.254-.301-.476l1.397-2.952c.165-.348.52-.572.904-.572.327 0 .634.161.822.43l1.512 2.174v-3.604c0-.248.259-.405.476-.301l2.952 1.397c.348.165.573.52.573.904 0 .327-.16.634-.429.821l-2.174 1.512h3.604c.243 0 .406.254.301.476l-1.391 2.939c.19-.048.385-.081.59-.081h1c.372 0 .713.118 1.002.309.527-.986.829-2.113.829-3.31 0-3.866-3.134-7-7-7s-7 3.134-7 7c0 3.047 1.95 5.631 4.667 6.593z" fill="#ffd200"/><path d="m15.333 16.063v1.937h.833c.196 0 .384.031.566.075z" fill="#ffd200"/></svg>