<svg id="bold" enable-background="new 0 0 32 32" height="512" viewBox="0 0 32 32" width="512" xmlns="http://www.w3.org/2000/svg"><path d="m26 32h-20c-3.314 0-6-2.686-6-6v-20c0-3.314 2.686-6 6-6h20c3.314 0 6 2.686 6 6v20c0 3.314-2.686 6-6 6z" fill="#ffe6e2"/><path d="m23.5 24c-.168 0-.328-.085-.422-.232l-1.411-2.218v1.95c0 .276-.224.5-.5.5s-.5-.224-.5-.5v-3.667c0-.222.146-.418.36-.48.214-.064.442.023.562.212l1.411 2.218v-1.95c0-.276.224-.5.5-.5s.5.224.5.5v3.667c0 .222-.146.418-.36.48-.046.014-.094.02-.14.02z" fill="#fd907e"/><path d="m18.833 24h-1c-.643 0-1.167-.523-1.167-1.167v-2.333c0-.643.523-1.167 1.167-1.167h1c.643 0 1.167.523 1.167 1.167v2.333c0 .644-.523 1.167-1.167 1.167zm-1-3.667c-.092 0-.167.075-.167.167v2.333c0 .092.075.167.167.167h1c.092 0 .167-.075.167-.167v-2.333c0-.092-.075-.167-.167-.167z" fill="#fd907e"/><path d="m15.333 20.5c0-1.021.617-1.898 1.496-2.286l-1.496-2.151v3.604c0 .247-.259.404-.476.301l-2.952-1.397c-.348-.165-.573-.52-.573-.904 0-.327.16-.634.429-.821l2.174-1.512h-3.604c-.243 0-.406-.254-.301-.476l1.397-2.952c.165-.348.52-.572.904-.572.327 0 .634.161.822.43l1.512 2.174v-3.604c0-.248.259-.405.476-.301l2.952 1.397c.348.165.573.52.573.904 0 .327-.16.634-.429.821l-2.174 1.512h3.604c.243 0 .406.254.301.476l-1.352 2.857c.537 0 .928.03 1.476.353.168-.123.357-.22.564-.28.216-.065.437-.075.654-.057.438-.915.69-1.935.69-3.016 0-3.866-3.134-7-7-7s-7 3.134-7 7 3.134 7 7 7c.113 0 .222-.012.333-.017z" fill="#fc573b"/></svg>