<svg id="bold" enable-background="new 0 0 32 32" height="512" viewBox="0 0 32 32" width="512" xmlns="http://www.w3.org/2000/svg"><path d="m26 32h-20c-3.314 0-6-2.686-6-6v-20c0-3.314 2.686-6 6-6h20c3.314 0 6 2.686 6 6v20c0 3.314-2.686 6-6 6z" fill="#f5e6fe"/><g fill="#d9a4fc"><path d="m20 24c-.368 0-.667-.299-.667-.667s.299-.667.667-.667.667.299.667.667-.299.667-.667.667z"/><path d="m17.678 21.718c-.198-.192-.202-.509-.01-.707.62-.639 1.45-.998 2.337-1.011.89-.007 1.729.322 2.367.941.198.192.202.509.01.707-.193.199-.509.203-.707.01-.439-.425-1.014-.658-1.622-.658-.012 0-.023 0-.034 0-.62.009-1.2.26-1.634.708-.193.198-.509.202-.707.01z"/><path d="m16.171 19.876c-.208-.182-.229-.497-.048-.705 1.014-1.16 2.38-1.813 3.846-1.837 1.493-.042 2.851.583 3.897 1.711.188.202.176.519-.027.706-.202.188-.519.176-.706-.027-.85-.917-1.974-1.427-3.146-1.391-1.18.02-2.285.551-3.111 1.495-.184.211-.5.229-.705.048z"/></g><path d="m16.201 21.306c-.337-.056-.653-.202-.912-.431-.293-.255-.488-.596-.572-.974l-2.811-1.331c-.348-.165-.573-.52-.573-.904 0-.327.16-.634.429-.821l2.174-1.512h-3.604c-.243 0-.406-.254-.301-.476l1.397-2.952c.165-.348.52-.572.904-.572.327 0 .634.161.822.43l1.512 2.174v-3.604c0-.248.259-.405.476-.301l2.952 1.397c.348.165.573.52.573.904 0 .327-.16.634-.429.821l-2.174 1.512h3.604c.243 0 .406.254.301.476l-.419.886c.133-.01.264-.026.399-.028.659-.016 1.308.076 1.933.263.073-.41.118-.831.118-1.263 0-3.866-3.134-7-7-7s-7 3.134-7 7 3.134 7 7 7c.438 0 .866-.045 1.282-.123-.054-.186-.087-.378-.081-.571z" fill="#be63f9"/><path d="m15.333 18.072c.27-.284.555-.545.859-.774l-.859-1.236z" fill="#be63f9"/></svg>