<svg id="bold" enable-background="new 0 0 32 32" height="512" viewBox="0 0 32 32" width="512" xmlns="http://www.w3.org/2000/svg"><path d="m26 32h-20c-3.314 0-6-2.686-6-6v-20c0-3.314 2.686-6 6-6h20c3.314 0 6 2.686 6 6v20c0 3.314-2.686 6-6 6z" fill="#e3f8fa"/><path d="m22.5 15.333h-3c-.827 0-1.5.673-1.5 1.5v4.167c0 1.654 1.346 3 3 3s3-1.346 3-3v-4.167c0-.826-.673-1.5-1.5-1.5zm-.833 7.334h-1.333c-.368 0-.667-.298-.667-.667 0-.368.299-.667.667-.667h1.333c.368 0 .667.298.667.667-.001.369-.299.667-.667.667zm.333-3.667h-.333v.333c0 .369-.299.667-.667.667s-.667-.298-.667-.667v-.333h-.333c-.368 0-.667-.298-.667-.667 0-.368.299-.667.667-.667h.333v-.333c0-.368.299-.667.667-.667s.667.298.667.667v.333h.333c.368 0 .667.298.667.667s-.299.667-.667.667z" fill="#8ce1eb"/><path d="m16.667 21v-3.02l-1.333-1.917v3.604c0 .247-.259.404-.476.301l-2.952-1.397c-.348-.165-.573-.52-.573-.904 0-.327.16-.634.429-.821l2.174-1.512h-3.604c-.243 0-.406-.254-.301-.476l1.397-2.952c.165-.348.52-.572.904-.572.327 0 .634.161.822.43l1.512 2.174v-3.604c0-.248.259-.405.476-.301l2.952 1.397c.348.165.573.52.573.904 0 .327-.16.634-.429.821l-2.174 1.512h1.633c.491-.41 1.114-.667 1.803-.667h2.421c-.487-3.391-3.395-6-6.921-6-3.866 0-7 3.134-7 7s3.134 7 7 7c.602 0 1.183-.084 1.74-.227-.046-.251-.073-.509-.073-.773z" fill="#26c6da"/></svg>