<svg id="bold" enable-background="new 0 0 32 32" height="512" viewBox="0 0 32 32" width="512" xmlns="http://www.w3.org/2000/svg"><path d="m26 32h-20c-3.314 0-6-2.686-6-6v-20c0-3.314 2.686-6 6-6h20c3.314 0 6 2.686 6 6v20c0 3.314-2.686 6-6 6z" fill="#fff9dd"/><path d="m23.681 14.933-1.681-1.569v-4.03c0-.368-.299-.667-.667-.667h-2c-.368 0-.667.299-.667.667v.912l-2.212-2.066c-.257-.239-.654-.239-.91 0l-7.243 6.769c-.194.194-.301.449-.301.718 0 .551.449 1 1 1h1v5.667c0 .918.748 1.666 1.667 1.666h8.667c.918 0 1.666-.748 1.666-1.667v-5.667h1c.551 0 1-.449 1-1 0-.268-.107-.523-.319-.733zm-9.429 6.082c-.261-.09-.399-.375-.309-.636.241-.697.408-1.425.496-2.164.033-.274.284-.469.556-.437.274.033.47.282.437.556-.097.81-.28 1.608-.544 2.373-.091.261-.376.398-.636.308zm2.664-5.175c-.159-.158-.363-.24-.585-.24-.45 0-.816.348-.816.776v.436c0 .276-.224.5-.5.5s-.5-.224-.5-.5v-.436c0-.979.815-1.776 1.816-1.776.488 0 .943.186 1.281.522.342.322.535.771.535 1.254v.562c0 .276-.224.529-.5.529s-.5-.194-.5-.47v-.62c0-.206-.082-.397-.231-.537zm-1.447 5.445c-.258-.091-.397-.363-.31-.622.449-1.215.671-2.458.671-3.726v-.562c0-.276.224-.5.5-.5s.5.224.5.5v.562c0 1.387-.243 2.746-.722 4.04-.094.256-.38.4-.639.308zm1.344-.087c-.26-.094-.394-.381-.3-.64.253-.7.433-1.427.535-2.16.037-.273.285-.467.564-.426.273.038.465.29.426.564-.111.801-.308 1.596-.585 2.362-.096.263-.386.393-.64.3zm2.189-1.012c-.077.262-.352.417-.621.339-.265-.078-.417-.356-.339-.621.186-.632.312-1.292.374-1.961.025-.275.272-.478.544-.451.275.025.477.269.451.544-.067.732-.205 1.456-.409 2.15zm.008-3.7c-.269.04-.528-.144-.571-.417-.067-.43-.273-.826-.596-1.143-.405-.388-.944-.604-1.512-.604-1.176 0-2.132.921-2.132 2.052v.562c0 1.061-.141 2.106-.42 3.108-.074.266-.349.421-.616.348-.266-.074-.422-.35-.348-.616.255-.914.383-1.869.383-2.84v-.562c0-1.683 1.405-3.052 3.133-3.052.827 0 1.611.314 2.208.885.482.473.787 1.062.888 1.706.043.275-.144.53-.417.573z" fill="#ffd200"/></svg>