<svg id="bold" enable-background="new 0 0 32 32" height="512" viewBox="0 0 32 32" width="512" xmlns="http://www.w3.org/2000/svg"><path d="m26 32h-20c-3.314 0-6-2.686-6-6v-20c0-3.314 2.686-6 6-6h20c3.314 0 6 2.686 6 6v20c0 3.314-2.686 6-6 6z" fill="#ffe6e2"/><g fill="#fd907e"><path d="m20.333 22h3.667v1.5c0 .276-.224.5-.5.5h-3.167z"/><path d="m17.333 21.333h-2v-2.833c0-.276.224-.5.5-.5h1.5z"/><path d="m22 18h1.5c.276 0 .5.224.5.5v2.833h-2z"/><path d="m18.667 18h2v3.333h-2z"/><path d="m19 24h-3.167c-.276 0-.5-.224-.5-.5v-1.5h3.667z"/></g><path d="m19.333 11.972v-2.639c0-.368-.298-.667-.667-.667-.368.001-.666.299-.666.667v1.335l-2.534-2.478c-.259-.254-.673-.254-.932 0l-6.233 6.095c-.192.187-.301.448-.301.715 0 .551.449 1 1 1h1v3.667c0 .919.747 1.667 1.667 1.667h1.667c.368 0 .667-.298.667-.667s-.299-.667-.668-.667h-1.667c-.184 0-.333-.15-.333-.333v-4.333c0-.368-.298-.667-.667-.667h-.848l5.182-5.068 5.182 5.068h-.849c-.368 0-.667.298-.667.667v.666c0 .368.298.667.667.667s.667-.299.667-.667h1c.551 0 1-.449 1-1 0-.267-.109-.528-.301-.715z" fill="#fc573b"/></svg>