<svg id="bold" enable-background="new 0 0 32 32" height="512" viewBox="0 0 32 32" width="512" xmlns="http://www.w3.org/2000/svg"><path d="m26 32h-20c-3.314 0-6-2.686-6-6v-20c0-3.314 2.686-6 6-6h20c3.314 0 6 2.686 6 6v20c0 3.314-2.686 6-6 6z" fill="#f5e6fe"/><path d="m23.681 14.933-1.681-1.569v-4.03c0-.368-.299-.667-.667-.667h-2c-.368 0-.667.299-.667.667v.912l-2.212-2.066c-.257-.239-.654-.239-.91 0l-7.243 6.769c-.194.194-.301.449-.301.718 0 .551.449 1 1 1h1v5.667c0 .918.748 1.666 1.667 1.666h8.667c.918 0 1.666-.748 1.666-1.667v-5.667h1c.551 0 1-.449 1-1 0-.268-.107-.523-.319-.733zm-5.037 2.459c.005 1.35-1.089 2.491-2.466 2.589.254-.995-.178-2.648-.178-2.648 0 1.014-.333 1.861-.854 2.516-.514.607-1.146 1.093-1.736 1.422-.239.133-.545.049-.68-.194-.134-.241-.047-.546.194-.68.437-.243.923-.609 1.334-1.058-.561-.489-.924-1.202-.924-2.005 0-1.068.725-1.519 1.365-1.917.786-.49 1.466-.912 1.303-2.38-.035-.316.351-.496.572-.268 2.414 2.51 2.085 4.538 2.07 4.623z" fill="#be63f9"/></svg>