<svg id="bold" enable-background="new 0 0 32 32" height="512" viewBox="0 0 32 32" width="512" xmlns="http://www.w3.org/2000/svg"><path d="m26 32h-20c-3.314 0-6-2.686-6-6v-20c0-3.314 2.686-6 6-6h20c3.314 0 6 2.686 6 6v20c0 3.314-2.686 6-6 6z" fill="#e3f8fa"/><path d="m17.333 24h-.667c-.368 0-.666-.299-.666-.667v-4c0-.368.298-.667.667-.667h.667c.368 0 .667.298.667.667v4c-.001.368-.299.667-.668.667z" fill="#8ce1eb"/><path d="m24 20.273c0-.887-.72-1.607-1.607-1.607h-1.327c.073-.233.14-.547.14-.913 0-1.08-.58-1.573-1.113-1.573-.8 0-.8.853-.8 1.267 0 .507-.44.96-.793 1.24.107.193.167.413.167.647v4c0 .06-.007.12-.013.18.58.24 1.507.487 2.84.487h.506c.8 0 1.5-.58 1.62-1.347l-.027-.007c.327-.68.407-2.354.407-2.374z" fill="#8ce1eb"/><path d="m19.333 11.972v-2.639c0-.368-.298-.667-.667-.667-.368.001-.666.299-.666.667v1.335l-2.534-2.478c-.259-.254-.673-.254-.932 0l-6.233 6.095c-.192.187-.301.448-.301.715 0 .551.449 1 1 1h1v3.667c0 .919.747 1.667 1.667 1.667h2.333c.368 0 .667-.298.667-.667s-.299-.667-.667-.667h-2.333c-.184 0-.333-.15-.333-.333v-4.333c0-.368-.298-.667-.667-.667h-.849l5.182-5.068 5.767 5.639c.264.258.686.253.943-.01.258-.263.253-.686-.01-.943z" fill="#26c6da"/></svg>