<svg id="bold" enable-background="new 0 0 32 32" height="512" viewBox="0 0 32 32" width="512" xmlns="http://www.w3.org/2000/svg"><path d="m26 32h-20c-3.314 0-6-2.686-6-6v-20c0-3.314 2.686-6 6-6h20c3.314 0 6 2.686 6 6v20c0 3.314-2.686 6-6 6z" fill="#e3f8fa"/><path d="m18.333 20.667h-4.667c-.551 0-1-.449-1-1v-2.333h-.666c-.368 0-.667-.299-.667-.667 0-.163.059-.316.171-.442l4.246-4.78c.126-.143.371-.143.498 0l1.084 1.219v-.33c0-.184.149-.333.333-.333h1.335c.184 0 .333.149.333.333v2.586l1.162 1.305c.112.125.171.278.171.442 0 .368-.299.667-.667.667h-.667v2.333c.001.551-.447 1-.999 1z" fill="#26c6da"/><path d="m16.008 24h-.008c-.464 0-.927-.04-1.379-.118-.363-.063-.606-.409-.543-.771s.407-.603.771-.543c.377.066.764.099 1.151.099.368 0 .671.299.671.667s-.295.666-.663.666zm1.88-.88c-.126-.346.052-.729.398-.855.363-.132.716-.298 1.051-.492.318-.184.726-.076.911.243.185.318.076.726-.243.911-.402.233-.827.432-1.262.591-.354.128-.731-.06-.855-.398zm-5.879-.185c-.401-.231-.785-.5-1.142-.798-.283-.236-.32-.657-.084-.939.236-.283.657-.32.939-.084.298.249.618.473.952.666.319.184.428.592.244.91-.183.321-.592.428-.909.245zm9.183-1.713c-.282-.236-.319-.657-.082-.939.249-.298.474-.618.667-.952.185-.319.592-.428.911-.243.319.184.428.592.243.911-.231.4-.501.785-.8 1.141-.235.28-.656.32-.939.082zm-11.537-.877c-.23 0-.453-.119-.577-.332-.233-.401-.432-.825-.592-1.261-.127-.346.051-.729.396-.856.347-.126.729.051.856.396.133.363.299.717.493 1.051.259.445-.063 1.002-.576 1.002zm13.454-2.416c-.363-.063-.605-.409-.542-.771.066-.38.1-.769.1-1.158 0-.368.299-.682.667-.682s.666.282.666.65v.032c0 .465-.04.932-.12 1.387-.063.362-.408.606-.771.542zm-14.442-1.255c-.368 0-.667-.29-.667-.658 0 0 .039-.937.117-1.387.062-.362.405-.607.771-.543.363.063.606.408.543.771-.065.374-.098.759-.098 1.143 0 .368-.298.674-.666.674zm13.59-2.98c-.133-.362-.3-.715-.495-1.049-.186-.318-.078-.726.24-.912.317-.186.727-.078.912.24.234.402.435.826.595 1.26.127.346-.05.729-.395.856-.349.128-.73-.052-.857-.395zm-12.95-.768c-.319-.184-.429-.591-.245-.91.232-.403.5-.788.798-1.144.236-.283.657-.321.939-.084.283.236.32.657.084.939-.248.297-.472.617-.665.953-.186.322-.595.429-.911.246zm10.959-2.049c-.297-.248-.618-.471-.953-.664-.319-.183-.43-.59-.246-.91.183-.32.59-.431.91-.246.403.231.788.499 1.144.797.283.236.321.656.085.939-.237.282-.657.32-.94.084zm-8.527-.883c-.185-.318-.077-.726.241-.911.401-.233.825-.433 1.261-.593.346-.126.729.05.855.396.127.345-.05.729-.396.855-.363.133-.716.3-1.05.494-.317.185-.726.076-.911-.241zm5.398-.564c-.374-.064-.756-.097-1.137-.097-.368 0-.678-.299-.678-.667s.286-.666.654-.666h.024c.456 0 .914.039 1.362.116.363.062.607.407.545.77-.063.365-.411.605-.77.544z" fill="#8ce1eb"/></svg>