<svg id="bold" enable-background="new 0 0 32 32" height="512" viewBox="0 0 32 32" width="512" xmlns="http://www.w3.org/2000/svg"><path d="m26 32h-20c-3.314 0-6-2.686-6-6v-20c0-3.314 2.686-6 6-6h20c3.314 0 6 2.686 6 6v20c0 3.314-2.686 6-6 6z" fill="#ffe6e2"/><g fill="#fd907e"><path d="m16 22.167c-.276 0-.5-.224-.5-.5v-1.833c0-.276.224-.5.5-.5s.5.224.5.5v1.833c0 .276-.224.5-.5.5z"/><path d="m16.833 24h-1.667c-.276 0-.5-.224-.5-.5v-1.667c0-.276.224-.5.5-.5h1.667c.276 0 .5.224.5.5v1.667c0 .276-.224.5-.5.5z"/><path d="m15 23.167h-4.5c-.276 0-.5-.224-.5-.5s.224-.5.5-.5h4.5c.276 0 .5.224.5.5s-.224.5-.5.5z"/><path d="m21.5 23.167h-4.5c-.276 0-.5-.224-.5-.5s.224-.5.5-.5h4.5c.276 0 .5.224.5.5s-.224.5-.5.5z"/></g><path d="m19.5 20h-7c-.643 0-1.167-.523-1.167-1.167v-3.167h-1.167c-.46 0-.833-.374-.833-.833 0-.222.086-.43.242-.588l6.07-6.099c.095-.093.222-.146.355-.146.133 0 .26.053.355.147l1.645 1.655v-.635c0-.276.224-.5.5-.5h1.667c.276 0 .5.224.5.5v3.314l1.714 1.726c.016.012.03.025.044.039.156.157.242.366.242.588 0 .46-.374.833-.833.833h-1.167v3.167c0 .643-.524 1.166-1.167 1.166z" fill="#fc573b"/></svg>