<svg id="bold" enable-background="new 0 0 32 32" height="512" viewBox="0 0 32 32" width="512" xmlns="http://www.w3.org/2000/svg"><path d="m26 32h-20c-3.314 0-6-2.686-6-6v-20c0-3.314 2.686-6 6-6h20c3.314 0 6 2.686 6 6v20c0 3.314-2.686 6-6 6z" fill="#f5e6fe"/><path d="m18.333 20.667h-4.667c-.551 0-1-.449-1-1v-2.333h-.666c-.368 0-.667-.299-.667-.667 0-.163.059-.316.171-.442l4.246-4.78c.126-.143.371-.143.498 0l1.084 1.219v-.33c0-.184.149-.333.333-.333h1.335c.184 0 .333.149.333.333v2.586l1.162 1.305c.112.125.171.278.171.442 0 .368-.299.667-.667.667h-.667v2.333c.001.551-.447 1-.999 1z" fill="#be63f9"/><g fill="#d9a4fc"><path d="m17.333 10.333h-2.667c-.202 0-.385-.122-.462-.309s-.035-.402.109-.545l1.333-1.333c.195-.195.512-.195.707 0l1.333 1.333c.143.143.186.358.109.545-.077.188-.259.309-.462.309z"/><path d="m22.167 17.833c-.064 0-.13-.012-.191-.038-.187-.077-.309-.26-.309-.462v-2.667c0-.202.122-.384.309-.462.187-.077.402-.035.545.108l1.333 1.333c.195.195.195.512 0 .707l-1.333 1.333c-.096.098-.224.148-.354.148z"/><path d="m9.833 17.833c-.13 0-.258-.051-.354-.146l-1.333-1.333c-.195-.195-.195-.512 0-.707l1.333-1.333c.143-.143.359-.186.545-.108.187.077.309.26.309.462v2.667c0 .202-.122.384-.309.462-.061.024-.126.036-.191.036z"/><path d="m16 24c-.128 0-.256-.049-.354-.146l-1.333-1.333c-.143-.143-.186-.358-.109-.545s.26-.309.462-.309h2.667c.202 0 .385.122.462.309s.035.402-.109.545l-1.333 1.333c-.097.097-.225.146-.353.146z"/></g></svg>