<svg id="bold" enable-background="new 0 0 32 32" height="512" viewBox="0 0 32 32" width="512" xmlns="http://www.w3.org/2000/svg"><path d="m26 32h-20c-3.314 0-6-2.686-6-6v-20c0-3.314 2.686-6 6-6h20c3.314 0 6 2.686 6 6v20c0 3.314-2.686 6-6 6z" fill="#fff9dd"/><path d="m23.517 16.001c-.269-.015-.514.19-.532.466-.244 3.663-3.314 6.533-6.988 6.533-3.86 0-7-3.14-7-7s3.14-7 7-7c1.714 0 3.321.62 4.576 1.717l-.429.429c-.315.314-.093.854.353.854h1.667c.276 0 .5-.224.5-.5v-1.667c0-.442-.537-.669-.854-.354l-.531.531c-1.442-1.284-3.299-2.01-5.282-2.01-4.411 0-8 3.589-8 8s3.589 8 8 8c4.199 0 7.707-3.28 7.986-7.467.018-.275-.191-.513-.466-.532z" fill="#ffe777"/><path d="m18.33 20.667h-4.667c-.551 0-1-.449-1-1v-2.333h-.667c-.368 0-.667-.299-.667-.667 0-.163.059-.316.171-.442l4.246-4.78c.126-.143.371-.143.498 0l1.084 1.219v-.33c0-.184.149-.333.333-.333h1.333c.184 0 .333.149.333.333v2.586l1.162 1.305c.112.125.171.278.171.442 0 .368-.299.667-.667.667h-.663v2.333c0 .551-.449 1-1 1z" fill="#ffd200"/></svg>