<svg id="bold" enable-background="new 0 0 32 32" height="512" viewBox="0 0 32 32" width="512" xmlns="http://www.w3.org/2000/svg"><path d="m26 32h-20c-3.314 0-6-2.686-6-6v-20c0-3.314 2.686-6 6-6h20c3.314 0 6 2.686 6 6v20c0 3.314-2.686 6-6 6z" fill="#e3f8fa"/><path d="m21.813 9.48-.531.531c-1.441-1.285-3.299-2.011-5.282-2.011-4.411 0-8 3.589-8 8 0 .782.115 1.559.342 2.311.065.216.264.356.479.356.048 0 .096-.007.145-.021.264-.08.414-.359.334-.623-.199-.659-.3-1.339-.3-2.023 0-3.86 3.14-7 7-7 1.714 0 3.321.62 4.576 1.717l-.429.429c-.315.314-.093.854.353.854h1.667c.276 0 .5-.224.5-.5v-1.667c0-.441-.537-.669-.854-.353z" fill="#8ce1eb"/><path d="m23.658 13.689c-.08-.264-.357-.415-.623-.335-.264.08-.414.359-.334.623.198.659.299 1.339.299 2.023 0 3.86-3.14 7-7 7-1.714 0-3.321-.62-4.576-1.717l.429-.429c.315-.314.093-.854-.353-.854h-1.667c-.276 0-.5.224-.5.5v1.667c0 .446.541.666.854.354l.531-.531c1.441 1.284 3.299 2.01 5.282 2.01 4.411 0 8-3.589 8-8 0-.782-.115-1.559-.342-2.311z" fill="#8ce1eb"/><path d="m18.333 20.667h-4.667c-.551 0-1-.449-1-1v-2.333h-.666c-.368 0-.667-.299-.667-.667 0-.163.059-.316.171-.442l4.246-4.78c.126-.143.371-.143.498 0l1.084 1.219v-.33c0-.184.149-.333.333-.333h1.335c.184 0 .333.149.333.333v2.586l1.162 1.305c.112.125.171.278.171.442 0 .368-.299.667-.667.667h-.667v2.333c.001.551-.447 1-.999 1z" fill="#26c6da"/></svg>