<svg id="bold" enable-background="new 0 0 32 32" height="512" viewBox="0 0 32 32" width="512" xmlns="http://www.w3.org/2000/svg"><path d="m26 32h-20c-3.314 0-6-2.686-6-6v-20c0-3.314 2.686-6 6-6h20c3.314 0 6 2.686 6 6v20c0 3.314-2.686 6-6 6z" fill="#e3f8fa"/><path d="m23.681 14.933-1.681-1.569v-4.03c0-.368-.299-.667-.667-.667h-2c-.368 0-.667.299-.667.667v.912l-2.212-2.066c-.257-.239-.654-.239-.91 0l-7.243 6.769c-.194.194-.301.449-.301.718 0 .551.449 1 1 1h1v5.667c0 .918.748 1.666 1.667 1.666h8.667c.918 0 1.666-.748 1.666-1.667v-5.667h1c.551 0 1-.449 1-1 0-.268-.107-.523-.319-.733zm-9.014 5.9c0 .276-.224.5-.5.5s-.5-.224-.5-.5v-2.46l-.48-.48c-.16.069-.336.107-.52.107-.735 0-1.333-.598-1.333-1.333s.598-1.333 1.333-1.333 1.333.597 1.333 1.333c0 .185-.038.36-.106.52l.626.626c.094.094.146.221.146.354v2.666zm1.833-4.932v3.599c0 .276-.224.5-.5.5s-.5-.224-.5-.5v-3.599c-.488-.198-.833-.676-.833-1.234 0-.735.598-1.333 1.333-1.333s1.333.598 1.333 1.333c0 .558-.345 1.036-.833 1.234zm2.833 2.099c-.185 0-.36-.038-.52-.106l-.48.48v2.46c0 .276-.224.5-.5.5s-.5-.224-.5-.5v-2.667c0-.132.053-.26.146-.354l.626-.626c-.067-.16-.105-.336-.105-.52 0-.735.598-1.333 1.333-1.333s1.333.598 1.333 1.333-.597 1.333-1.333 1.333z" fill="#26c6da"/></svg>