<svg id="bold" enable-background="new 0 0 32 32" height="512" viewBox="0 0 32 32" width="512" xmlns="http://www.w3.org/2000/svg"><path d="m26 32h-20c-3.314 0-6-2.686-6-6v-20c0-3.314 2.686-6 6-6h20c3.314 0 6 2.686 6 6v20c0 3.314-2.686 6-6 6z" fill="#fff9dd"/><path d="m21.833 20c-.868 0-1.434.559-1.71 1.333h-3.79c-.551 0-1 .449-1 1v1c0 .368.299.667.667.667s.667-.299.667-.667v-.667h3.456c.276.775 1.009 1.334 1.877 1.334 1.103 0 2-.897 2-2s-1.064-2-2.167-2zm.167 2.667c-.368 0-.667-.299-.667-.667s.299-.667.667-.667.667.299.667.667-.299.667-.667.667z" fill="#ffe777"/><path d="m19.333 11.972v-2.639c0-.368-.299-.667-.667-.667s-.666.299-.666.667v1.335l-2.534-2.478c-.259-.254-.673-.254-.932 0l-6.234 6.095c-.19.187-.3.448-.3.715 0 .551.449 1 1 1h1v3.667c0 .919.748 1.667 1.667 1.667h2.333c.368 0 .667-.298.667-.667s-.299-.667-.667-.667h-2.333c-.184 0-.333-.15-.333-.333v-4.333c0-.368-.299-.667-.667-.667h-.849l5.182-5.068 5.182 5.068h-.849c-.368 0-.667.298-.667.667v3.333c0 .368.299.667.667.667s.667-.299.667-.667v-2.667h1c.551 0 1-.449 1-1 0-.267-.11-.528-.301-.715z" fill="#ffd200"/></svg>