<svg id="bold" enable-background="new 0 0 32 32" height="512" viewBox="0 0 32 32" width="512" xmlns="http://www.w3.org/2000/svg"><path d="m26 32h-20c-3.314 0-6-2.686-6-6v-20c0-3.314 2.686-6 6-6h20c3.314 0 6 2.686 6 6v20c0 3.314-2.686 6-6 6z" fill="#e3f8fa"/><path d="m21.667 18.668h-4.667c-.551 0-1-.449-1-1v-2.333h-.667c-.368 0-.667-.299-.667-.667 0-.163.059-.316.171-.442l4.246-4.78c.126-.143.371-.143.498 0l1.084 1.219v-.33c0-.184.149-.333.333-.333h1.333c.184 0 .333.149.333.333v2.586l1.162 1.305c.115.125.174.278.174.442 0 .368-.299.667-.667.667h-.667v2.333c.001.551-.448 1-.999 1z" fill="#8ce1eb"/><path d="m23.333 21.335h-.667v-1.567c-.519.248-.823.234-1.333.234v1.333h-10.666v-6.667h2.667c0-.49.182-.963.511-1.331l.002-.002h-3.18c-.735 0-1.333.598-1.333 1.333v6.667h-.667c-.369 0-.667.298-.667.666s.299.667.667.667h14.667c.368 0 .667-.298.667-.667-.001-.368-.299-.666-.668-.666z" fill="#26c6da"/></svg>