<svg id="bold" enable-background="new 0 0 32 32" height="512" viewBox="0 0 32 32" width="512" xmlns="http://www.w3.org/2000/svg"><path d="m26 32h-20c-3.314 0-6-2.686-6-6v-20c0-3.314 2.686-6 6-6h20c3.314 0 6 2.686 6 6v20c0 3.314-2.686 6-6 6z" fill="#f5e6fe"/><path d="m17.763 20.828-2.174-2.181c-.845-.835-.854-2.215.003-3.062.778-.794 2.103-.955 3.432.375.195.195.195.512 0 .707-.196.195-.512.194-.707 0-.603-.604-1.338-1.071-2.016-.377-.47.464-.457 1.201-.006 1.648l2.176 2.183c.426.426 1.098.46 1.563.079.212-.174.529-.144.703.07.175.214.144.529-.07.704-.864.708-2.112.647-2.904-.146z" fill="#d9a4fc"/><path d="m19.943 23.004c-.195-.195-.195-.512.001-.707.195-.195.513-.195.708.001.62.621 1.291 1.08 2.003.362.467-.463.454-1.201.004-1.646l-2.176-2.183c-.41-.41-1.121-.443-1.561-.081-.212.175-.527.146-.704-.067-.176-.213-.146-.528.067-.704.82-.678 2.143-.617 2.905.145l2.174 2.181c.845.835.854 2.215-.003 3.062-.818.827-2.072.986-3.418-.363z" fill="#d9a4fc"/><path d="m19.333 11.972v-2.638c0-.368-.299-.667-.667-.667-.367 0-.666.299-.666.667v1.335l-2.534-2.478c-.259-.253-.673-.253-.932 0l-6.233 6.095c-.194.19-.301.443-.301.715 0 .551.449 1 1 1h1v3.667c0 .919.748 1.667 1.667 1.667h3c.368 0 .667-.299.667-.667s-.299-.667-.667-.667h-3c-.184 0-.333-.149-.333-.333v-4.333c0-.368-.299-.667-.667-.667h-.849l5.182-5.068 5.462 5.341c-.081.11-.128.246-.128.394 0 .368.299.667.667.667.551 0 1-.449 1-1 0-.271-.107-.525-.301-.715z" fill="#be63f9"/></svg>