<svg id="bold" enable-background="new 0 0 32 32" height="512" viewBox="0 0 32 32" width="512" xmlns="http://www.w3.org/2000/svg"><path d="m26 32h-20c-3.314 0-6-2.686-6-6v-20c0-3.314 2.686-6 6-6h20c3.314 0 6 2.686 6 6v20c0 3.314-2.686 6-6 6z" fill="#f5e6fe"/><path d="m20.667 15.333c-1.838 0-3.333 1.514-3.333 3.375 0 2.568 2.885 5.066 3.008 5.172.094.08.209.12.325.12s.231-.04.325-.12c.123-.105 3.008-2.603 3.008-5.172 0-1.861-1.495-3.375-3.333-3.375zm0 4.667c-.735 0-1.333-.598-1.333-1.333s.598-1.333 1.333-1.333 1.333.598 1.333 1.333-.598 1.333-1.333 1.333z" fill="#d9a4fc"/><path d="m20.3 12.917-.966-.945v-2.639c0-.368-.298-.667-.667-.667-.369.001-.667.299-.667.667v1.335l-2.534-2.478c-.259-.253-.673-.253-.932 0l-6.236 6.096c-.189.188-.298.448-.298.714 0 .551.449 1 1 1h1v3.667c0 .919.747 1.667 1.667 1.667h3.667c.368 0 .667-.299.667-.667s-.299-.667-.668-.667h-3.667c-.184 0-.333-.149-.333-.333v-4.333c0-.368-.298-.667-.667-.667h-.85l5.184-5.068 4.367 4.271c.264.258.687.253.943-.01.258-.264.253-.686-.01-.943z" fill="#be63f9"/></svg>