<svg id="bold" enable-background="new 0 0 32 32" height="512" viewBox="0 0 32 32" width="512" xmlns="http://www.w3.org/2000/svg"><path d="m26 32h-20c-3.314 0-6-2.686-6-6v-20c0-3.314 2.686-6 6-6h20c3.314 0 6 2.686 6 6v20c0 3.314-2.686 6-6 6z" fill="#fff9dd"/><path d="m19.369 23.901c-.413-.307-4.035-3.068-4.035-5.409 0-1.374 1.122-2.492 2.5-2.492.709 0 1.369.297 1.833.796.464-.499 1.124-.796 1.833-.796 1.378 0 2.5 1.118 2.5 2.492 0 2.341-3.622 5.102-4.035 5.409-.177.132-.419.132-.596 0z" fill="#ffe777"/><path d="m19.333 11.968v-2.635c0-.368-.299-.667-.667-.667s-.666.299-.666.667v1.332l-2.534-2.475c-.259-.253-.673-.253-.932 0l-6.239 6.099c-.187.187-.295.447-.295.711 0 .551.449 1 1 1h1v3.667c0 .919.748 1.667 1.667 1.667h2.333c.368 0 .667-.299.667-.667s-.299-.667-.667-.667h-2.333c-.184 0-.333-.149-.333-.333v-4.333c0-.368-.299-.667-.667-.667h-.851l5.184-5.068 5.034 4.918c.264.257.686.253.943-.011.257-.263.252-.685-.011-.943z" fill="#ffd200"/></svg>