<svg id="bold" enable-background="new 0 0 32 32" height="512" viewBox="0 0 32 32" width="512" xmlns="http://www.w3.org/2000/svg"><path d="m26 32h-20c-3.314 0-6-2.686-6-6v-20c0-3.314 2.686-6 6-6h20c3.314 0 6 2.686 6 6v20c0 3.314-2.686 6-6 6z" fill="#e3f8fa"/><path d="m19.667 20.914 4.066-2.482c-.215-.261-.536-.432-.9-.432h-6.333c-.364 0-.685.171-.899.432z" fill="#8ce1eb"/><path d="m19.927 21.927c-.08.049-.17.073-.26.073s-.181-.024-.26-.073l-4.073-2.486v3.393c0 .643.523 1.167 1.167 1.167h6.333c.643-.001 1.166-.524 1.166-1.168v-3.393z" fill="#8ce1eb"/><path d="m19.333 11.972v-2.639c0-.368-.298-.667-.667-.667-.368.001-.666.299-.666.667v1.335l-2.534-2.478c-.259-.253-.673-.253-.932 0l-6.233 6.095c-.194.19-.301.444-.301.715 0 .551.449 1 1 1h1v3.667c0 .919.747 1.667 1.667 1.667h1.667c.368 0 .667-.299.667-.667s-.299-.667-.668-.667h-1.667c-.184 0-.333-.149-.333-.333v-4.333c0-.368-.298-.667-.667-.667h-.848l5.182-5.068 5.182 5.068h-.849c-.368 0-.667.299-.667.667v.666c0 .368.298.667.667.667s.667-.299.667-.667h1c.551 0 1-.449 1-1 0-.271-.107-.525-.301-.715z" fill="#26c6da"/></svg>