<svg id="bold" enable-background="new 0 0 32 32" height="512" viewBox="0 0 32 32" width="512" xmlns="http://www.w3.org/2000/svg"><path d="m26 32h-20c-3.314 0-6-2.686-6-6v-20c0-3.314 2.686-6 6-6h20c3.314 0 6 2.686 6 6v20c0 3.314-2.686 6-6 6z" fill="#f5e6fe"/><path d="m23.681 14.933-1.681-1.569v-4.03c0-.368-.299-.667-.667-.667h-2c-.368 0-.667.299-.667.667v.912l-2.212-2.066c-.257-.239-.654-.239-.91 0l-7.243 6.769c-.194.194-.301.449-.301.718 0 .551.449 1 1 1h1v5.667c0 .918.748 1.666 1.667 1.666h8.667c.918 0 1.666-.748 1.666-1.667v-5.667h1c.551 0 1-.449 1-1 0-.268-.107-.523-.319-.733zm-9.681-.266h1.5c.276 0 .5-.224.5-.5s-.224-.5-.5-.5h-1.466c.16-.944.977-1.667 1.966-1.667 1.103 0 2 .897 2 2v2c0 1.103-.897 2-2 2-.868 0-1.601-.559-1.877-1.333h1.377c.276 0 .5-.224.5-.5s-.224-.5-.5-.5h-1.5zm5.411 2.685c-.497 1.249-1.609 2.101-2.911 2.278v1.204c0 .276-.224.5-.5.5s-.5-.224-.5-.5v-1.205c-1.294-.181-2.428-1.049-2.912-2.278-.101-.257.025-.547.282-.648.256-.102.547.025.648.282.396 1.007 1.393 1.683 2.481 1.683 1.101 0 2.075-.661 2.482-1.685.102-.257.392-.381.649-.28.258.101.383.392.281.649z" fill="#be63f9"/></svg>