<svg id="bold" enable-background="new 0 0 32 32" height="512" viewBox="0 0 32 32" width="512" xmlns="http://www.w3.org/2000/svg"><path d="m26 32h-20c-3.314 0-6-2.686-6-6v-20c0-3.314 2.686-6 6-6h20c3.314 0 6 2.686 6 6v20c0 3.314-2.686 6-6 6z" fill="#e3f8fa"/><path d="m21 17.333h-4.667c-.551 0-1-.449-1-1v-2.333h-.667c-.367 0-.666-.299-.666-.667 0-.163.059-.316.171-.442l4.246-4.78c.126-.143.371-.143.498 0l1.085 1.219v-.33c0-.184.149-.333.333-.333h1.333c.185 0 .334.149.334.333v2.586l1.162 1.305c.112.125.171.278.171.442 0 .368-.299.667-.667.667h-.666v2.333c0 .552-.449 1-1 1z" fill="#8ce1eb"/><path d="m18 18.667v2.667h-8v-11.334c0-.368.299-.667.667-.667h4.882l1.184-1.333h-6.067c-1.103 0-2 .897-2 2v12c0 1.103.897 2 2 2h6.667c1.103 0 2-.897 2-2v-3.333z" fill="#26c6da"/></svg>