<svg id="bold" enable-background="new 0 0 32 32" height="512" viewBox="0 0 32 32" width="512" xmlns="http://www.w3.org/2000/svg"><path d="m26 32h-20c-3.314 0-6-2.686-6-6v-20c0-3.314 2.686-6 6-6h20c3.314 0 6 2.686 6 6v20c0 3.314-2.686 6-6 6z" fill="#fff9dd"/><path d="m23.681 14.933-1.681-1.569v-4.03c0-.368-.299-.667-.667-.667h-2c-.368 0-.667.299-.667.667v.912l-2.212-2.066c-.257-.239-.654-.239-.91 0l-7.243 6.769c-.194.194-.301.449-.301.718 0 .551.449 1 1 1h1v5.667c0 .918.748 1.666 1.667 1.666h8.667c.918 0 1.666-.748 1.666-1.667v-5.667h1c.551 0 1-.449 1-1 0-.268-.107-.523-.319-.733zm-9.919 3.372-.133.081.095.097c.193.198.189.514-.008.707-.201.195-.517.187-.707-.008l-.176-.18-.176.18c-.193.197-.509.201-.707.008-.197-.193-.201-.51-.008-.707l.095-.097-.133-.081c-.235-.144-.309-.452-.165-.688.126-.205.374-.278.593-.199v-.085c0-.276.224-.5.5-.5s.5.224.5.5v.085c.219-.079.467-.006.593.2.145.235.072.543-.163.687zm3.166 0-.133.081.095.097c.193.198.189.514-.008.707-.201.195-.517.187-.707-.008l-.175-.179-.176.18c-.193.197-.509.201-.707.008-.197-.193-.201-.51-.008-.707l.095-.097-.133-.081c-.235-.144-.309-.452-.165-.688.126-.205.374-.278.593-.2v-.085c0-.276.224-.5.5-.5s.5.224.5.5v.085c.219-.079.467-.006.593.199.145.236.071.544-.164.688zm3.167 0-.133.081.095.097c.193.198.189.514-.008.707-.201.195-.517.187-.707-.008l-.176-.18-.176.18c-.193.197-.509.201-.707.008-.197-.193-.201-.51-.008-.707l.095-.097-.133-.081c-.235-.144-.309-.452-.165-.688.126-.205.374-.278.593-.199v-.085c0-.276.224-.5.5-.5s.5.224.5.5v.085c.219-.079.467-.006.593.2.146.235.072.543-.163.687z" fill="#ffd200"/></svg>