<svg id="bold" enable-background="new 0 0 32 32" height="512" viewBox="0 0 32 32" width="512" xmlns="http://www.w3.org/2000/svg"><path d="m26 32h-20c-3.314 0-6-2.686-6-6v-20c0-3.314 2.686-6 6-6h20c3.314 0 6 2.686 6 6v20c0 3.314-2.686 6-6 6z" fill="#ffe6e2"/><path d="m23.681 14.933-1.681-1.569v-4.03c0-.368-.299-.667-.667-.667h-2c-.368 0-.667.299-.667.667v.912l-2.212-2.066c-.257-.239-.654-.239-.91 0l-7.243 6.769c-.194.194-.301.449-.301.718 0 .551.449 1 1 1h1v5.667c0 .918.748 1.666 1.667 1.666h8.667c.918 0 1.666-.748 1.666-1.667v-5.667h1c.551 0 1-.449 1-1 0-.268-.107-.523-.319-.733zm-8.181-.433c0-.276.224-.5.5-.5s.5.224.5.5v2.333c0 .276-.224.5-.5.5s-.5-.224-.5-.5zm.5 6.833c-1.838 0-3.333-1.495-3.333-3.333 0-.989.43-1.916 1.179-2.544.212-.178.527-.149.704.062.177.212.149.527-.063.704-.522.437-.821 1.084-.821 1.777 0 1.286 1.047 2.333 2.333 2.333s2.333-1.047 2.333-2.333c0-.692-.299-1.34-.821-1.777-.212-.177-.24-.493-.062-.704.177-.212.493-.24.704-.062.749.627 1.179 1.554 1.179 2.544.001 1.838-1.494 3.333-3.332 3.333z" fill="#fc573b"/></svg>