<svg id="bold" enable-background="new 0 0 32 32" height="512" viewBox="0 0 32 32" width="512" xmlns="http://www.w3.org/2000/svg"><path d="m26 32h-20c-3.314 0-6-2.686-6-6v-20c0-3.314 2.686-6 6-6h20c3.314 0 6 2.686 6 6v20c0 3.314-2.686 6-6 6z" fill="#fff9dd"/><g fill="#ffe777"><path d="m20.667 18.12h3.333v-2.119c0-.22-.144-.414-.354-.478l-2.98-.912v3.509z"/><path d="m19.333 18.12v-3.509l-2.98.912c-.209.064-.353.258-.353.478v2.119z"/><path d="m20.667 19.453v4.195c.928-.52 2.943-1.897 3.282-4.195z"/><path d="m19.333 19.453h-3.282c.339 2.297 2.353 3.675 3.282 4.195z"/></g><path d="m19.333 11.9v-2.637c0-.368-.298-.667-.667-.667-.368 0-.666.299-.666.667v1.334l-2.534-2.477c-.259-.254-.673-.253-.932 0l-6.236 6.096c-.189.187-.298.447-.298.714 0 .551.449 1 1 1h1v3.667c0 .919.747 1.667 1.667 1.667h2.333c.368 0 .667-.299.667-.667s-.299-.667-.667-.667h-2.333c-.184 0-.333-.149-.333-.333v-4.333c0-.368-.298-.667-.667-.667h-.85l5.183-5.068 3.701 3.618c.264.258.687.253.943-.01.258-.263.253-.686-.01-.943z" fill="#ffd200"/></svg>