<svg id="bold" enable-background="new 0 0 32 32" height="512" viewBox="0 0 32 32" width="512" xmlns="http://www.w3.org/2000/svg"><path d="m26 32h-20c-3.314 0-6-2.686-6-6v-20c0-3.314 2.686-6 6-6h20c3.314 0 6 2.686 6 6v20c0 3.314-2.686 6-6 6z" fill="#fff9dd"/><path d="m19.667 15.333c-2.389 0-4.333 1.944-4.333 4.333s1.943 4.334 4.333 4.334 4.333-1.944 4.333-4.333-1.944-4.334-4.333-4.334zm0 7.334c-.276 0-.5-.224-.5-.5s.224-.5.5-.5.5.224.5.5-.224.5-.5.5zm.994-2.895c-.436.335-.494.644-.494 1.062 0 .276-.224.5-.5.5s-.5-.224-.5-.5c0-.732.22-1.345.885-1.855.176-.135.282-.356.282-.59 0-.398-.299-.722-.667-.722s-.667.324-.667.722c0 .276-.224.5-.5.5s-.5-.224-.5-.5c0-.95.748-1.722 1.667-1.722s1.667.773 1.667 1.722c-.001.542-.252 1.059-.673 1.383z" fill="#ffe777"/><path d="m19.333 11.972v-2.639c0-.368-.298-.667-.667-.667-.368.001-.666.299-.666.667v1.335l-2.534-2.478c-.259-.253-.673-.253-.932 0l-6.236 6.096c-.189.188-.298.448-.298.714 0 .551.449 1 1 1h1v3.667c0 .919.747 1.667 1.667 1.667h1.667c.368 0 .667-.299.667-.667s-.299-.667-.668-.667h-1.667c-.184 0-.333-.149-.333-.333v-4.333c0-.368-.298-.667-.667-.667h-.85l5.184-5.068 4.367 4.271c.264.258.686.253.943-.01.258-.263.253-.685-.01-.943z" fill="#ffd200"/></svg>