<svg id="bold" enable-background="new 0 0 32 32" height="512" viewBox="0 0 32 32" width="512" xmlns="http://www.w3.org/2000/svg"><path d="m26 32h-20c-3.314 0-6-2.686-6-6v-20c0-3.314 2.686-6 6-6h20c3.314 0 6 2.686 6 6v20c0 3.314-2.686 6-6 6z" fill="#e3f8fa"/><path d="m18.833 8h-5.667c-1.011 0-1.833.822-1.833 1.833v9.5c0 2.573 2.094 4.667 4.667 4.667s4.667-2.094 4.667-4.667v-9.5c0-1.011-.823-1.833-1.834-1.833zm-4.166 2.667h.667v-.667c0-.368.299-.667.667-.667s.666.298.666.667v.667h.667c.368 0 .667.298.667.667s-.299.666-.668.666h-.667v.667c0 .368-.299.667-.667.667s-.667-.298-.667-.667v-.667h-.667c-.367 0-.665-.298-.665-.667s.298-.666.667-.666zm-1.854 6.02c-.195-.195-.195-.512 0-.707l1-1c.313-.313.854-.093.854.354v2c0 .45-.542.665-.854.354zm4.52 4.646h-2.667c-.368 0-.667-.298-.667-.667.001-.368.299-.666.668-.666h2.667c.368 0 .666.298.666.667 0 .368-.298.666-.667.666zm1.854-4.646-1 1c-.313.313-.854.094-.854-.354v-2c0-.447.542-.666.854-.354l1 1c.195.196.195.513 0 .708z" fill="#26c6da"/></svg>