<svg id="bold" enable-background="new 0 0 32 32" height="512" viewBox="0 0 32 32" width="512" xmlns="http://www.w3.org/2000/svg"><path d="m26 32h-20c-3.314 0-6-2.686-6-6v-20c0-3.314 2.686-6 6-6h20c3.314 0 6 2.686 6 6v20c0 3.314-2.686 6-6 6z" fill="#f5e6fe"/><g fill="#d9a4fc"><path d="m18.667 14.667c-.368 0-.667-.299-.667-.667s.299-.667.667-.667.667.299.667.667-.3.667-.667.667z"/><path d="m16.345 12.385c-.198-.192-.203-.509-.01-.707.62-.639 1.45-.998 2.337-1.011.893.002 1.728.322 2.366.941.198.192.203.508.01.707-.192.199-.508.203-.707.01-.447-.434-1.031-.659-1.655-.659-.619.009-1.2.26-1.634.708-.192.198-.509.203-.707.011z"/><path d="m14.838 10.543c-.208-.182-.229-.497-.047-.705 1.014-1.16 2.38-1.813 3.846-1.837 1.479-.033 2.85.583 3.897 1.711.188.202.176.519-.026.706-.202.188-.519.176-.707-.027-.851-.917-1.966-1.428-3.147-1.391-1.18.02-2.285.551-3.111 1.495-.181.209-.499.23-.705.048z"/></g><path d="m16.681 13.858c-.51-.003-.989-.199-1.371-.642.085.462-.262.784-.643.784h-.333v.333c0 .368-.299.667-.667.667s-.667-.298-.667-.667v-.333h-.333c-.369 0-.667-.298-.667-.667s.299-.667.667-.667h.333v-.333c0-.368.299-.667.667-.667s.667.298.667.667v.333h.333c.136 0 .256.051.361.121-.138-.302-.169-.543-.161-.815-.336-.056-.651-.202-.91-.429-.366-.32-.587-.766-.62-1.255-.007-.098 0-.194.009-.289h-2.513c-.827 0-1.5.673-1.5 1.5v8.167c0 2.389 1.944 4.333 4.333 4.333s4.334-1.943 4.334-4.332v-3.79c-.789-.281-1.389-1.047-1.319-2.019zm-5.701 3.829c-.195-.195-.195-.512 0-.707l.833-.833c.312-.313.854-.092.854.354v1.667c0 .45-.542.665-.854.354zm3.687 3.646h-2c-.368 0-.667-.298-.667-.667 0-.368.298-.666.667-.666h2c.368 0 .667.298.667.667-.001.368-.299.666-.667.666zm1.687-3.646-.834.833c-.313.313-.854.094-.854-.354v-1.666c0-.446.539-.667.854-.354l.833.833c.196.196.196.512.001.708z" fill="#be63f9"/></svg>