<svg id="bold" enable-background="new 0 0 32 32" height="512" viewBox="0 0 32 32" width="512" xmlns="http://www.w3.org/2000/svg"><path d="m26 32h-20c-3.314 0-6-2.686-6-6v-20c0-3.314 2.686-6 6-6h20c3.314 0 6 2.686 6 6v20c0 3.314-2.686 6-6 6z" fill="#fff9dd"/><path d="m23.681 14.933-1.681-1.569v-4.03c0-.368-.299-.667-.667-.667h-2c-.368 0-.667.299-.667.667v.912l-2.212-2.066c-.257-.239-.654-.239-.91 0l-7.243 6.769c-.194.194-.301.449-.301.718 0 .551.449 1 1 1h1v5.667c0 .918.748 1.666 1.667 1.666h8.667c.918 0 1.666-.748 1.666-1.667v-5.667h1c.551 0 1-.449 1-1 0-.268-.107-.523-.319-.733zm-4.181 2.9h-.884c-.069.364-.21.702-.412.998l.624.624c.195.195.195.512 0 .707s-.512.195-.707 0l-.624-.624c-.295.201-.634.342-.997.412v.884c0 .276-.224.5-.5.5s-.5-.224-.5-.5v-.884c-.364-.069-.702-.21-.997-.412l-.624.624c-.195.195-.512.195-.707 0s-.195-.512 0-.707l.624-.624c-.201-.295-.342-.634-.412-.998h-.884c-.276 0-.5-.224-.5-.5s.224-.5.5-.5h.884c.069-.364.21-.702.412-.998l-.624-.624c-.195-.195-.195-.512 0-.707s.512-.195.707 0l.624.624c.295-.201.634-.342.997-.412v-.884c0-.276.224-.5.5-.5s.5.224.5.5v.884c.364.069.702.21.997.412l.624-.624c.195-.195.512-.195.707 0s.195.512 0 .707l-.624.624c.201.295.342.634.412.998h.884c.276 0 .5.224.5.5s-.224.5-.5.5z" fill="#ffd200"/></svg>