<svg id="bold" enable-background="new 0 0 32 32" height="512" viewBox="0 0 32 32" width="512" xmlns="http://www.w3.org/2000/svg"><path d="m26 32h-20c-3.314 0-6-2.686-6-6v-20c0-3.314 2.686-6 6-6h20c3.314 0 6 2.686 6 6v20c0 3.314-2.686 6-6 6z" fill="#ffe6e2"/><path d="m18.333 24h-4.667c-.551 0-1-.449-1-1v-2.333h-.666c-.368 0-.667-.299-.667-.667 0-.163.059-.316.171-.442l4.246-4.78c.126-.143.371-.143.498 0l1.084 1.219v-.33c0-.184.149-.333.333-.333h1.335c.184 0 .333.149.333.333v2.586l1.162 1.305c.112.125.171.278.171.442 0 .368-.299.667-.667.667h-.667v2.333c.001.551-.447 1-.999 1z" fill="#fd907e"/><path d="m22 10h-.667v-1.333c0-.369-.298-.667-.666-.667h-.667c-.368 0-.667.298-.667.667v1.333h-6.667v-1.333c.001-.369-.298-.667-.666-.667h-.667c-.368 0-.667.298-.667.667v1.333h-.666c-1.103 0-2 .897-2 2v10c0 1.103.897 2 2 2h1.333v-1.333h-1.333c-.368 0-.667-.299-.667-.667v-7.973h13.333v7.973c0 .368-.299.667-.667.667h-1.333v1.333h1.334c1.103 0 2-.897 2-2v-10c0-1.103-.897-2-2-2z" fill="#fc573b"/></svg>