<svg id="bold" enable-background="new 0 0 32 32" height="512" viewBox="0 0 32 32" width="512" xmlns="http://www.w3.org/2000/svg"><path d="m26 32h-20c-3.314 0-6-2.686-6-6v-20c0-3.314 2.686-6 6-6h20c3.314 0 6 2.686 6 6v20c0 3.314-2.686 6-6 6z" fill="#fff9dd"/><path d="m23.805 22.862-1.693-1.693c.349-.527.555-1.157.555-1.835 0-1.838-1.495-3.333-3.333-3.333-1.839-.001-3.334 1.494-3.334 3.332s1.495 3.333 3.333 3.333c.678 0 1.308-.206 1.835-.555l1.693 1.693c.26.26.682.26.943 0s.261-.682.001-.942zm-4.472-1.529c-1.103 0-2-.897-2-2s.897-2 2-2 2 .897 2 2-.897 2-2 2z" fill="#ffe777"/><path d="m21.699 14.285-2.366-2.313v-2.639c0-.368-.298-.667-.667-.667-.368.001-.666.299-.666.667v1.335l-2.534-2.478c-.259-.253-.673-.253-.932 0l-6.233 6.095c-.194.19-.301.444-.301.715 0 .551.449 1 1 1h1v3.667c0 .919.747 1.667 1.667 1.667h2.333c.368 0 .667-.299.667-.667s-.299-.667-.667-.667h-2.333c-.184 0-.333-.149-.333-.333v-4.333c0-.368-.298-.667-.667-.667h-.849l5.182-5.068 5.767 5.639c.264.258.687.253.943-.01.257-.263.252-.685-.011-.943z" fill="#ffd200"/></svg>