<svg id="bold" enable-background="new 0 0 32 32" height="512" viewBox="0 0 32 32" width="512" xmlns="http://www.w3.org/2000/svg"><path d="m26 32h-20c-3.314 0-6-2.686-6-6v-20c0-3.314 2.686-6 6-6h20c3.314 0 6 2.686 6 6v20c0 3.314-2.686 6-6 6z" fill="#f5e6fe"/><path d="m23.102 20.98c.013-.104.032-.206.032-.313s-.018-.209-.032-.313l.6-.454c.134-.101.172-.287.087-.432l-.539-.934c-.084-.146-.263-.206-.418-.14l-.691.292c-.168-.128-.348-.242-.546-.325l-.092-.734c-.021-.167-.163-.292-.331-.292h-1.078c-.168 0-.31.125-.331.292l-.092.734c-.198.083-.378.196-.546.325l-.691-.292c-.155-.065-.334-.005-.418.14l-.539.934c-.084.146-.047.331.087.432l.6.454c-.013.104-.032.206-.032.313s.018.209.032.313l-.6.454c-.134.101-.172.287-.087.432l.539.934c.084.146.263.206.418.14l.691-.292c.168.128.348.242.546.325l.092.734c.022.168.163.293.332.293h1.078c.168 0 .31-.125.331-.292l.092-.734c.198-.083.378-.196.546-.325l.691.292c.155.065.334.005.418-.14l.539-.934c.084-.146.047-.331-.087-.432zm-2.468 1.02c-.736 0-1.333-.597-1.333-1.333s.597-1.333 1.333-1.333 1.333.597 1.333 1.333-.597 1.333-1.333 1.333z" fill="#d9a4fc"/><path d="m19.3 11.972v-2.639c0-.368-.298-.667-.667-.667-.368 0-.667.299-.667.667v1.335l-2.533-2.478c-.259-.253-.673-.253-.932 0l-6.233 6.095c-.194.19-.301.444-.301.715 0 .551.449 1 1 1h1v3.667c0 .919.747 1.667 1.667 1.667h4.333c.368 0 .667-.299.667-.667s-.299-.667-.667-.667h-4.333c-.184 0-.333-.149-.333-.333v-4.333c0-.368-.298-.667-.667-.667h-.849l5.182-5.068 5.182 5.068h-.849c-.368 0-.667.299-.667.667s.298.667.667.667h1.667c.551 0 1-.449 1-1 0-.271-.107-.525-.301-.715z" fill="#be63f9"/></svg>