<svg id="bold" enable-background="new 0 0 32 32" height="512" viewBox="0 0 32 32" width="512" xmlns="http://www.w3.org/2000/svg"><path d="m26 32h-20c-3.314 0-6-2.686-6-6v-20c0-3.314 2.686-6 6-6h20c3.314 0 6 2.686 6 6v20c0 3.314-2.686 6-6 6z" fill="#f5e6fe"/><path d="m8.328 16.001c-.182.004-.328.152-.328.334v6.165c0 .092.075.167.167.167h1.581c.149 0 .28-.099.321-.242l1.475-5.199c.095-.336-.085-.689-.413-.808-.604-.221-1.531-.438-2.803-.417z" fill="#be63f9"/><path d="m22.667 19.667c-1.333 0-4 1.688-5.333 1.688s-2.834-1.022-2.834-1.022 1.796.333 2.833.333 1.333-.354 1.333-.833c0-1.167-1.982-1.348-2.984-1.5-.984-.548-1.495-.981-3.125-1.119-.01.095-.025.189-.051.284l-1.339 4.72c1.517.689 4.129 1.782 5.5 1.782 2 0 7.333-2.667 7.333-3.333 0-.667-.667-1-1.333-1z" fill="#be63f9"/><path d="m21.667 17.328h-4.667c-.551 0-1-.449-1-1v-2.333h-.667c-.368 0-.667-.299-.667-.667 0-.163.059-.316.171-.442l4.246-4.78c.126-.143.371-.143.498 0l1.084 1.219v-.33c0-.184.149-.333.333-.333h1.333c.184 0 .333.149.333.333v2.586l1.162 1.305c.115.126.174.279.174.442 0 .368-.299.667-.667.667h-.667v2.333c.001.552-.448 1-.999 1z" fill="#d9a4fc"/></svg>