<svg id="bold" enable-background="new 0 0 32 32" height="512" viewBox="0 0 32 32" width="512" xmlns="http://www.w3.org/2000/svg"><path d="m26 32h-20c-3.314 0-6-2.686-6-6v-20c0-3.314 2.686-6 6-6h20c3.314 0 6 2.686 6 6v20c0 3.314-2.686 6-6 6z" fill="#f5e6fe"/><path d="m22.667 21.333c-.31 0-.592.111-.819.289l-2.534-1.43c.028-.193.024-.206.002-.371l2.533-1.444c.227.178.508.288.818.288.735 0 1.333-.598 1.333-1.333 0-.734-.598-1.332-1.333-1.332s-1.333.598-1.333 1.333c0 .061.01.119.018.178l-2.533 1.444c-.227-.178-.508-.288-.818-.288-.735 0-1.333.598-1.333 1.333s.598 1.333 1.333 1.333c.304 0 .582-.106.806-.279l2.545 1.436c-.008.058-.018.116-.018.176 0 .735.598 1.333 1.333 1.333.735.001 1.333-.597 1.333-1.332s-.598-1.334-1.333-1.334z" fill="#d9a4fc"/><path d="m19.333 11.972v-2.639c0-.368-.298-.667-.667-.667-.368.001-.666.299-.666.667v1.335l-2.534-2.478c-.259-.253-.673-.253-.932 0l-6.233 6.095c-.194.19-.301.444-.301.715 0 .551.449 1 1 1h1v3.667c0 .919.747 1.667 1.667 1.667h3c.368 0 .667-.299.667-.667s-.299-.667-.667-.667h-3c-.184 0-.333-.149-.333-.333v-4.333c0-.368-.298-.667-.667-.667h-.849l5.182-5.068 5.767 5.639c.263.258.687.253.943-.01.258-.263.253-.685-.01-.943z" fill="#be63f9"/></svg>