<svg id="bold" enable-background="new 0 0 32 32" height="512" viewBox="0 0 32 32" width="512" xmlns="http://www.w3.org/2000/svg"><path d="m26 32h-20c-3.314 0-6-2.686-6-6v-20c0-3.314 2.686-6 6-6h20c3.314 0 6 2.686 6 6v20c0 3.314-2.686 6-6 6z" fill="#fff9dd"/><path d="m22.449 10.354-6.333-2.333c-.074-.027-.156-.027-.23 0l-6.333 2.333c-.131.048-.218.173-.218.313v5.453c0 6.068 6.516 7.853 6.582 7.87.054.014.111.015.169 0 .066-.017 6.582-1.802 6.582-7.87v-5.453c-.001-.14-.089-.265-.219-.313zm-2.449 6.31h-.667v2.333c0 .551-.449 1-1 1h-4.667c-.551 0-1-.449-1-1v-2.333h-.666c-.368 0-.667-.299-.667-.667 0-.163.059-.316.171-.442l4.246-4.78c.126-.143.371-.143.498 0l1.084 1.219v-.33c0-.184.149-.333.333-.333h1.335c.184 0 .333.149.333.333v2.586l1.162 1.305c.112.125.171.278.171.442.001.368-.298.667-.666.667z" fill="#ffd200"/></svg>