<svg id="bold" enable-background="new 0 0 32 32" height="512" viewBox="0 0 32 32" width="512" xmlns="http://www.w3.org/2000/svg"><path d="m26 32h-20c-3.314 0-6-2.686-6-6v-20c0-3.314 2.686-6 6-6h20c3.314 0 6 2.686 6 6v20c0 3.314-2.686 6-6 6z" fill="#ffe6e2"/><path d="m16 11.333c-4.71 0-8 1.493-8 3.63 0 2.139 5.595 2.37 8 2.37s8-.231 8-2.37c0-2.137-3.29-3.63-8-3.63zm-3.333 3.334c0 .368-.299.667-.667.667s-.667-.298-.667-.667v-.667c0-.368.299-.667.667-.667s.667.298.667.667zm2.666 0c0 .368-.299.667-.667.667s-.666-.299-.666-.667v-.667c0-.368.299-.667.667-.667s.667.298.667.667v.667zm2.667 0c0 .368-.299.667-.667.667s-.667-.298-.667-.667v-.667c0-.368.299-.667.667-.667s.667.298.667.667zm2.667 0c0 .368-.299.667-.667.667s-.667-.298-.667-.667v-.667c0-.368.299-.667.667-.667s.667.298.667.667z" fill="#fc573b"/><path d="m16 18.333c-3.342 0-5.76-.356-7.243-1.06 1.093 2.07 3.31 3.394 5.806 3.394h2.876c2.495 0 4.712-1.323 5.805-3.393-1.484.704-3.903 1.059-7.244 1.059z" fill="#fd907e"/></svg>