<svg id="bold" enable-background="new 0 0 32 32" height="512" viewBox="0 0 32 32" width="512" xmlns="http://www.w3.org/2000/svg"><path d="m26 32h-20c-3.314 0-6-2.686-6-6v-20c0-3.314 2.686-6 6-6h20c3.314 0 6 2.686 6 6v20c0 3.314-2.686 6-6 6z" fill="#ffe6e2"/><path d="m23.681 14.933-1.681-1.569v-4.03c0-.368-.299-.667-.667-.667h-2c-.368 0-.667.299-.667.667v.912l-2.212-2.066c-.257-.239-.654-.239-.91 0l-7.243 6.769c-.194.194-.301.449-.301.718 0 .551.449 1 1 1h1v5.667c0 .918.748 1.666 1.667 1.666h8.667c.918 0 1.666-.748 1.666-1.667v-5.667h1c.551 0 1-.449 1-1 0-.268-.107-.523-.319-.733zm-7.348 6.4h-.667c-.92 0-1.667-.747-1.667-1.667v-.333h4v.333c.001.921-.746 1.667-1.666 1.667zm2.039-3h-4.743c-.615-.622-.962-1.45-.962-2.333 0-1.84 1.493-3.333 3.333-3.333s3.333 1.493 3.333 3.333c0 .883-.346 1.712-.961 2.333z" fill="#fc573b"/></svg>