<svg id="bold" enable-background="new 0 0 32 32" height="512" viewBox="0 0 32 32" width="512" xmlns="http://www.w3.org/2000/svg"><path d="m26 32h-20c-3.314 0-6-2.686-6-6v-20c0-3.314 2.686-6 6-6h20c3.314 0 6 2.686 6 6v20c0 3.314-2.686 6-6 6z" fill="#e3f8fa"/><path d="m22.333 17.667h-7.277c-.346-.595-.984-1-1.723-1-1.105 0-2 .895-2 2s.895 2 2 2c.738 0 1.376-.405 1.723-1h7.277c.552 0 1-.448 1-1 0-.553-.447-1-1-1z" fill="#8ce1eb"/><path d="m15.702 21c-.619.63-1.473 1-2.369 1-1.838 0-3.333-1.495-3.333-3.333s1.495-3.333 3.333-3.333c.896 0 1.75.37 2.369 1h2.298v-6.5c0-1.012-.822-1.834-1.833-1.834h-5.667c-1.011 0-1.833.822-1.833 1.833v9.5c0 2.573 2.094 4.667 4.667 4.667 1.985 0 3.681-1.249 4.354-3zm-5.035-9.833c0-.643.523-1.167 1.167-1.167h3c.643 0 1.166.523 1.166 1.167v1.667c0 .643-.523 1.166-1.167 1.166h-3c-.643 0-1.167-.523-1.167-1.167v-1.666z" fill="#26c6da"/></svg>