<svg id="bold" enable-background="new 0 0 32 32" height="512" viewBox="0 0 32 32" width="512" xmlns="http://www.w3.org/2000/svg"><path d="m26 32h-20c-3.314 0-6-2.686-6-6v-20c0-3.314 2.686-6 6-6h20c3.314 0 6 2.686 6 6v20c0 3.314-2.686 6-6 6z" fill="#fff9dd"/><g fill="#ffe777"><path d="m16.698 11.04c0-1.132.957-2.052 2.133-2.052.568 0 1.107.215 1.512.603.323.317.529.713.597 1.144.044.273.299.457.572.416.273-.043.459-.299.416-.572-.102-.644-.408-1.232-.889-1.706-.598-.57-1.382-.885-2.208-.885-1.727 0-3.133 1.369-3.133 3.052v.562c0 .97-.129 1.925-.383 2.839-.074.266.082.542.348.616.268.074.543-.084.616-.348.278-1.001.419-2.047.419-3.107z"/><path d="m21.462 12.156c-.283-.024-.519.176-.545.451-.062.669-.188 1.329-.374 1.961-.077.265.074.543.339.621.271.078.544-.078.621-.339.204-.695.342-1.418.411-2.15.024-.275-.178-.518-.452-.544z"/><path d="m17.495 12.442c-.276-.025-.523.164-.556.438-.087.737-.255 1.466-.496 2.164-.09.261.048.546.309.636.258.09.545-.047.636-.309.265-.766.448-1.564.544-2.372.033-.276-.163-.525-.437-.557z"/><path d="m20.147 12.132c.276 0 .5-.254.5-.53v-.562c0-.482-.194-.932-.536-1.255-.339-.336-.794-.521-1.281-.521-1.001 0-1.816.797-1.816 1.776v.436c0 .276.224.5.5.5s.5-.224.5-.5v-.436c0-.428.367-.776.816-.776.221 0 .426.082.585.24.15.141.232.331.232.536v.621c0 .276.224.471.5.471z"/><path d="m20.11 12.636c-.277-.04-.526.153-.564.427-.101.733-.281 1.46-.534 2.16-.094.259.04.546.3.64.262.094.547-.042.64-.3.277-.765.474-1.56.585-2.363.038-.274-.154-.527-.427-.564z"/><path d="m19.331 11.04c0-.276-.224-.5-.5-.5s-.5.224-.5.5v.562c0 1.268-.222 2.51-.667 3.714-.095.258.041.536.3.632.251.093.547-.04.645-.306.479-1.294.722-2.654.722-4.04z"/></g><path d="m21.667 18.664h-6.674c-.304-.403-.782-.667-1.326-.667-.92 0-1.667.746-1.667 1.667 0 .92.746 1.667 1.667 1.667.544 0 1.022-.264 1.326-.667h6.674c.552 0 1-.448 1-1s-.448-1-1-1z" fill="#ffd200"/><path d="m13.667 16.664c.696 0 1.353.237 1.88.667h2.453s-.572-.132-.85-.31c-.28.036-.547.018-.838-.084-.328-.114-.599-.317-.806-.568-.677-.109-1.128-.51-1.369-1.038h-1.637c-.643 0-1.167-.523-1.167-1.167v-1.641c0-.643.523-1.167 1.167-1.167h1.865c0-.495-.007-.781.124-1.326h-3.322c-1.011 0-1.833.822-1.833 1.833v7.8c0 2.389 1.944 4.333 4.333 4.333 1.53 0 2.874-.799 3.646-2h-1.766c-.527.43-1.184.667-1.88.667-1.654 0-3-1.346-3-3s1.345-2.999 3-2.999z" fill="#ffd200"/></svg>