<svg id="bold" enable-background="new 0 0 32 32" height="512" viewBox="0 0 32 32" width="512" xmlns="http://www.w3.org/2000/svg"><path d="m26 32h-20c-3.314 0-6-2.686-6-6v-20c0-3.314 2.686-6 6-6h20c3.314 0 6 2.686 6 6v20c0 3.314-2.686 6-6 6z" fill="#ffe6e2"/><g fill="#fd907e"><path d="m18 14.666c-.368 0-.667-.299-.667-.667s.299-.667.667-.667.667.299.667.667-.299.667-.667.667z"/><path d="m15.678 12.384c-.198-.192-.202-.509-.01-.707.62-.639 1.45-.998 2.337-1.011.889.004 1.729.322 2.367.941.198.192.202.509.01.707-.193.199-.509.202-.707.01-.439-.426-1.013-.659-1.621-.659-.012 0-.023 0-.034 0-.62.009-1.2.26-1.634.708-.194.2-.51.203-.708.011z"/><path d="m14.171 10.542c-.208-.182-.229-.497-.048-.705 1.014-1.16 2.38-1.813 3.846-1.837 1.482-.051 2.851.583 3.897 1.711.188.202.176.519-.027.706-.202.188-.519.176-.706-.027-.85-.916-1.978-1.43-3.146-1.39-1.18.02-2.285.551-3.111 1.495-.184.21-.5.228-.705.047z"/></g><path d="m16 13.999v.167c0 .643-.523 1.167-1.167 1.167h-2.333c-.643 0-1.167-.523-1.167-1.167v-1.641c0-.643.523-1.167 1.167-1.167h.617c-.314-.362-.475-.801-.438-1.326h-1.512c-1.011 0-1.833.822-1.833 1.833v7.8c0 2.389 1.944 4.333 4.333 4.333 1.53 0 2.874-.799 3.646-2h-1.766c-.527.43-1.184.667-1.88.667-1.654 0-3-1.346-3-3s1.346-3 3-3c.696 0 1.353.237 1.88.667h2.453v-1.333c-1.103 0-2-.897-2-2z" fill="#fc573b"/><path d="m21.667 18.666h-6.674c-.304-.403-.782-.667-1.326-.667-.92 0-1.667.746-1.667 1.667 0 .92.746 1.667 1.667 1.667.544 0 1.022-.264 1.326-.667h6.674c.552 0 1-.448 1-1s-.448-1-1-1z" fill="#fc573b"/></svg>