<svg id="bold" enable-background="new 0 0 32 32" height="512" viewBox="0 0 32 32" width="512" xmlns="http://www.w3.org/2000/svg"><path d="m26 32h-20c-3.314 0-6-2.686-6-6v-20c0-3.314 2.686-6 6-6h20c3.314 0 6 2.686 6 6v20c0 3.314-2.686 6-6 6z" fill="#f5e6fe"/><path d="m21.167 17.333h-4.667c-.551 0-1-.449-1-1v-2.333h-.667c-.368 0-.667-.299-.667-.667 0-.163.059-.316.171-.442l4.246-4.78c.126-.143.371-.143.498 0l1.084 1.219v-.33c0-.184.149-.333.333-.333h1.333c.184 0 .333.149.333.333v2.586l1.162 1.305c.112.125.171.278.171.442 0 .368-.299.667-.667.667h-.667v2.333c.004.552-.445 1-.996 1z" fill="#d9a4fc"/><path d="m18.833 18.667v3.333c0 .368-.298.667-.667.667h-6.666c-.368 0-.667-.299-.667-.667v-12c0-.368.298-.667.667-.667h.333c.368 0 .667.298.667.667 0 .368.298.667.667.667h1.364l2.369-2.667h-5.4c-1.103 0-2 .897-2 2v12c0 1.103.897 2 2 2h6.667c1.103 0 2-.897 2-2v-3.333z" fill="#be63f9"/></svg>