<svg id="bold" enable-background="new 0 0 32 32" height="512" viewBox="0 0 32 32" width="512" xmlns="http://www.w3.org/2000/svg"><path d="m26 32h-20c-3.314 0-6-2.686-6-6v-20c0-3.314 2.686-6 6-6h20c3.314 0 6 2.686 6 6v20c0 3.314-2.686 6-6 6z" fill="#e3f8fa"/><path d="m21 17.333h-4.667c-.551 0-1-.449-1-1v-2.333h-.667c-.367 0-.666-.299-.666-.667 0-.163.059-.316.171-.442l4.246-4.78c.126-.143.371-.143.498 0l1.085 1.219v-.33c0-.184.149-.333.333-.333h1.333c.185 0 .334.149.334.333v2.586l1.162 1.305c.112.125.171.278.171.442 0 .368-.299.667-.667.667h-.666v2.333c0 .552-.449 1-1 1z" fill="#8ce1eb"/><path d="m17.333 18.667v.667c0 .368-.299.667-.667.667h-6c-.367-.001-.666-.3-.666-.668v-6.667c0-.367.299-.666.667-.666h2.513l3.372-3.796c-.187-.128-.412-.204-.655-.204h-4.46c-.602 0-1.101.452-1.16 1.05l-.171 1.706c-.829.244-1.439 1.003-1.439 1.91v6.667c0 .907.61 1.666 1.439 1.91l.171 1.706c.058.599.557 1.051 1.16 1.051h4.46c.602 0 1.101-.452 1.16-1.05l.171-1.706c.829-.244 1.439-1.003 1.439-1.91v-.667z" fill="#26c6da"/></svg>