<svg id="bold" enable-background="new 0 0 32 32" height="512" viewBox="0 0 32 32" width="512" xmlns="http://www.w3.org/2000/svg"><path d="m26 32h-20c-3.314 0-6-2.686-6-6v-20c0-3.314 2.686-6 6-6h20c3.314 0 6 2.686 6 6v20c0 3.314-2.686 6-6 6z" fill="#fff9dd"/><path d="m23.681 14.933-1.681-1.569v-4.03c0-.368-.299-.667-.667-.667h-2c-.368 0-.667.299-.667.667v.912l-2.212-2.066c-.257-.239-.654-.239-.91 0l-7.243 6.769c-.194.194-.301.449-.301.718 0 .551.449 1 1 1h1v5.667c0 .918.748 1.666 1.667 1.666h8.667c.918 0 1.666-.748 1.666-1.667v-5.667h1c.551 0 1-.449 1-1 0-.268-.107-.523-.319-.733zm-7.014 5.586c0 .595-.608.991-1.139.738l-2.316-1.388c-.336-.201-.545-.575-.545-.975v-1.788c0-.4.209-.774.545-.976l2.273-1.364c.014-.008.028-.016.043-.023.53-.252 1.139.144 1.139.738zm1.166-.852c-.276 0-.5-.224-.5-.5s.224-.5.5-.5c.271 0 .5-.305.5-.667s-.229-.667-.5-.667c-.276 0-.5-.224-.5-.5s.224-.5.5-.5c.827 0 1.5.748 1.5 1.667s-.673 1.667-1.5 1.667z" fill="#ffd200"/></svg>