<svg id="bold" enable-background="new 0 0 32 32" height="512" viewBox="0 0 32 32" width="512" xmlns="http://www.w3.org/2000/svg"><path d="m26 32h-20c-3.314 0-6-2.686-6-6v-20c0-3.314 2.686-6 6-6h20c3.314 0 6 2.686 6 6v20c0 3.314-2.686 6-6 6z" fill="#fff9dd"/><g fill="#ffe777"><path d="m20 14.666c-.368 0-.667-.299-.667-.667s.299-.667.667-.667.667.299.667.667-.299.667-.667.667z"/><path d="m17.678 12.385c-.198-.192-.203-.509-.01-.707.62-.639 1.45-.998 2.337-1.011.898.01 1.728.322 2.366.941.198.192.203.508.01.707-.192.199-.508.203-.707.01-.447-.434-1.035-.653-1.655-.659-.619.009-1.2.26-1.634.708-.192.198-.509.203-.707.011z"/><path d="m16.171 10.543c-.208-.182-.229-.497-.047-.705 1.014-1.16 2.38-1.813 3.846-1.837 1.474-.037 2.851.583 3.897 1.711.188.202.176.519-.026.706-.202.188-.518.175-.707-.027-.851-.917-1.969-1.422-3.147-1.391-1.18.02-2.285.551-3.111 1.495-.181.209-.499.229-.705.048z"/></g><path d="m16 21.666c-3.342 0-5.76-.356-7.243-1.06 1.092 2.071 3.309 3.394 5.805 3.394h2.876c2.495 0 4.712-1.323 5.805-3.393-1.483.704-3.902 1.059-7.243 1.059z" fill="#ffd200"/><path d="m21.314 15.495c-.352.31-.809.505-1.314.505-.825 0-1.534-.502-1.839-1.216-.679-.075-1.399-.117-2.161-.117-4.71 0-8 1.493-8 3.63 0 2.139 5.595 2.37 8 2.37s8-.231 8-2.37c0-1.178-1.002-2.157-2.686-2.802zm-8.647 2.505c0 .368-.299.667-.667.667s-.667-.299-.667-.667v-.667c0-.368.299-.667.667-.667s.667.298.667.667zm2.666 0c0 .368-.299.667-.667.667s-.666-.299-.666-.667v-.667c0-.368.299-.667.667-.667s.667.298.667.667v.667zm2.667 0c0 .368-.299.667-.667.667s-.666-.299-.666-.667v-.667c0-.368.299-.667.667-.667s.666.299.666.667zm2.667 0c0 .368-.299.667-.667.667s-.667-.298-.667-.667v-.667c0-.368.299-.667.667-.667s.667.298.667.667z" fill="#ffd200"/></svg>