<svg id="bold" enable-background="new 0 0 32 32" height="512" viewBox="0 0 32 32" width="512" xmlns="http://www.w3.org/2000/svg"><path d="m26 32h-20c-3.314 0-6-2.686-6-6v-20c0-3.314 2.686-6 6-6h20c3.314 0 6 2.686 6 6v20c0 3.314-2.686 6-6 6z" fill="#e3f8fa"/><path d="m17.514 13.858c-.476-.003-.925-.186-1.266-.518-.352-.342-.564-.805-.548-1.368-.336-.056-.651-.202-.91-.429-.07-.061-.129-.13-.188-.2-.144-.007-.289-.011-.436-.011-2.577 0-4.667 1.045-4.667 2.333s2.09 2.335 4.668 2.335c1.49 0 2.815-.351 3.669-.894-.241-.362-.357-.757-.322-1.248zm-4.347.308c-.276 0-.5-.224-.5-.5s.224-.5.5-.5.5.224.5.5c0 .277-.224.5-.5.5zm2 0c-.276 0-.5-.224-.5-.5s.224-.5.5-.5.5.224.5.5c0 .277-.224.5-.5.5z" fill="#26c6da"/><g fill="#8ce1eb"><path d="m19.5 14.666c-.368 0-.667-.299-.667-.667s.299-.667.667-.667.667.299.667.667-.299.667-.667.667z"/><path d="m17.178 12.385c-.198-.192-.203-.509-.01-.707.62-.639 1.45-.998 2.337-1.011.888.01 1.728.322 2.366.941.198.192.203.508.01.707-.192.199-.508.203-.707.01-.447-.434-1.041-.653-1.655-.659-.619.009-1.2.26-1.634.708-.192.198-.509.203-.707.011z"/><path d="m15.671 10.543c-.208-.182-.229-.497-.047-.705 1.014-1.16 2.38-1.813 3.846-1.837 1.481-.037 2.85.583 3.897 1.711.188.202.176.519-.026.706-.202.188-.519.175-.707-.027-.851-.917-1.97-1.422-3.147-1.391-1.18.02-2.285.551-3.111 1.495-.181.209-.499.229-.705.048z"/></g><path d="m14.167 21.666c-2.577 0-4.667-1.045-4.667-2.333v2.333c0 1.289 2.089 2.334 4.667 2.334s4.667-1.045 4.667-2.333v-2.333c-.001 1.288-2.09 2.332-4.667 2.332z" fill="#26c6da"/><path d="m18.574 15.762c-.632.914-2.364 1.571-4.407 1.571-2.578 0-4.667-1.045-4.667-2.333v3c0 1.289 2.089 2.333 4.667 2.333s4.667-1.045 4.667-2.333v-2.123c-.091-.032-.177-.071-.26-.115z" fill="#26c6da"/></svg>