<svg id="bold" enable-background="new 0 0 32 32" height="512" viewBox="0 0 32 32" width="512" xmlns="http://www.w3.org/2000/svg"><path d="m26 32h-20c-3.314 0-6-2.686-6-6v-20c0-3.314 2.686-6 6-6h20c3.314 0 6 2.686 6 6v20c0 3.314-2.686 6-6 6z" fill="#f5e6fe"/><path d="m8.735 17.8c.032-.008.062-.022.097-.024 1.948-.082 3.179-.552 4.049-1.04-.71-.662-1.332-1.208-1.92-1.163-.777.021-1.237.469-1.77.987-.342.332-.715.689-1.191.935v.292c.256-.003.501.002.735.013z" fill="#d9a4fc"/><path d="m16.652 21.044c1.24 0 2.436-.496 3.594-.976 1.208-.5 2.456-1.01 3.754-.957v-.331c-1.042-.015-1.705.117-2.456.268-.896.181-1.911.386-3.75.386-1.716 0-2.997-.949-4.148-1.991-.67.405-1.367.713-2.124.929.988.402 1.683.946 2.298 1.432.875.693 1.566 1.24 2.832 1.24z" fill="#d9a4fc"/><path d="m8.493 15.844c.597-.58 1.273-1.237 2.439-1.27 1.037-.027 1.902.754 2.815 1.605.299-.213.585-.43.856-.644 1.072-.843 2.083-1.639 3.834-1.665 1.667-.008 2.636 1.239 3.506 2.352.494.632.96 1.229 1.453 1.458.055.025.1.063.14.103.147-.004.301-.005.463-.003v-7.976c.001-.995-.808-1.804-1.803-1.804h-12.392c-.995 0-1.804.809-1.804 1.804v6.488c.163-.136.325-.285.493-.448z" fill="#be63f9"/><path d="m21.346 18.069c.246-.05.488-.098.741-.141-.322-.32-.622-.697-.931-1.091-.796-1.02-1.559-1.997-2.702-1.967-1.413.021-2.215.652-3.23 1.451-.23.181-.47.365-.721.549.979.864 1.999 1.565 3.292 1.565 1.737 0 2.659-.186 3.551-.366z" fill="#d9a4fc"/><path d="m20.629 20.992c-1.248.518-2.538 1.052-3.977 1.052-1.614 0-2.549-.74-3.452-1.454-1.149-.909-2.339-1.856-5.2-1.804v3.41c0 .995.809 1.804 1.804 1.804h12.392c.995 0 1.804-.809 1.804-1.804v-2.086c-1.087-.057-2.2.396-3.371.882z" fill="#be63f9"/></svg>