<svg id="bold" enable-background="new 0 0 32 32" height="512" viewBox="0 0 32 32" width="512" xmlns="http://www.w3.org/2000/svg"><path d="m26 32h-20c-3.314 0-6-2.686-6-6v-20c0-3.314 2.686-6 6-6h20c3.314 0 6 2.686 6 6v20c0 3.314-2.686 6-6 6z" fill="#e3f8fa"/><path d="m21.755 23.914-2.088-1.421-2.088 1.421c-.383.259-.878-.094-.766-.536l.65-2.566-1.954-1.669c-.341-.291-.153-.854.297-.88l2.49-.141.902-2.46c.16-.435.779-.435.939 0l.902 2.46 2.49.141c.45.026.638.588.297.88l-1.954 1.669.65 2.566c.113.448-.391.791-.767.536z" fill="#8ce1eb"/><path d="m19.333 11.972v-2.638c0-.368-.299-.667-.667-.667s-.666.298-.666.667v1.335l-2.534-2.479c-.259-.253-.673-.253-.932 0l-6.234 6.096c-.193.189-.3.443-.3.714 0 .551.449 1 1 1h1v3.667c0 .919.748 1.667 1.667 1.667h2.333c.368 0 .667-.299.667-.667s-.299-.667-.667-.667h-2.333c-.184 0-.333-.149-.333-.333v-4.333c0-.368-.299-.667-.667-.667h-.849l5.182-5.068 5.767 5.639c.264.258.686.253.943-.01s.253-.685-.01-.943z" fill="#26c6da"/></svg>