<svg id="bold" enable-background="new 0 0 32 32" height="512" viewBox="0 0 32 32" width="512" xmlns="http://www.w3.org/2000/svg"><path d="m26 32h-20c-3.314 0-6-2.686-6-6v-20c0-3.314 2.686-6 6-6h20c3.314 0 6 2.686 6 6v20c0 3.314-2.686 6-6 6z" fill="#ffe6e2"/><g fill="#fc573b"><path d="m12 12.333h-2.167c-.276 0-.5.224-.5.5v2.5c0 2.174 1.051 4.103 2.667 5.321z"/><path d="m22.167 12.333h-2.167v8.321c1.616-1.218 2.667-3.146 2.667-5.321v-2.5c0-.276-.224-.5-.5-.5z"/><path d="m18.667 21.167v-8.833h-5.333v9.106c.817.358 1.718.56 2.666.56.968 0 1.886-.212 2.717-.585-.031-.077-.05-.16-.05-.248zm-2.667-2.5c-.736 0-1.333-.597-1.333-1.333 0-.737.597-1.334 1.333-1.334s1.333.597 1.333 1.333c0 .737-.597 1.334-1.333 1.334z"/></g><path d="m22.167 13.333h-12.334c-1.011 0-1.833-.822-1.833-1.833v-.333c0-.644.523-1.167 1.167-1.167h13.667c.643 0 1.166.523 1.166 1.167v.333c0 1.011-.822 1.833-1.833 1.833z" fill="#fd907e"/></svg>