<svg id="bold" enable-background="new 0 0 32 32" height="512" viewBox="0 0 32 32" width="512" xmlns="http://www.w3.org/2000/svg"><path d="m26 32h-20c-3.314 0-6-2.686-6-6v-20c0-3.314 2.686-6 6-6h20c3.314 0 6 2.686 6 6v20c0 3.314-2.686 6-6 6z" fill="#fff9dd"/><g fill="#ffe777"><path d="m13.611 18.002-.173-.644c-.072-.267.087-.541.354-.613l3.219-.863c.271-.072.542.088.613.354l.173.644c.167.621-.203 1.262-.824 1.43l-1.932.518c-.63.166-1.265-.21-1.43-.826z"/><path d="m9.5 24h-1c-.276 0-.5-.224-.5-.5v-5c0-.276.224-.5.5-.5h1c.643 0 1.167.523 1.167 1.167v3.667c0 .643-.524 1.166-1.167 1.166z"/><path d="m10.333 20.5h5.673v1h-5.673z"/><circle cx="16.667" cy="21" r="1"/><path d="m15.68 18.044h.999v2.358h-.999z" transform="matrix(.964 -.266 .266 .964 -4.528 4.993)"/></g><path d="m22.097 12.801-5.796 1.552c-.171.044-.353.021-.506-.066l-.577-.333-4.885 1.309.345 1.288c.2.743.875 1.236 1.611 1.236.142 0 .286-.018.43-.057l9.015-2.416c.533-.143.85-.692.708-1.225z" fill="#ffd200"/><path d="m23.229 8.011-12.234 3.279c-.43.115-.79.391-1.012.777-.223.385-.283.834-.167 1.264l.172.644 5.152-1.381c.169-.045.352-.021.506.066l.577.333 6.124-1.62 1.274-2.907c.11-.25-.115-.526-.392-.455z" fill="#ffd200"/><path d="m23.492 10.419-.833 1.898.427 1.597c.018.068.023.135.032.203.674-.413 1.034-1.229.82-2.032z" fill="#ffd200"/></svg>