<svg id="bold" enable-background="new 0 0 32 32" height="512" viewBox="0 0 32 32" width="512" xmlns="http://www.w3.org/2000/svg"><path d="m26 32h-20c-3.314 0-6-2.686-6-6v-20c0-3.314 2.686-6 6-6h20c3.314 0 6 2.686 6 6v20c0 3.314-2.686 6-6 6z" fill="#ffe6e2"/><path d="m23.681 14.933-1.681-1.569v-4.03c0-.368-.299-.667-.667-.667h-2c-.368 0-.667.299-.667.667v.912l-2.212-2.066c-.257-.239-.654-.239-.91 0l-7.243 6.769c-.194.194-.301.449-.301.718 0 .551.449 1 1 1h1v5.667c0 .918.748 1.666 1.667 1.666h8.667c.918 0 1.666-.748 1.666-1.667v-5.667h1c.551 0 1-.449 1-1 0-.268-.107-.523-.319-.733zm-3.926 5.153-1.001 1.001c-.372.369-.955.308-1.247-.08l-1.996-2.49c-.267.09-.547.15-.844.15-1.471 0-2.667-1.197-2.667-2.667 0-.517.334-.7.643-.611l1.259.359.513-.513-.359-1.259c-.088-.308.087-.643.611-.643 1.47 0 2.667 1.196 2.667 2.667 0 .297-.06.577-.15.844l2.503 2.006c.367.276.44.862.068 1.236z" fill="#fc573b"/></svg>