<svg id="bold" enable-background="new 0 0 32 32" height="512" viewBox="0 0 32 32" width="512" xmlns="http://www.w3.org/2000/svg"><path d="m26 32h-20c-3.314 0-6-2.686-6-6v-20c0-3.314 2.686-6 6-6h20c3.314 0 6 2.686 6 6v20c0 3.314-2.686 6-6 6z" fill="#e3f8fa"/><path d="m20.489 17c-.236.236-.235.621.002.858l.215.215c.04.04.04.104 0 .143s-.103.039-.143 0l-.502-.502c-.238-.238-.622-.239-.858-.002s-.235.621.002.858l.502.502c.04.04.04.104 0 .143s-.103.039-.143 0l-.789-.789c-.238-.238-.622-.239-.858-.002s-.235.621.002.858l.789.789c.04.04.04.104 0 .143s-.103.039-.143 0l-2.798-2.798c-.238-.238-.622-.239-.858-.002s-.235.621.002.858l3.367 3.367c-.441-.069-1.184-.098-1.64.358-.428.428-.417.724-.284.858.362.362.641-.21 2.29.578s2.709.724 3.434.01l.999-.999c.005-.005-.005.005 0 0 1.015-1.015 1.306-2.403.282-3.428-.002-.002-.003-.003-.005-.005l-2.009-2.009c-.235-.238-.62-.239-.856-.002z" fill="#8ce1eb"/><path d="m19.333 11.972v-2.639c0-.368-.299-.667-.667-.667s-.666.299-.666.667v1.335l-2.534-2.478c-.259-.253-.673-.253-.932 0l-6.234 6.096c-.193.189-.3.443-.3.714 0 .551.449 1 1 1h1v3.667c0 .919.748 1.667 1.667 1.667h2.333c.368 0 .667-.299.667-.667s-.299-.667-.667-.667h-2.333c-.184 0-.333-.149-.333-.333v-4.333c0-.368-.299-.667-.667-.667h-.849l5.182-5.068 5.767 5.639c.264.258.686.253.943-.01s.253-.685-.01-.943z" fill="#26c6da"/></svg>