<svg id="bold" enable-background="new 0 0 32 32" height="512" viewBox="0 0 32 32" width="512" xmlns="http://www.w3.org/2000/svg"><path d="m26 32h-20c-3.314 0-6-2.686-6-6v-20c0-3.314 2.686-6 6-6h20c3.314 0 6 2.686 6 6v20c0 3.314-2.686 6-6 6z" fill="#fff9dd"/><path d="m21 24c-.138 0-.27-.057-.365-.158l-2.5-2.667c-.137-.145-.173-.357-.094-.54s.26-.301.459-.301h.833v-2h-.833c-.199 0-.38-.118-.459-.301s-.042-.395.094-.54l2.5-2.667c.189-.202.54-.202.729 0l2.5 2.667c.137.145.173.357.094.54s-.26.301-.459.301h-.833v2h.834c.199 0 .38.118.459.301s.042.395-.094.54l-2.5 2.667c-.095.101-.227.158-.365.158z" fill="#ffe777"/><path d="m19.333 11.971v-2.638c0-.368-.298-.667-.667-.667-.368.001-.666.299-.666.667v1.334l-2.534-2.477c-.259-.254-.673-.254-.932 0l-6.238 6.098c-.189.188-.296.448-.296.712 0 .551.449 1 1 1h1v3.667c0 .919.747 1.667 1.667 1.667h4.333c.368 0 .667-.298.667-.667s-.299-.667-.667-.667h-4.333c-.184 0-.333-.15-.333-.333v-4.333c0-.368-.298-.667-.667-.667h-.851l5.184-5.068 4.034 3.944c.264.258.686.253.943-.01.258-.263.253-.686-.01-.943z" fill="#ffd200"/></svg>