<svg id="bold" enable-background="new 0 0 32 32" height="512" viewBox="0 0 32 32" width="512" xmlns="http://www.w3.org/2000/svg"><path d="m26 32h-20c-3.314 0-6-2.686-6-6v-20c0-3.314 2.686-6 6-6h20c3.314 0 6 2.686 6 6v20c0 3.314-2.686 6-6 6z" fill="#f5e6fe"/><path d="m21.167 24h-1.667c-.46 0-.833-.374-.833-.833v-2.833h-1.5c-.438 0-.665-.525-.363-.844l3.167-3.333c.189-.199.536-.199.725 0l3.167 3.333c.302.319.075.844-.363.844h-1.5v2.833c0 .459-.373.833-.833.833z" fill="#d9a4fc"/><path d="m19.334 11.968v-2.635c0-.368-.299-.667-.667-.667s-.667.299-.667.667v1.332l-2.534-2.475c-.259-.254-.673-.254-.932 0l-6.241 6.101c-.186.188-.293.447-.293.709 0 .551.449 1 1 1h1v3.667c0 .919.748 1.667 1.667 1.667h3c.368 0 .667-.298.667-.667s-.299-.667-.667-.667h-3c-.184 0-.333-.15-.333-.333v-4.333c0-.368-.299-.667-.667-.667h-.851l5.184-5.068 5.034 4.917c.264.258.686.253.943-.01.257-.264.252-.686-.011-.943z" fill="#be63f9"/></svg>