<svg id="bold" enable-background="new 0 0 32 32" height="512" viewBox="0 0 32 32" width="512" xmlns="http://www.w3.org/2000/svg"><path d="m26 32h-20c-3.314 0-6-2.686-6-6v-20c0-3.314 2.686-6 6-6h20c3.314 0 6 2.686 6 6v20c0 3.314-2.686 6-6 6z" fill="#ffe6e2"/><path d="m21.333 20.667c-.735 0-1.333-.598-1.333-1.333s.598-1.334 1.333-1.334 1.333.598 1.333 1.333-.597 1.334-1.333 1.334z" fill="#fd907e"/><path d="m23.5 24h-4.333c-.276 0-.5-.224-.5-.5v-.333c0-1.011.822-1.833 1.833-1.833h1.667c1.011 0 1.833.822 1.833 1.833v.333c0 .276-.224.5-.5.5z" fill="#fd907e"/><path d="m19.333 11.972v-2.639c0-.368-.299-.667-.667-.667s-.666.299-.666.667v1.335l-2.534-2.478c-.259-.253-.673-.253-.932 0l-6.234 6.096c-.193.189-.3.443-.3.714 0 .551.449 1 1 1h1v3.667c0 .919.748 1.667 1.667 1.667h5.667c.368 0 .667-.299.667-.667s-.299-.667-.668-.667h-5.667c-.184 0-.333-.149-.333-.333v-4.333c0-.368-.299-.667-.667-.667h-.848l5.182-5.068 5.182 5.068h-.849c-.368 0-.667.299-.667.667v.666c0 .368.299.667.667.667s.667-.299.667-.667h1c.551 0 1-.449 1-1 0-.271-.107-.525-.301-.715z" fill="#fc573b"/></svg>