<svg id="bold" enable-background="new 0 0 32 32" height="512" viewBox="0 0 32 32" width="512" xmlns="http://www.w3.org/2000/svg"><path d="m26 32h-20c-3.314 0-6-2.686-6-6v-20c0-3.314 2.686-6 6-6h20c3.314 0 6 2.686 6 6v20c0 3.314-2.686 6-6 6z" fill="#fff9dd"/><path d="m22.5 15.333h-3c-.827 0-1.5.673-1.5 1.5v4.167c0 1.654 1.346 3 3 3s3-1.346 3-3v-4.167c0-.827-.673-1.5-1.5-1.5zm-.833 7.334h-1.333c-.368 0-.667-.298-.667-.667s.299-.667.667-.667h1.333c.368 0 .667.298.667.667s-.299.667-.667.667zm.333-3.667h-.333v.333c0 .369-.299.667-.667.667s-.667-.298-.667-.667v-.333h-.333c-.368 0-.667-.298-.667-.667s.299-.667.667-.667h.333v-.333c0-.368.299-.667.667-.667s.667.298.667.667v.333h.333c.368 0 .667.298.667.667s-.299.667-.667.667z" fill="#ffe777"/><path d="m20.3 12.917-.966-.945v-2.639c0-.368-.299-.667-.667-.667s-.667.299-.667.667v1.335l-2.534-2.478c-.259-.254-.673-.254-.932 0l-6.241 6.101c-.186.188-.293.447-.293.709 0 .551.449 1 1 1h1v3.667c0 .919.748 1.667 1.667 1.667h4.333c.368 0 .667-.298.667-.667s-.299-.667-.667-.667h-2v-.667h2c.368 0 .667-.298.667-.667 0-.368-.299-.666-.667-.666h-2v-1.333h2c.368 0 .667-.298.667-.667 0-.368-.299-.667-.667-.667h-2c-.735 0-1.333.598-1.333 1.333v3.334h-1c-.184 0-.333-.15-.333-.333v-4.333c0-.368-.299-.667-.667-.667h-.852l5.185-5.068 4.367 4.271c.264.258.686.253.943-.01.257-.264.253-.686-.01-.943z" fill="#ffd200"/></svg>