<svg id="bold" enable-background="new 0 0 32 32" height="512" viewBox="0 0 32 32" width="512" xmlns="http://www.w3.org/2000/svg"><path d="m26 32h-20c-3.314 0-6-2.686-6-6v-20c0-3.314 2.686-6 6-6h20c3.314 0 6 2.686 6 6v20c0 3.314-2.686 6-6 6z" fill="#fff9dd"/><path d="m23.829 22.27-3.52-5.719c-.2-.34-.574-.551-.976-.551s-.775.211-.971.543l-3.514 5.71c-.119.176-.182.387-.182.61 0 .627.512 1.136 1.141 1.136h7.051c.63.001 1.142-.509 1.142-1.135 0-.223-.062-.434-.171-.594zm-4.496.73c-.368 0-.667-.298-.667-.667 0-.368.298-.667.667-.667.368 0 .667.298.667.667 0 .368-.298.667-.667.667zm.667-2.667c0 .368-.298.667-.667.667-.368 0-.667-.299-.667-.667v-2c0-.368.298-.667.667-.667.368 0 .667.299.667.667z" fill="#ffe777"/><path d="m21.699 14.285-2.366-2.313v-2.639c0-.368-.298-.667-.667-.667-.368.001-.666.299-.666.667v1.335l-2.534-2.478c-.259-.254-.673-.254-.932 0l-6.233 6.095c-.192.187-.301.448-.301.715 0 .551.449 1 1 1h1v3.667c0 .919.747 1.667 1.667 1.667h1.667c.368 0 .667-.298.667-.667s-.299-.667-.668-.667h-1.667c-.184 0-.333-.15-.333-.333v-4.333c0-.368-.298-.667-.667-.667h-.848l5.182-5.068 5.767 5.639c.264.258.687.253.943-.01.257-.263.252-.686-.011-.943z" fill="#ffd200"/></svg>