<svg id="bold" enable-background="new 0 0 32 32" height="512" viewBox="0 0 32 32" width="512" xmlns="http://www.w3.org/2000/svg"><path d="m26 32h-20c-3.314 0-6-2.686-6-6v-20c0-3.314 2.686-6 6-6h20c3.314 0 6 2.686 6 6v20c0 3.314-2.686 6-6 6z" fill="#e3f8fa"/><path d="m19.667 15.333c-2.389 0-4.333 1.944-4.333 4.333s1.943 4.334 4.333 4.334 4.333-1.944 4.333-4.333-1.944-4.334-4.333-4.334zm2.869 2.667h-1.203v-1.203c.5.291.912.704 1.203 1.203zm.464 1.667c0 .228-.023.451-.067.667h-1.599v-1.334h1.599c.044.216.067.438.067.667zm-6.667 0c0-.228.023-.451.067-.667h1.6v1.333h-1.599c-.044-.215-.068-.438-.068-.666zm2.667-.667h1.333v1.333h-1.333zm1.333-2.599v1.599h-1.333v-1.599c.215-.044.438-.067.667-.067s.451.023.666.067zm-2.333.396v1.203h-1.203c.291-.499.704-.912 1.203-1.203zm-1.203 4.536h1.203v1.203c-.499-.291-.912-.703-1.203-1.203zm2.203 1.6v-1.599h1.333v1.599c-.215.044-.438.067-.666.067s-.451-.023-.667-.067zm2.333-.397v-1.203h1.203c-.291.5-.703.912-1.203 1.203z" fill="#8ce1eb"/><path d="m19.333 11.972v-2.639c0-.368-.298-.667-.667-.667-.368.001-.666.299-.666.667v1.335l-2.534-2.478c-.259-.253-.673-.253-.932 0l-6.236 6.096c-.189.188-.298.448-.298.714 0 .551.449 1 1 1h1v3.667c0 .919.747 1.667 1.667 1.667h1.667c.368 0 .667-.299.667-.667s-.299-.667-.668-.667h-1.667c-.184 0-.333-.149-.333-.333v-4.333c0-.368-.298-.667-.667-.667h-.85l5.184-5.068 4.367 4.271c.264.258.687.253.943-.01.258-.263.253-.685-.01-.943z" fill="#26c6da"/></svg>