<svg id="bold" enable-background="new 0 0 32 32" height="512" viewBox="0 0 32 32" width="512" xmlns="http://www.w3.org/2000/svg"><path d="m26 32h-20c-3.314 0-6-2.686-6-6v-20c0-3.314 2.686-6 6-6h20c3.314 0 6 2.686 6 6v20c0 3.314-2.686 6-6 6z" fill="#f5e6fe"/><path d="m23.681 14.933-1.681-1.569v-4.03c0-.368-.299-.667-.667-.667h-2c-.368 0-.667.299-.667.667v.912l-2.212-2.066c-.257-.239-.654-.239-.91 0l-7.243 6.769c-.194.194-.301.449-.301.718 0 .551.449 1 1 1h1v5.667c0 .918.748 1.666 1.667 1.666h8.667c.918 0 1.666-.748 1.666-1.667v-5.667h1c.551 0 1-.449 1-1 0-.268-.107-.523-.319-.733zm-7.681 6.4c-.368 0-.667-.299-.667-.667 0-.367.299-.666.667-.666s.667.299.667.667c0 .367-.299.666-.667.666zm2.382-2.351c-.193.199-.509.203-.707.01-.447-.434-1.027-.665-1.654-.659-.62.009-1.201.26-1.635.707-.19.196-.508.205-.707.01-.198-.192-.203-.509-.01-.707.62-.638 1.449-.997 2.337-1.011.915-.02 1.728.321 2.367.941.196.194.201.511.009.709zm1.458-1.897c-.202.188-.519.176-.706-.026-.85-.916-1.969-1.392-3.147-1.391-1.18.019-2.285.55-3.111 1.495-.183.209-.498.229-.706.047s-.229-.498-.047-.705c1.015-1.16 2.381-1.813 3.846-1.837 1.46-.017 2.851.584 3.897 1.711.189.201.176.518-.026.706z" fill="#be63f9"/></svg>