<?xml version="1.0" encoding="UTF-8" standalone="no"?>
<svg
   xmlns:dc="http://purl.org/dc/elements/1.1/"
   xmlns:cc="http://creativecommons.org/ns#"
   xmlns:rdf="http://www.w3.org/1999/02/22-rdf-syntax-ns#"
   xmlns:svg="http://www.w3.org/2000/svg"
   xmlns="http://www.w3.org/2000/svg"
   xmlns:sodipodi="http://sodipodi.sourceforge.net/DTD/sodipodi-0.dtd"
   xmlns:inkscape="http://www.inkscape.org/namespaces/inkscape"
   id="bold"
   enable-background="new 0 0 32 32"
   height="1024"
   viewBox="0 0 64 64"
   width="1024"
   version="1.1"
   sodipodi:docname="100-wireless internet.svg"
   inkscape:version="1.0.1 (3bc2e813f5, 2020-09-07)">
  <metadata
     id="metadata11">
    <rdf:RDF>
      <cc:Work
         rdf:about="">
        <dc:format>image/svg+xml</dc:format>
        <dc:type
           rdf:resource="http://purl.org/dc/dcmitype/StillImage" />
        <dc:title></dc:title>
      </cc:Work>
    </rdf:RDF>
  </metadata>
  <defs
     id="defs9" />
  <sodipodi:namedview
     pagecolor="#ffffff"
     bordercolor="#666666"
     borderopacity="1"
     objecttolerance="10"
     gridtolerance="10"
     guidetolerance="10"
     inkscape:pageopacity="0"
     inkscape:pageshadow="2"
     inkscape:window-width="5120"
     inkscape:window-height="1417"
     id="namedview7"
     showgrid="false"
     inkscape:zoom="0.69605825"
     inkscape:cx="433.13732"
     inkscape:cy="385.81386"
     inkscape:window-x="-8"
     inkscape:window-y="-8"
     inkscape:window-maximized="1"
     inkscape:current-layer="bold"
     inkscape:document-rotation="0" />
  <path
     d="M 52,63.999999 H 12 C 5.372,63.999999 0,58.627999 0,52 V 12 C 0,5.372 5.372,0 12,0 h 40 c 6.627999,0 11.999999,5.372 11.999999,12 v 40 c 0,6.627999 -5.372,11.999999 -11.999999,11.999999 z"
     fill="#f5e6fe"
     id="path2"
     style="fill:#d9e6fe;fill-opacity:1;stroke-width:2" />
  <path
     d="M 47.362,29.866 44,26.728 v -8.06 c 0,-0.736 -0.598,-1.334 -1.334,-1.334 h -4 c -0.736,0 -1.334,0.598 -1.334,1.334 v 1.824 L 32.908,16.36 c -0.514,-0.478 -1.308,-0.478 -1.82,0 L 16.602,29.898 C 16.214,30.286 16,30.796 16,31.334 c 0,1.102 0.898,2 2,2 h 2 V 44.668 C 20,46.504 21.496,48 23.334,48 H 40.668 C 42.504,48 44,46.504 44,44.666 V 33.332 h 2 c 1.102,0 2,-0.898 2,-2 0,-0.536 -0.214,-1.046 -0.638,-1.466 z M 32,42.666 c -0.736,0 -1.334,-0.598 -1.334,-1.334 C 30.666,40.598 31.264,40 32,40 c 0.736,0 1.334,0.598 1.334,1.334 0,0.734 -0.598,1.332 -1.334,1.332 z m 4.764,-4.702 c -0.386,0.398 -1.018,0.406 -1.414,0.02 -0.894,-0.868 -2.054,-1.33 -3.308,-1.318 -1.24,0.018 -2.402,0.52 -3.27,1.414 -0.38,0.392 -1.016,0.41 -1.414,0.02 -0.396,-0.384 -0.406,-1.018 -0.02,-1.414 1.24,-1.276 2.898,-1.994 4.674,-2.022 1.83,-0.04 3.456,0.642 4.734,1.882 0.392,0.388 0.402,1.022 0.018,1.418 z M 39.68,34.17 c -0.404,0.376 -1.038,0.352 -1.412,-0.052 -1.7,-1.832 -3.938,-2.784 -6.294,-2.782 -2.36,0.038 -4.57,1.1 -6.222,2.99 -0.366,0.418 -0.996,0.458 -1.412,0.094 -0.416,-0.364 -0.458,-0.996 -0.094,-1.41 2.03,-2.32 4.762,-3.626 7.692,-3.674 2.92,-0.034 5.702,1.168 7.794,3.422 0.378,0.402 0.352,1.036 -0.052,1.412 z"
     fill="#be63f9"
     id="path4"
     style="fill:#6b95f9;fill-opacity:1;stroke-width:2" />
</svg>
