<?xml version="1.0" encoding="UTF-8" standalone="no"?>
<svg
   xmlns:dc="http://purl.org/dc/elements/1.1/"
   xmlns:cc="http://creativecommons.org/ns#"
   xmlns:rdf="http://www.w3.org/1999/02/22-rdf-syntax-ns#"
   xmlns:svg="http://www.w3.org/2000/svg"
   xmlns="http://www.w3.org/2000/svg"
   xmlns:sodipodi="http://sodipodi.sourceforge.net/DTD/sodipodi-0.dtd"
   xmlns:inkscape="http://www.inkscape.org/namespaces/inkscape"
   height="1024"
   viewBox="0 0 1024 1024"
   width="1024"
   version="1.1"
   id="svg48"
   sodipodi:docname="logo.svg"
   inkscape:version="1.0.1 (3bc2e813f5, 2020-09-07)"
   inkscape:export-filename="C:\Projekte\ShellyHomeV2\ShellyHome\src\assets\images\logo.png"
   inkscape:export-xdpi="96"
   inkscape:export-ydpi="96">
  <metadata
     id="metadata54">
    <rdf:RDF>
      <cc:Work
         rdf:about="">
        <dc:format>image/svg+xml</dc:format>
        <dc:type
           rdf:resource="http://purl.org/dc/dcmitype/StillImage" />
        <dc:title />
      </cc:Work>
    </rdf:RDF>
  </metadata>
  <defs
     id="defs52" />
  <sodipodi:namedview
     pagecolor="#ffffff"
     bordercolor="#666666"
     borderopacity="1"
     objecttolerance="10"
     gridtolerance="10"
     guidetolerance="10"
     inkscape:pageopacity="0"
     inkscape:pageshadow="2"
     inkscape:window-width="2558"
     inkscape:window-height="1401"
     id="namedview50"
     showgrid="false"
     inkscape:zoom="0.4921875"
     inkscape:cx="-654.96647"
     inkscape:cy="503.30095"
     inkscape:window-x="0"
     inkscape:window-y="0"
     inkscape:window-maximized="0"
     inkscape:current-layer="svg48"
     inkscape:document-rotation="0" />
  <g
     id="g46"
     transform="matrix(1.3473201,0,0,1.3473201,167.08605,22.201093)">
    <g
       id="g26">
      <path
         d="M 89,256 H 425 V 456 H 89 Z"
         fill="#e0e0e2"
         id="path2" />
      <path
         d="m 129,296 h 96 v 160 h -96 z"
         fill="#a0815c"
         id="path4" />
      <path
         d="M 375.46,183.68 465,256 H 49 l 208,-168 48.39,39.08"
         fill="#d80027"
         id="path6" />
      <path
         d="m 281,296 h 96 v 80 h -96 z"
         fill="#3d9ae2"
         id="path8" />
      <path
         d="m 265,376 h 128 v 24 H 265 Z"
         fill="#c6c5ca"
         id="path10" />
      <g
         fill="#ffda44"
         id="g18">
        <circle
           cx="369"
           cy="144"
           r="8"
           id="circle12" />
        <path
           d="m 353,126.111 a 24,24 0 0 1 32,0"
           id="path14" />
        <path
           d="m 337,108.222 a 48,48 0 0 1 64,0"
           id="path16" />
      </g>
      <circle
         cx="369"
         cy="120"
         fill="#91cc04"
         r="64"
         id="circle20" />
      <path
         d="m 233,152 h 48 v 48 h -48 z"
         fill="#3d9ae2"
         id="path22" />
      <path
         d="m 217,200 h 80 v 24 h -80 z"
         fill="#c6c5ca"
         id="path24" />
    </g>
    <g
       id="g44">
      <path
         d="M 464,448 H 432 V 264 h 32 a 8,8 0 0 0 5.03,-14.22 l -76.76,-62 A 72,72 0 1 0 296.64,110.54 L 261.03,81.78 a 8.006,8.006 0 0 0 -10.06,0 l -208,168 A 8,8 0 0 0 48,264 H 80 V 448 H 16 a 8,8 0 0 0 0,16 h 448 a 8,8 0 0 0 0,-16 z M 368,64 a 56,56 0 1 1 -56,56 56.062,56.062 0 0 1 56,-56 z M 70.64,248 256,98.28 296.9,131.31 A 72.1,72.1 0 0 0 368,192 c 1.31,0 2.6,-0.04 3.89,-0.11 L 441.36,248 Z M 216,448 H 136 V 304 h 80 z m 200,0 H 232 V 296 a 8,8 0 0 0 -8,-8 h -96 a 8,8 0 0 0 -8,8 V 448 H 96 V 264 h 320 z"
         id="path28" />
      <path
         d="m 200,344 a 8,8 0 0 0 -8,8 v 16 a 8,8 0 0 0 16,0 v -16 a 8,8 0 0 0 -8,-8 z"
         id="path30" />
      <path
         d="m 392,368 h -8 v -72 a 8,8 0 0 0 -8,-8 h -96 a 8,8 0 0 0 -8,8 v 72 h -8 a 8,8 0 0 0 -8,8 v 24 a 8,8 0 0 0 8,8 h 128 a 8,8 0 0 0 8,-8 v -24 a 8,8 0 0 0 -8,-8 z m -56,-64 h 32 v 64 h -32 z m -48,0 h 32 v 64 h -32 z m 96,88 H 272 v -8 h 112 z"
         id="path32" />
      <circle
         cx="368"
         cy="144"
         r="8"
         id="circle34" />
      <path
         d="m 389.335,120.15 a 32,32 0 0 0 -42.67,0 8,8 0 1 0 10.67,11.922 16,16 0 0 1 21.33,0 8,8 0 1 0 10.67,-11.922 z"
         id="path36" />
      <path
         d="m 341.335,114.183 a 40,40 0 0 1 53.33,0 8,8 0 1 0 10.67,-11.922 56,56 0 0 0 -74.67,0 8,8 0 1 0 10.67,11.922 z"
         id="path38" />
      <path
         d="m 296,192 h -8 v -40 a 8,8 0 0 0 -8,-8 h -48 a 8,8 0 0 0 -8,8 v 40 h -8 a 8,8 0 0 0 -8,8 v 24 a 8,8 0 0 0 8,8 h 80 a 8,8 0 0 0 8,-8 v -24 a 8,8 0 0 0 -8,-8 z m -32,-32 h 8 v 32 h -8 z m -24,0 h 8 v 32 h -8 z m 48,56 h -64 v -8 h 64 z"
         id="path40" />
      <path
         d="m 496,448 h -8 a 8,8 0 0 0 0,16 h 8 a 8,8 0 0 0 0,-16 z"
         id="path42" />
    </g>
  </g>
  <text
     xml:space="preserve"
     style="font-style:normal;font-weight:normal;font-size:148.406px;line-height:1.25;font-family:sans-serif;text-align:center;text-anchor:middle;fill:#000000;fill-opacity:1;stroke:none;stroke-width:1.73914"
     x="511.78259"
     y="853.31781"
     id="text59"><tspan
       sodipodi:role="line"
       id="tspan57"
       x="511.78259"
       y="853.31781"
       style="font-style:normal;font-variant:normal;font-weight:bold;font-stretch:condensed;font-size:148.406px;font-family:'Agency FB';-inkscape-font-specification:'Agency FB, Bold Condensed';font-variant-ligatures:normal;font-variant-caps:normal;font-variant-numeric:normal;font-variant-east-asian:normal;stroke-width:1.73914">Shelly Home</tspan></text>
</svg>
