<svg height="512" viewBox="0 0 512 512" width="512" xmlns="http://www.w3.org/2000/svg"><g><g><path d="m497 40v24h-480v-24a24.006 24.006 0 0 1 24-24h432a24.006 24.006 0 0 1 24 24z" fill="#57565c"/><path d="m497 64v344a24.006 24.006 0 0 1 -24 24h-432a24.006 24.006 0 0 1 -24-24v-344z" fill="#83d8f4"/><circle cx="97" cy="144" fill="#91cc04" r="48"/><g fill="#ffda44"><path d="m49 224h48v24h-48z"/><path d="m121 224h64v24h-64z"/><path d="m377 96h32v24h-32z"/><path d="m433 96h32v24h-32z"/></g><path d="m257 368h176v128h-176z" fill="#e0e0e2"/><path d="m473 368h-256l128-128z" fill="#d80027"/><path d="m313 408h64v88h-64z" fill="#a0815c"/></g><g><path d="m472 8h-432a32.036 32.036 0 0 0 -32 32v368a32.036 32.036 0 0 0 32 32h208v56a8 8 0 0 0 8 8h176a8 8 0 0 0 8-8v-56h32a32.042 32.042 0 0 0 32-32v-368a32.042 32.042 0 0 0 -32-32zm-104 480h-48v-72h48zm56 0h-40v-80a8 8 0 0 0 -8-8h-64a8 8 0 0 0 -8 8v80h-40v-112h160zm-188.69-128 108.69-108.69 108.69 108.69zm252.69 48a16.021 16.021 0 0 1 -16 16h-32v-48h32a8 8 0 0 0 5.66-13.66l-128-128a8.015 8.015 0 0 0 -11.32 0l-128 128a8 8 0 0 0 5.66 13.66h32v48h-208a16.021 16.021 0 0 1 -16-16v-336h464zm0-352h-464v-16a16.021 16.021 0 0 1 16-16h432a16.021 16.021 0 0 1 16 16z"/><path d="m48 48h48a8 8 0 0 0 0-16h-48a8 8 0 0 0 0 16z"/><path d="m120 48h8a8 8 0 0 0 0-16h-8a8 8 0 0 0 0 16z"/><path d="m96 200a56 56 0 1 0 -56-56 56.063 56.063 0 0 0 56 56zm0-96a40 40 0 1 1 -40 40 40.045 40.045 0 0 1 40-40z"/><path d="m96 152h16a8 8 0 0 0 0-16h-8v-16a8 8 0 0 0 -16 0v24a8 8 0 0 0 8 8z"/><path d="m344 120h-168a8 8 0 0 0 0 16h160v72a8 8 0 0 0 16 0v-80a8 8 0 0 0 -8-8z"/><path d="m48 256h48a8 8 0 0 0 8-8v-24a8 8 0 0 0 -8-8h-48a8 8 0 0 0 -8 8v24a8 8 0 0 0 8 8zm8-24h32v8h-32z"/><path d="m184 216h-64a8 8 0 0 0 -8 8v24a8 8 0 0 0 8 8h64a8 8 0 0 0 8-8v-24a8 8 0 0 0 -8-8zm-8 24h-48v-8h48z"/><path d="m184 264h-136a8 8 0 0 0 0 16h136a8 8 0 0 0 0-16z"/><path d="m184 288h-136a8 8 0 0 0 0 16h136a8 8 0 0 0 0-16z"/><path d="m376 128h32a8 8 0 0 0 8-8v-24a8 8 0 0 0 -8-8h-32a8 8 0 0 0 -8 8v24a8 8 0 0 0 8 8zm8-24h16v8h-16z"/><path d="m464 88h-32a8 8 0 0 0 -8 8v24a8 8 0 0 0 8 8h32a8 8 0 0 0 8-8v-24a8 8 0 0 0 -8-8zm-8 24h-16v-8h16z"/><path d="m464 136h-88a8 8 0 0 0 0 16h88a8 8 0 0 0 0-16z"/><path d="m464 160h-88a8 8 0 0 0 0 16h88a8 8 0 0 0 0-16z"/><path d="m48 328h104a8 8 0 0 0 0-16h-104a8 8 0 0 0 0 16z"/><path d="m184 336h-136a8 8 0 0 0 0 16h136a8 8 0 0 0 0-16z"/><path d="m184 312h-8a8 8 0 0 0 0 16h8a8 8 0 0 0 0-16z"/><path d="m352 440a8 8 0 0 0 -8 8v16a8 8 0 0 0 16 0v-16a8 8 0 0 0 -8-8z"/></g></g></svg>