<svg height="512" viewBox="0 0 512 512" width="512" xmlns="http://www.w3.org/2000/svg"><g><g><path d="m497 96v248a24.006 24.006 0 0 1 -24 24h-432a24.006 24.006 0 0 1 -24-24v-248z" fill="#83d8f4"/><path d="m497 72v24h-480v-24a24.006 24.006 0 0 1 24-24h432a24.006 24.006 0 0 1 24 24z" fill="#57565c"/><circle cx="385" cy="80" fill="#91cc04" r="64"/><path d="m384 496h-48l-25-72h-111l-24 72h-48l-16-16v-184l16-16h256l16 16v184z" fill="#57565c"/><path d="m288 312h-64l-8-32h80z" fill="#ffda44"/></g><g><path d="m472 40h-28.17a71.932 71.932 0 0 0 -119.66 0h-284.17a32.036 32.036 0 0 0 -32 32v272a32.036 32.036 0 0 0 32 32h64v104a8.008 8.008 0 0 0 2.34 5.66l16 16a8.008 8.008 0 0 0 5.66 2.34h48a8 8 0 0 0 7.59-5.47l22.18-66.53h99.54l23.13 66.62a8 8 0 0 0 7.56 5.38h48a8.008 8.008 0 0 0 5.66-2.34l16-16a8.008 8.008 0 0 0 2.34-5.66v-104h64a32.036 32.036 0 0 0 32-32v-272a32.036 32.036 0 0 0 -32-32zm-88-16a56 56 0 1 1 -56 56 56.062 56.062 0 0 1 56-56zm-360 48a16.021 16.021 0 0 1 16-16h276.13a71.518 71.518 0 0 0 -4.13 24 70.439 70.439 0 0 0 .46 8h-288.46zm368 360h-32a8 8 0 0 0 0 16h32v8h-16a8 8 0 0 0 0 16h16v4.69l-11.31 11.31h-39l-23.13-66.62a8 8 0 0 0 -7.56-5.38h-111a8 8 0 0 0 -7.59 5.47l-22.18 66.53h-38.92l-11.31-11.31v-4.69h16a8 8 0 0 0 0-16h-16v-8h32a8 8 0 0 0 0-16h-32v-132.69l11.31-11.31h78.44l6.49 25.94a8 8 0 0 0 7.76 6.06h64a8 8 0 0 0 7.76-6.06l6.49-25.94h78.44l11.31 11.31zm-165.75-144h59.5l-4 16h-51.5zm261.75 56a16.021 16.021 0 0 1 -16 16h-64v-64a8.008 8.008 0 0 0 -2.34-5.66l-16-16a8.008 8.008 0 0 0 -5.66-2.34h-256a8.008 8.008 0 0 0 -5.66 2.34l-16 16a8.008 8.008 0 0 0 -2.34 5.66v64h-64a16.021 16.021 0 0 1 -16-16v-240h292.13a71.983 71.983 0 0 0 135.74 0h36.13zm0-256h-32.46a70.439 70.439 0 0 0 .46-8 71.518 71.518 0 0 0 -4.13-24h20.13a16.021 16.021 0 0 1 16 16z"/><path d="m48 80h56a8 8 0 0 0 0-16h-56a8 8 0 0 0 0 16z"/><path d="m136 80h8a8 8 0 0 0 0-16h-8a8 8 0 0 0 0 16z"/><path d="m384 160a8 8 0 0 0 -8 8v28.687l-53.657 53.656a8 8 0 0 0 11.314 11.314l56-56a8 8 0 0 0 2.343-5.657v-32a8 8 0 0 0 -8-8z"/><path d="m152 136h-96a8 8 0 0 0 0 16h96a8 8 0 0 0 0-16z"/><path d="m152 160h-96a8 8 0 0 0 0 16h96a8 8 0 0 0 0-16z"/><path d="m80 184h-24a8 8 0 0 0 0 16h24a8 8 0 0 0 0-16z"/><path d="m120 184h-16a8 8 0 0 0 0 16h16a8 8 0 0 0 0-16z"/><circle cx="384" cy="104" r="8"/><path d="m405.336 80.15a32 32 0 0 0 -42.672 0 8 8 0 0 0 10.671 11.922 16 16 0 0 1 21.33 0 8 8 0 0 0 10.671-11.922z"/><path d="m346.039 73.558a8 8 0 0 0 11.3.626 40 40 0 0 1 53.33 0 8 8 0 0 0 10.67-11.922 56 56 0 0 0 -74.67 0 8 8 0 0 0 -.63 11.296z"/><circle cx="320" cy="368" r="8"/><circle cx="368" cy="368" r="8"/><circle cx="344" cy="344" r="8"/><circle cx="344" cy="392" r="8"/><path d="m192 360h-16v-16a8 8 0 0 0 -16 0v16h-16a8 8 0 0 0 0 16h16v16a8 8 0 0 0 16 0v-16h16a8 8 0 0 0 0-16z"/><path d="m240 384h-8a8 8 0 0 0 0 16h8a8 8 0 0 0 0-16z"/><path d="m280 384h-8a8 8 0 0 0 0 16h8a8 8 0 0 0 0-16z"/></g></g></svg>