<svg height="512" viewBox="0 0 512 512" width="512" xmlns="http://www.w3.org/2000/svg"><g><g><circle cx="401" cy="96" fill="#91cc04" r="64"/><path d="m113.13 456h-40.13a24.006 24.006 0 0 1 -24-24v-392a24.006 24.006 0 0 1 24-24h192a24.006 24.006 0 0 1 24 24v416" fill="#3d9ae2"/><path d="m201 40h-64l-8-24h80z" fill="#57565c"/><path d="m89 96h88v32h-88z" fill="#ffda44"/><path d="m384 496h-48l-25-72h-111l-24 72h-48l-16-16v-184l16-16h256l16 16v184z" fill="#57565c"/><path d="m288 312h-64l-8-32h80z" fill="#ffda44"/></g><g><path d="m400 24a72 72 0 1 0 72 72 72.081 72.081 0 0 0 -72-72zm0 128a56 56 0 1 1 56-56 56.063 56.063 0 0 1 -56 56z"/><path d="m400 176a8 8 0 0 0 -8 8v12.687l-53.657 53.656a8 8 0 0 0 11.314 11.314l56-56a8 8 0 0 0 2.343-5.657v-16a8 8 0 0 0 -8-8z"/><path d="m88 136h88a8 8 0 0 0 8-8v-32a8 8 0 0 0 -8-8h-88a8 8 0 0 0 -8 8v32a8 8 0 0 0 8 8zm8-32h72v16h-72z"/><path d="m88 160h88a8 8 0 0 0 0-16h-88a8 8 0 0 0 0 16z"/><path d="m88 184h56a8 8 0 0 0 0-16h-56a8 8 0 0 0 0 16z"/><path d="m184 200a8 8 0 0 0 -8-8h-88a8 8 0 0 0 0 16h88a8 8 0 0 0 8-8z"/><path d="m176 168h-8a8 8 0 0 0 0 16h8a8 8 0 0 0 0-16z"/><circle cx="400" cy="120" r="8"/><path d="m421.336 96.15a32 32 0 0 0 -42.672 0 8 8 0 0 0 10.671 11.922 16 16 0 0 1 21.33 0 8 8 0 0 0 10.671-11.922z"/><path d="m437.335 78.262a56 56 0 0 0 -74.67 0 8 8 0 1 0 10.67 11.922 40 40 0 0 1 53.33 0 8 8 0 0 0 10.67-11.922z"/><circle cx="320" cy="368" r="8"/><circle cx="368" cy="368" r="8"/><circle cx="344" cy="344" r="8"/><circle cx="344" cy="392" r="8"/><path d="m240 384h-8a8 8 0 0 0 0 16h8a8 8 0 0 0 0-16z"/><path d="m280 384h-8a8 8 0 0 0 0 16h8a8 8 0 0 0 0-16z"/><path d="m192 360h-16v-16a8 8 0 0 0 -16 0v16h-16a8 8 0 0 0 0 16h16v16a8 8 0 0 0 16 0v-16h16a8 8 0 0 0 0-16z"/><path d="m405.66 290.34-16-16a8.008 8.008 0 0 0 -5.66-2.34h-88v-112h32a8 8 0 0 0 0-16h-32v-104a32.036 32.036 0 0 0 -32-32h-192a32.036 32.036 0 0 0 -32 32v392a32.036 32.036 0 0 0 32 32h32v16a8.008 8.008 0 0 0 2.34 5.66l16 16a8.008 8.008 0 0 0 5.66 2.34h48a8 8 0 0 0 7.59-5.47l8.85-26.54c.05 0 .11.01.17.01h71.39a32.036 32.036 0 0 0 32-32v-8h9.31l23.13 66.62a8 8 0 0 0 7.56 5.38h48a8.008 8.008 0 0 0 5.66-2.34l16-16a8.008 8.008 0 0 0 2.34-5.66v-184a8.008 8.008 0 0 0 -2.34-5.66zm-208.76-266.34-2.67 8h-52.46l-2.67-8zm-92.9 272v152h-32a16.021 16.021 0 0 1 -16-16v-392a16.021 16.021 0 0 1 16-16h50.23l6.18 18.53a8 8 0 0 0 7.59 5.47h64a8 8 0 0 0 7.59-5.47l6.18-18.53h50.23a16.021 16.021 0 0 1 16 16v104h-72a8 8 0 0 0 0 16h72v112h-152a8.008 8.008 0 0 0 -5.66 2.34l-16 16a8.008 8.008 0 0 0 -2.34 5.66zm181.75-8-4 16h-51.5l-4-16zm-5.75 152a16.021 16.021 0 0 1 -16 16h-66.23l8-24h74.23zm112-8h-32a8 8 0 0 0 0 16h32v8h-16a8 8 0 0 0 0 16h16v4.69l-11.31 11.31h-39l-23.13-66.62a8 8 0 0 0 -7.56-5.38h-111a8 8 0 0 0 -7.59 5.47l-22.18 66.53h-38.92l-11.31-11.31v-4.69h16a8 8 0 0 0 0-16h-15.87a8.1 8.1 0 0 0 -.13-1.4v-6.6h32a8 8 0 0 0 0-16h-32v-132.69l11.31-11.31h78.44l6.49 25.94a8 8 0 0 0 7.76 6.06h64a8 8 0 0 0 7.76-6.06l6.49-25.94h78.44l11.31 11.31z"/></g></g></svg>