<svg height="512" viewBox="0 0 512 512" width="512" xmlns="http://www.w3.org/2000/svg"><g><g><path d="m496 216v88h-480v-88l32-32h416z" fill="#ffda44"/><path d="m496 304v104l-32 32h-176l-17-8h-30l-16 8h-177l-32-32v-104z" fill="#2d2d30"/><path d="m287.44 216h88.56l24 24v144l-24 24h-240l-24-24v-144l24-24h88.56z" fill="#57565c"/><path d="m144 240h224v144h-224z" fill="#3d9ae2"/><circle cx="256" cy="128" fill="#91cc04" r="64"/><g fill="#57565c"><circle cx="64" cy="368" r="16"/><circle cx="448" cy="256" r="16"/></g></g><path d="m501.66 210.34-32-32a8.008 8.008 0 0 0 -5.66-2.34h-154.39a72 72 0 1 0 -107.22 0h-154.39a8.008 8.008 0 0 0 -5.66 2.34l-32 32a8.008 8.008 0 0 0 -2.34 5.66v192a8.008 8.008 0 0 0 2.34 5.66l32 32a8.008 8.008 0 0 0 5.66 2.34h177a8.081 8.081 0 0 0 3.58-.84l14.31-7.16h26.32l15.38 7.24a8.043 8.043 0 0 0 3.41.76h176a8.008 8.008 0 0 0 5.66-2.34l32-32a8.008 8.008 0 0 0 2.34-5.66v-192a8.008 8.008 0 0 0 -2.34-5.66zm-301.66-82.34a56 56 0 1 1 56 56 56.062 56.062 0 0 1 -56-56zm288 276.69-27.31 27.31h-170.9l-15.38-7.24a8.043 8.043 0 0 0 -3.41-.76h-30a8.081 8.081 0 0 0 -3.58.84l-14.31 7.16h-171.8l-27.31-27.31v-92.69h80v72a8.008 8.008 0 0 0 2.34 5.66l24 24a8.008 8.008 0 0 0 5.66 2.34h240a8.008 8.008 0 0 0 5.66-2.34l24-24a8.008 8.008 0 0 0 2.34-5.66v-72h80zm-368-24v-137.38l19.31-19.31h233.38l19.31 19.31v137.38l-19.31 19.31h-233.38zm368-84.69h-80v-56a8.008 8.008 0 0 0 -2.34-5.66l-24-24a8.008 8.008 0 0 0 -5.66-2.34h-240a8.008 8.008 0 0 0 -5.66 2.34l-24 24a8.008 8.008 0 0 0 -2.34 5.66v56h-80v-76.69l27.31-27.31h171.77a71.733 71.733 0 0 0 65.84 0h171.77l27.31 27.31z"/><circle cx="448" cy="384" r="8"/><circle cx="448" cy="352" r="8"/><circle cx="432" cy="368" r="8"/><circle cx="464" cy="368" r="8"/><path d="m368 392a8 8 0 0 0 8-8v-144a8 8 0 0 0 -8-8h-224a8 8 0 0 0 -8 8v144a8 8 0 0 0 8 8zm-216-144h208v128h-208z"/><circle cx="256" cy="152" r="8"/><path d="m277.96 139.45a8 8 0 0 1 -11.29.62 16.021 16.021 0 0 0 -21.34 0 8 8 0 1 1 -10.66-11.92 31.987 31.987 0 0 1 42.66 0 7.994 7.994 0 0 1 .63 11.3z"/><path d="m293.96 121.56a8 8 0 0 1 -11.29.62 40.026 40.026 0 0 0 -53.34 0 8 8 0 1 1 -10.66-11.92 55.991 55.991 0 0 1 74.66 0 8 8 0 0 1 .63 11.3z"/><path d="m48 264h8v8a8 8 0 0 0 16 0v-8h8a8 8 0 0 0 0-16h-8v-8a8 8 0 0 0 -16 0v8h-8a8 8 0 0 0 0 16z"/><path d="m64 344a24 24 0 1 0 24 24 24.028 24.028 0 0 0 -24-24zm0 32a8 8 0 1 1 8-8 8.009 8.009 0 0 1 -8 8z"/><path d="m448 280a24 24 0 1 0 -24-24 24.028 24.028 0 0 0 24 24zm0-32a8 8 0 1 1 -8 8 8.009 8.009 0 0 1 8-8z"/></g></svg>