<?xml version="1.0"?>
<svg xmlns="http://www.w3.org/2000/svg" width="512" height="512" viewBox="0 0 512 512"><g><g><g><path d="M297,304H41a24,24,0,0,1-24-24V104A24,24,0,0,1,41,80H473a24,24,0,0,1,24,24V280a24,24,0,0,1-24,24H457" fill="#e0e0e2"/><rect x="73" y="240" width="224" height="32" fill="#57565c"/><rect x="49" y="112" width="112" height="32" fill="#ffda44"/></g><g><rect x="297" y="168" width="160" height="272" rx="16" ry="16" fill="#3d9ae2"/><polyline points="409 168 401 192 353 192 345 168 409 168" fill="#57565c"/></g><path d="M401,336a32,32,0,1,1-48-27.72V248a16,16,0,1,1,32,0v60.28A32,32,0,0,1,401,336Z" fill="#ff9811"/></g><g><path d="M472,72H40A32.036,32.036,0,0,0,8,104V280a32.036,32.036,0,0,0,32,32H288V424a24.032,24.032,0,0,0,24,24H440a24.032,24.032,0,0,0,24-24V312h8a32.042,32.042,0,0,0,32-32V104A32.042,32.042,0,0,0,472,72ZM288,264H264V248h24ZM448,424a8.011,8.011,0,0,1-8,8H312a8.011,8.011,0,0,1-8-8V184a8.011,8.011,0,0,1,8-8h26.23l6.18,18.53A8,8,0,0,0,352,200h48a8,8,0,0,0,7.59-5.47L413.77,176H440a8.011,8.011,0,0,1,8,8ZM355.1,176h41.8l-2.67,8H357.77ZM488,280a16.021,16.021,0,0,1-16,16h-8V184a24.032,24.032,0,0,0-24-24H312a24.032,24.032,0,0,0-24,24v48H72a8,8,0,0,0-8,8v32a8,8,0,0,0,8,8H288v16H40a16.021,16.021,0,0,1-16-16V104A16.021,16.021,0,0,1,40,88H472a16.021,16.021,0,0,1,16,16ZM248,248v16H200V248Zm-64,0v16H136V248Zm-64,0v16H80V248Z"/><path d="M160,104H48a8,8,0,0,0-8,8v32a8,8,0,0,0,8,8H160a8,8,0,0,0,8-8V112A8,8,0,0,0,160,104Zm-8,32H56V120h96Z"/><path d="M464,104H416a8,8,0,0,0,0,16h48a8,8,0,0,0,0-16Z"/><path d="M464,128H440a8,8,0,0,0,0,16h24a8,8,0,0,0,0-16Z"/><path d="M268,336a8,8,0,0,0-16,0c0,.608,0,.687-1.657,2.344C247.971,340.716,244,344.687,244,352s3.971,11.284,6.343,13.656C252,367.314,252,367.394,252,368s0,.686-1.656,2.342C247.971,372.716,244,376.687,244,384a8,8,0,0,0,16,0c0-.607,0-.686,1.656-2.342C264.029,379.286,268,375.315,268,368s-3.971-11.285-6.343-13.658C260,352.688,260,352.609,260,352s0-.688,1.657-2.345C264.029,347.284,268,343.313,268,336Z"/><path d="M208,336a8,8,0,0,0-16,0c0,.608,0,.687-1.657,2.344C187.971,340.716,184,344.687,184,352s3.971,11.284,6.343,13.656C192,367.314,192,367.394,192,368s0,.686-1.656,2.342C187.971,372.716,184,376.687,184,384a8,8,0,0,0,16,0c0-.607,0-.686,1.656-2.342C204.029,379.286,208,375.315,208,368s-3.971-11.285-6.343-13.658C200,352.688,200,352.609,200,352s0-.688,1.657-2.345C204.029,347.284,208,343.313,208,336Z"/><path d="M144,336a8,8,0,0,0-16,0c0,.608,0,.687-1.657,2.344C123.971,340.716,120,344.687,120,352s3.971,11.284,6.343,13.656C128,367.314,128,367.394,128,368s0,.686-1.656,2.342C123.971,372.716,120,376.687,120,384a8,8,0,0,0,16,0c0-.607,0-.686,1.656-2.342C140.029,379.286,144,375.315,144,368s-3.971-11.285-6.343-13.658C136,352.688,136,352.609,136,352s0-.688,1.657-2.345C140.029,347.284,144,343.313,144,336Z"/><path d="M392,304V248a24,24,0,0,0-48,0v56a40,40,0,1,0,48,0Zm-24,56a24,24,0,0,1-11.994-44.8A8,8,0,0,0,360,308.28V248a8,8,0,1,1,16,0v60.28a8,8,0,0,0,3.994,6.925A24,24,0,0,1,368,360Z"/><circle cx="368" cy="336" r="8"/><path d="M416,240h-8a8,8,0,0,0,0,16h8a8,8,0,0,0,0-16Z"/><path d="M416,264h-8a8,8,0,0,0,0,16h8a8,8,0,0,0,0-16Z"/><path d="M416,288h-8a8,8,0,0,0,0,16h8a8,8,0,0,0,0-16Z"/><path d="M352,408H320a8,8,0,0,0,0,16h32a8,8,0,0,0,0-16Z"/><path d="M384,408h-8a8,8,0,0,0,0,16h8a8,8,0,0,0,0-16Z"/></g></g></svg>
