<svg height="512" viewBox="0 0 512 512" width="512" xmlns="http://www.w3.org/2000/svg"><g><g><g><path d="m41 376h432a24 24 0 0 1 24 24v72a0 0 0 0 1 0 0h-480a0 0 0 0 1 0 0v-72a24 24 0 0 1 24-24z" fill="#2d2d30"/><circle cx="57" cy="424" fill="#d80027" r="16"/><circle cx="113" cy="424" fill="#ffda44" r="16"/><circle cx="169" cy="424" fill="#91cc04" r="16"/><path d="m377 408h96v32h-96z" fill="#ffda44"/><path d="m417 160h16a8 8 0 0 1 8 8v184a0 0 0 0 1 0 0h-32a0 0 0 0 1 0 0v-184a8 8 0 0 1 8-8z" fill="#c6c5ca"/><g fill="#57565c"><path d="m393 352h64v24h-64z"/><path d="m25 472h64v24h-64z"/><path d="m425 472h64v24h-64z"/></g></g><path d="m233 136.7a87.992 87.992 0 0 1 -47.3 77.349 16.076 16.076 0 0 0 -8.7 14.228v19.723h-64v-19.726a15.938 15.938 0 0 0 -8.546-14.152 88.013 88.013 0 0 1 43.973-166.057c47.293 1.796 84.937 41.305 84.573 88.635z" fill="#ffda44"/><path d="m97 248h96v24h-96z" fill="#2d2d30"/><path d="m113 272h64a0 0 0 0 1 0 0v24a16 16 0 0 1 -16 16h-32a16 16 0 0 1 -16-16v-24a0 0 0 0 1 0 0z" fill="#57565c"/><g fill="#ffda44"><path d="m65.804 215.196-11.314 11.314"/><path d="m235.51 45.49-11.314 11.314"/><path d="m65.804 56.804-11.314-11.314"/><path d="m235.51 226.51-11.314-11.314"/><g><circle cx="425" cy="128" r="8"/><path d="m409 110.111a24 24 0 0 1 32 0"/><path d="m393 92.222a48 48 0 0 1 64 0"/></g></g></g><g><path d="m472 368h-8v-16a8 8 0 0 0 -8-8h-8v-176a16.021 16.021 0 0 0 -16-16h-16a16.021 16.021 0 0 0 -16 16v176h-8a8 8 0 0 0 -8 8v16h-344a32.042 32.042 0 0 0 -32 32v72a8 8 0 0 0 8 8v16a8 8 0 0 0 8 8h64a8 8 0 0 0 8-8v-16h320v16a8 8 0 0 0 8 8h64a8 8 0 0 0 8-8v-16a8 8 0 0 0 8-8v-72a32.042 32.042 0 0 0 -32-32zm-56-200h16v176h-16zm-16 192h48v8h-48zm-320 128h-48v-8h48zm400 0h-48v-8h48zm8-24h-464v-64a16.021 16.021 0 0 1 16-16h432a16.021 16.021 0 0 1 16 16z"/><path d="m56 400a24 24 0 1 0 24 24 24.028 24.028 0 0 0 -24-24zm0 32a8 8 0 1 1 8-8 8.009 8.009 0 0 1 -8 8z"/><path d="m112 448a24 24 0 1 0 -24-24 24.028 24.028 0 0 0 24 24zm0-32a8 8 0 1 1 -8 8 8.009 8.009 0 0 1 8-8z"/><path d="m168 448a24 24 0 1 0 -24-24 24.028 24.028 0 0 0 24 24zm0-32a8 8 0 1 1 -8 8 8.009 8.009 0 0 1 8-8z"/><path d="m376 448h96a8 8 0 0 0 8-8v-32a8 8 0 0 0 -8-8h-96a8 8 0 0 0 -8 8v32a8 8 0 0 0 8 8zm8-32h80v16h-80z"/><path d="m288 416h64a8 8 0 0 0 0-16h-64a8 8 0 0 0 0 16z"/><path d="m352 424h-24a8 8 0 0 0 0 16h24a8 8 0 0 0 0-16z"/><path d="m188.4 221.13a95.994 95.994 0 1 0 -88.64.09 7.89 7.89 0 0 1 4.24 7.05v11.73h-8a8 8 0 0 0 -8 8v24a8 8 0 0 0 8 8h8v16a24.032 24.032 0 0 0 24 24h32a24.032 24.032 0 0 0 24-24v-16h8a8 8 0 0 0 8-8v-24a8 8 0 0 0 -8-8h-8v-11.73a8.087 8.087 0 0 1 4.4-7.14zm-20.4 74.87a8.011 8.011 0 0 1 -8 8h-32a8.011 8.011 0 0 1 -8-8v-16h48zm16-32h-80v-8h80zm-3.01-57.05a24.034 24.034 0 0 0 -12.99 21.32v11.73h-48v-11.73a23.866 23.866 0 0 0 -12.86-21.25 80 80 0 1 1 73.85-.07z"/><path d="m120 192a8 8 0 0 0 8-8v-72a8 8 0 0 0 -16 0v72a8 8 0 0 0 8 8z"/><path d="m168 192a8 8 0 0 0 8-8v-72a8 8 0 0 0 -16 0v72a8 8 0 0 0 8 8z"/><path d="m144 160a8 8 0 0 0 8-8v-16a8 8 0 0 0 -16 0v16a8 8 0 0 0 8 8z"/><path d="m16 144h16a8 8 0 0 0 0-16h-16a8 8 0 0 0 0 16z"/><path d="m256 144h16a8 8 0 0 0 0-16h-16a8 8 0 0 0 0 16z"/><path d="m53.49 234.51a7.974 7.974 0 0 0 5.657-2.343l11.314-11.313a8 8 0 0 0 -11.315-11.315l-11.313 11.314a8 8 0 0 0 5.657 13.657z"/><path d="m223.2 64.8a7.982 7.982 0 0 0 5.658-2.343l11.313-11.314a8 8 0 0 0 -11.314-11.314l-11.318 11.317a8 8 0 0 0 5.661 13.654z"/><path d="m59.146 62.461a8 8 0 0 0 11.315-11.315l-11.314-11.313a8 8 0 1 0 -11.314 11.314z"/><path d="m228.854 209.539a8 8 0 0 0 -11.315 11.315l11.314 11.313a8 8 0 0 0 11.314-11.314z"/><path d="m144 32a8 8 0 0 0 8-8v-8a8 8 0 0 0 -16 0v8a8 8 0 0 0 8 8z"/><circle cx="424" cy="128" r="8"/><path d="m440 118.111a8 8 0 0 0 5.339-13.961 32 32 0 0 0 -42.672 0 8 8 0 1 0 10.672 11.922 16 16 0 0 1 21.328 0 7.975 7.975 0 0 0 5.333 2.039z"/><path d="m397.335 98.184a40 40 0 0 1 53.33 0 8 8 0 0 0 10.67-11.922 56 56 0 0 0 -74.67 0 8 8 0 1 0 10.67 11.922z"/></g></g></svg>