<svg height="512" viewBox="0 0 512 512" width="512" xmlns="http://www.w3.org/2000/svg"><g><g><g><rect fill="#3d9ae2" height="240" rx="16" width="144" x="49" y="256"/><path d="m145 280h-48l-8-24h64z" fill="#57565c"/></g><path d="m425 136.7a87.992 87.992 0 0 1 -47.3 77.349 16.076 16.076 0 0 0 -8.7 14.228v19.723h-64v-19.726a15.938 15.938 0 0 0 -8.546-14.152 88.013 88.013 0 0 1 43.973-166.057c47.293 1.796 84.937 41.305 84.573 88.635z" fill="#ffda44"/><path d="m289 248h96v24h-96z" fill="#2d2d30"/><path d="m305 272h64a0 0 0 0 1 0 0v32a16 16 0 0 1 -16 16h-32a16 16 0 0 1 -16-16v-32a0 0 0 0 1 0 0z" fill="#57565c"/><g fill="#ffda44"><path d="m257.804 215.196-11.314 11.314"/><path d="m427.51 45.49-11.314 11.314"/><path d="m257.804 56.804-11.314-11.314"/><path d="m427.51 226.51-11.314-11.314"/></g><circle cx="121" cy="128" fill="#91cc04" r="56"/><path d="m153 344a32 32 0 0 1 -16 27.72v20.28h-32v-20.28a32 32 0 1 1 48-27.72z" fill="#ffda44"/><path d="m105 392h32a0 0 0 0 1 0 0v16a8 8 0 0 1 -8 8h-16a8 8 0 0 1 -8-8v-16a0 0 0 0 1 0 0z" fill="#57565c"/></g><g><path d="m176 248h-112a24.032 24.032 0 0 0 -24 24v208a24.032 24.032 0 0 0 24 24h112a24.032 24.032 0 0 0 24-24v-208a24.032 24.032 0 0 0 -24-24zm-35.1 16-2.67 8h-36.46l-2.67-8zm43.1 216a8.011 8.011 0 0 1 -8 8h-112a8.011 8.011 0 0 1 -8-8v-208a8.011 8.011 0 0 1 8-8h18.23l6.18 18.53a8 8 0 0 0 7.59 5.47h48a8 8 0 0 0 7.59-5.47l6.18-18.53h18.23a8.011 8.011 0 0 1 8 8z"/><path d="m104 464h-32a8 8 0 0 0 0 16h32a8 8 0 0 0 0-16z"/><path d="m136 464h-8a8 8 0 0 0 0 16h8a8 8 0 0 0 0-16z"/><path d="m380.4 221.13a95.994 95.994 0 1 0 -88.64.09 7.89 7.89 0 0 1 4.24 7.05v11.73h-8a8 8 0 0 0 -8 8v24a8 8 0 0 0 8 8h8v24a24.032 24.032 0 0 0 24 24h32a24.032 24.032 0 0 0 24-24v-24h8a8 8 0 0 0 8-8v-24a8 8 0 0 0 -8-8h-8v-11.73a8.087 8.087 0 0 1 4.4-7.14zm-20.4 82.87a8.011 8.011 0 0 1 -8 8h-32a8.011 8.011 0 0 1 -8-8v-24h48zm16-40h-80v-8h80zm-3.01-57.05a24.034 24.034 0 0 0 -12.99 21.32v11.73h-48v-11.73a23.876 23.876 0 0 0 -12.85-21.25 80 80 0 1 1 73.84-.07z"/><path d="m312 104a8 8 0 0 0 -8 8v72a8 8 0 0 0 16 0v-72a8 8 0 0 0 -8-8z"/><path d="m368 184v-72a8 8 0 0 0 -16 0v72a8 8 0 0 0 16 0z"/><path d="m336 128a8 8 0 0 0 -8 8v16a8 8 0 0 0 16 0v-16a8 8 0 0 0 -8-8z"/><path d="m224 128h-16a8 8 0 0 0 0 16h16a8 8 0 0 0 0-16z"/><path d="m464 128h-16a8 8 0 0 0 0 16h16a8 8 0 0 0 0-16z"/><path d="m251.147 232.167 11.314-11.314a8 8 0 0 0 -11.315-11.314l-11.313 11.314a8 8 0 0 0 11.314 11.314z"/><path d="m420.853 39.833-11.314 11.314a8 8 0 0 0 11.315 11.314l11.313-11.314a8 8 0 0 0 -11.314-11.314z"/><path d="m251.146 62.461a8 8 0 0 0 11.315-11.314l-11.314-11.314a8 8 0 0 0 -11.314 11.314z"/><path d="m420.854 209.539a8 8 0 0 0 -11.315 11.314l11.314 11.314a8 8 0 0 0 11.314-11.314z"/><path d="m336 32a8 8 0 0 0 8-8v-8a8 8 0 0 0 -16 0v8a8 8 0 0 0 8 8z"/><path d="m336 336a8 8 0 0 0 -8 8v96h-80a8 8 0 0 0 0 16h88a8 8 0 0 0 8-8v-104a8 8 0 0 0 -8-8z"/><path d="m224 440h-8a8 8 0 0 0 0 16h8a8 8 0 0 0 0-16z"/><path d="m120 192a64 64 0 1 0 -64-64 64.072 64.072 0 0 0 64 64zm0-112a48 48 0 1 1 -48 48 48.054 48.054 0 0 1 48-48z"/><path d="m112 208v24a8 8 0 0 0 16 0v-24a8 8 0 0 0 -16 0z"/><path d="m120 304a40 40 0 0 0 -24 72v32a16.021 16.021 0 0 0 16 16h16a16.021 16.021 0 0 0 16-16v-32a40 40 0 0 0 -24-72zm8 104h-16v-8h16l.01 8zm3.99-43.21a8 8 0 0 0 -3.99 6.93v12.28h-16v-12.28a8 8 0 0 0 -3.99-6.93 24 24 0 1 1 23.98 0z"/><circle cx="120" cy="152" r="8"/><path d="m141.335 128.15a32 32 0 0 0 -42.67 0 8 8 0 1 0 10.67 11.922 16 16 0 0 1 21.33 0 8 8 0 1 0 10.67-11.922z"/><path d="m93.335 122.183a40 40 0 0 1 53.33 0 8 8 0 1 0 10.67-11.922 56 56 0 0 0 -74.67 0 8 8 0 1 0 10.67 11.922z"/></g></g></svg>