<svg height="512" viewBox="0 0 512 512" width="512" xmlns="http://www.w3.org/2000/svg"><g><g><path d="m353 352h-312a24 24 0 0 1 -24-24v-224a24 24 0 0 1 24-24h88l25.965-48.913a24 24 0 0 1 22.284-15.087h143.5a24 24 0 0 1 22.284 15.087l25.967 48.913h88a24 24 0 0 1 24 24v152" fill="#2d2d30"/><circle cx="249" cy="216" fill="#57565c" r="96"/><circle cx="249" cy="216" fill="#3d9ae2" r="72"/><path d="m393 104h64v40h-64z" fill="#91cc04"/><g><rect fill="#3d9ae2" height="240" rx="16" width="144" x="353" y="256"/><path d="m449 280h-48l-8-24h64z" fill="#57565c"/></g><path d="m49 56h48v24h-48z" fill="#57565c"/><path d="m201 48h96v32h-96z" fill="#ffda44"/><path d="m41 152h56v168h-56z" fill="#57565c"/></g><g><path d="m248 112a104 104 0 1 0 104 104 104.118 104.118 0 0 0 -104-104zm0 192a88 88 0 1 1 88-88 88.1 88.1 0 0 1 -88 88z"/><path d="m248 136a80 80 0 1 0 80 80 80.091 80.091 0 0 0 -80-80zm0 144a64 64 0 1 1 64-64 64.072 64.072 0 0 1 -64 64z"/><path d="m392 152h64a8 8 0 0 0 8-8v-40a8 8 0 0 0 -8-8h-64a8 8 0 0 0 -8 8v40a8 8 0 0 0 8 8zm8-40h48v24h-48z"/><path d="m96 96h-56a8 8 0 0 0 0 16h56a8 8 0 0 0 0-16z"/><path d="m40 136h24a8 8 0 0 0 0-16h-24a8 8 0 0 0 0 16z"/><path d="m488 249.38v-145.38a32.03 32.03 0 0 0 -32-32h-83.19l-23.52-44.31a31.843 31.843 0 0 0 -29.54-19.69h-143.5a31.843 31.843 0 0 0 -29.54 19.69l-23.52 44.31h-19.19v-16a8 8 0 0 0 -8-8h-48a8 8 0 0 0 -8 8v16a32.03 32.03 0 0 0 -32 32v224a32.03 32.03 0 0 0 32 32h304v120a24.032 24.032 0 0 0 24 24h112a24.032 24.032 0 0 0 24-24v-208a24.031 24.031 0 0 0 -16-22.62zm-432-185.38h32v8h-32zm288 208v72h-304a16.021 16.021 0 0 1 -16-16v-224a16.021 16.021 0 0 1 16-16h88a8 8 0 0 0 7.07-4.25l25.96-48.91a6.779 6.779 0 0 0 .36-.78 15.938 15.938 0 0 1 14.86-10.06h143.5a15.938 15.938 0 0 1 14.86 10.06 6.779 6.779 0 0 0 .36.78l25.96 48.91a8 8 0 0 0 7.07 4.25h88a16.021 16.021 0 0 1 16 16v144h-104a24.032 24.032 0 0 0 -24 24zm100.9-8-2.67 8h-36.46l-2.67-8zm43.1 216a8.011 8.011 0 0 1 -8 8h-112a8.011 8.011 0 0 1 -8-8v-208a8.011 8.011 0 0 1 8-8h18.23l6.18 18.53a8 8 0 0 0 7.59 5.47h48a8 8 0 0 0 7.59-5.47l6.18-18.53h18.23a8.011 8.011 0 0 1 8 8z"/><path d="m408 464h-32a8 8 0 0 0 0 16h32a8 8 0 0 0 0-16z"/><path d="m440 464h-8a8 8 0 0 0 0 16h8a8 8 0 0 0 0-16z"/><circle cx="424" cy="384" r="8"/><path d="m413.335 372.072a16 16 0 0 1 21.33 0 8 8 0 0 0 10.671-11.922 32 32 0 0 0 -42.672 0 8 8 0 0 0 10.671 11.922z"/><path d="m461.335 342.261a56 56 0 0 0 -74.67 0 8 8 0 1 0 10.67 11.922 40 40 0 0 1 53.33 0 8 8 0 1 0 10.67-11.922z"/><path d="m200 88h96a8 8 0 0 0 8-8v-32a8 8 0 0 0 -8-8h-96a8 8 0 0 0 -8 8v32a8 8 0 0 0 8 8zm8-32h80v16h-80z"/><path d="m96 144h-56a8 8 0 0 0 -8 8v168a8 8 0 0 0 8 8h56a8 8 0 0 0 8-8v-168a8 8 0 0 0 -8-8zm-8 168h-40v-152h40z"/><path d="m288 448h-216v-64a8 8 0 0 0 -16 0v72a8 8 0 0 0 8 8h224a8 8 0 0 0 0-16z"/><path d="m320 448h-8a8 8 0 0 0 0 16h8a8 8 0 0 0 0-16z"/></g></g></svg>