<svg height="512" viewBox="0 0 512 512" width="512" xmlns="http://www.w3.org/2000/svg"><g><path d="m64 184h304v128h-304z" fill="#e0e0e2"/><g><g><path d="m428.87 166.68-4.87 17.32h-55-58.75-82.5-10.75l-8 24h-88-56-8v-56h48 24 8 16 16 36.1 127.8 68.91" fill="#57565c"/><path d="m369 232h32v48h-32z" fill="#57565c"/><path d="m441 304-40-8v-80l40-8z" fill="#2d2d30"/><path d="m233 232h112v40h-112z" fill="#ffda44"/><path d="m85-52h40v176h-40z" fill="#2d2d30" transform="matrix(0 1 -1 0 141 -69)"/><path d="m89 32h16a16 16 0 0 1 16 16v48a16 16 0 0 1 -16 16h-16a0 0 0 0 1 0 0v-80a0 0 0 0 1 0 0z" fill="#c6c5ca" transform="matrix(0 1 -1 0 177 -33)"/><path d="m153 152h-32l-32-64h32z" fill="#e0e0e2"/><circle cx="441" cy="112" fill="#91cc04" r="56"/></g><rect fill="#3d9ae2" height="240" rx="16" width="144" x="33" y="256"/><path d="m129 280h-48l-8-24h64z" fill="#57565c"/></g><path d="m64 208h56v48h-56z" fill="#2d2d30"/><g><path d="m423 192a8 8 0 0 0 7.7-5.83l2.95-10.49a64.09 64.09 0 1 0 -49.04-31.68h-227.67l-24.23-48.47a24.028 24.028 0 0 0 19.29-23.53v-8h40a8 8 0 0 0 8-8v-40a8 8 0 0 0 -8-8h-176a8 8 0 0 0 -8 8v40a8 8 0 0 0 8 8h40v8a24.032 24.032 0 0 0 24 24h3.06l24 48h-51.06a8 8 0 0 0 -8 8v56a8 8 0 0 0 8 8v32h-8a24.032 24.032 0 0 0 -24 24v208a24.032 24.032 0 0 0 24 24h112a24.032 24.032 0 0 0 24-24v-160h184a8 8 0 0 0 8-8v-24h16v8a7.99 7.99 0 0 0 6.43 7.84l40 8a7.606 7.606 0 0 0 1.57.16 8 8 0 0 0 8-8v-96a7.992 7.992 0 0 0 -9.57-7.84l-40 8a7.99 7.99 0 0 0 -6.43 7.84v8h-16v-32zm-15 30.56 24-4.8v76.48l-24-4.8zm32-158.56a48 48 0 1 1 -48 48 48.051 48.051 0 0 1 48-48zm-416-16v-24h160v24zm56 32a8.011 8.011 0 0 1 -8-8v-8h64v8a8.011 8.011 0 0 1 -8 8zm20.94 16h14.12l24 48h-14.12zm67.06 384a8.011 8.011 0 0 1 -8 8h-112a8.011 8.011 0 0 1 -8-8v-208a8.011 8.011 0 0 1 8-8h18.23l6.18 18.53a8 8 0 0 0 7.59 5.47h48a8 8 0 0 0 7.59-5.47l6.18-18.53h18.23a8.011 8.011 0 0 1 8 8zm-56-232h-40v-32h40zm12.9 16-2.67 8h-36.46l-2.67-8zm235.1 40h-176v-32a24.032 24.032 0 0 0 -24-24h-32v-32h80a8 8 0 0 0 7.59-5.47l6.18-18.53h138.23zm32-64v32h-16v-32zm-176-64a8 8 0 0 0 -7.59 5.47l-6.18 18.53h-138.23v-40h32v24a8 8 0 0 0 16 0v-24h8v24a8 8 0 0 0 16 0v-24h8v24a8 8 0 0 0 16 0v-24h237.74a64.082 64.082 0 0 0 20.29 12.12l-1.09 3.88z"/><path d="m344 224h-112a8 8 0 0 0 -8 8v40a8 8 0 0 0 8 8h112a8 8 0 0 0 8-8v-40a8 8 0 0 0 -8-8zm-8 40h-96v-24h96z"/><circle cx="440" cy="136" r="8"/><path d="m461.335 112.15a32 32 0 0 0 -42.67 0 8 8 0 1 0 10.67 11.922 16 16 0 0 1 21.33 0 8 8 0 1 0 10.67-11.922z"/><path d="m413.335 106.183a40 40 0 0 1 53.33 0 8 8 0 1 0 10.67-11.922 56 56 0 0 0 -74.67 0 8 8 0 1 0 10.67 11.922z"/><path d="m88 464h-32a8 8 0 0 0 0 16h32a8 8 0 0 0 0-16z"/><path d="m120 464h-8a8 8 0 0 0 0 16h8a8 8 0 0 0 0-16z"/><circle cx="104" cy="384" r="8"/><path d="m93.335 372.072a16 16 0 0 1 21.33 0 8 8 0 1 0 10.67-11.922 32 32 0 0 0 -42.67 0 8 8 0 1 0 10.67 11.922z"/><path d="m141.335 342.261a56 56 0 0 0 -74.67 0 8 8 0 1 0 10.67 11.922 40 40 0 0 1 53.33 0 8 8 0 1 0 10.67-11.922z"/><path d="m416 320a8 8 0 0 0 -8 8v112h-208a8 8 0 0 0 0 16h216a8 8 0 0 0 8-8v-120a8 8 0 0 0 -8-8z"/></g></g></svg>