<svg height="512" viewBox="0 0 512 512" width="512" xmlns="http://www.w3.org/2000/svg"><g><g><g><path d="m248.87 448.065h240a0 0 0 0 1 0 0v32a16 16 0 0 1 -16 16h-208a16 16 0 0 1 -16-16v-32a0 0 0 0 1 0 0z" fill="#e0e0e2"/><path d="m272.87 472.007 24 .015" fill="#ffda44"/><path d="m320.87 472.036 8 .005" fill="#ffda44"/><path d="m360.971 304.06 96 .058a16 16 0 0 1 15.99 16.01l-.077 128-80-.048-48-.029-80-.049.077-128a16 16 0 0 1 16.01-15.99l48 .029" fill="#2d2d30"/><path d="m360.957 328.06 88 .053-.058 96-160-.096.058-96 64 .038" fill="#3d9ae2"/><path d="m384.87 472.075-32-.02-7.986-24.004 48 .029z" fill="#57565c"/></g><g><path d="m153.058 159.935-24-.015-64-.038-24-.015a16 16 0 0 0 -16.01 15.991l-.125 208a16 16 0 0 0 15.99 16.009l112 .068a16 16 0 0 0 16.01-15.99l.125-208a15.72 15.72 0 0 0 -1.416-6.581" fill="#3d9ae2"/><path d="m48.928 375.872 32 .019" fill="#ffda44"/><path d="m104.928 375.906 8 .005" fill="#ffda44"/><path d="m121.043 183.916-48-.029-7.985-24.005 64 .038z" fill="#57565c"/></g><g fill="#ffda44"><path d="m393.053 168.08-.067 112-32-.02-.034 56-55.966-56.033-104-.063.067-112z"/><path d="m225.034 199.978 144 .087"/><path d="m225.019 223.978 144 .087"/><path d="m225.005 247.978 104 .063"/><path d="m353.005 248.055 8 .005"/><path d="m121.145 15.916-.068 112 32 .019-.034 56 56.034-55.966 104 .062.068-112z"/><path d="m145.125 47.93 144 .087"/><path d="m145.111 71.93 144 .087"/><path d="m145.096 95.93 88 .053"/><path d="m257.096 95.998 8 .004"/></g><circle cx="441.111" cy="72.109" fill="#91cc04" r="56"/><path d="m337.116 64.046 24 .014" fill="#ffda44"/></g><g><path d="m487.889 440.137h-8l.072-120a24 24 0 0 0 -23.985-24.015l-88-.053v-8l24 .015a8 8 0 0 0 8-8l.068-112a8 8 0 0 0 -8-8l-192-.116a8 8 0 0 0 -8 8l-.068 112a8 8 0 0 0 7.995 8l100.687.06 8 8-28.686-.017h-.015a24.03 24.03 0 0 0 -24 23.986l-.072 120h-8-.005a8 8 0 0 0 -8 8l-.019 32a24 24 0 0 0 23.99 24.003l208 .126h.014a24.03 24.03 0 0 0 24-23.986l.019-32a8 8 0 0 0 -7.995-8.003zm-133.6-98.424a8 8 0 0 0 13.66-5.648l72 .043-.049 80-144-.086.049-80 52.687.032zm-146.3-69.744.058-96 176 .106-.058 96-24-.015a8 8 0 0 0 -8 8l-.014 23.988v.024l-.007 12.675-42.318-42.369a8.006 8.006 0 0 0 -5.656-2.347zm63.971 48.039a8.01 8.01 0 0 1 8-8l44.687.027 8 8-44.686-.027a8 8 0 0 0 -8 8l-.059 96a8 8 0 0 0 8 8l160 .1a8 8 0 0 0 8-8l.059-96a8 8 0 0 0 -8-8l-80-.048v-8l88 .053a7.994 7.994 0 0 1 8 8l-.072 120-192-.116zm95.9 136.057 12.918.008-2.672 8-20.467-.012-2.662-8zm112 24.067a8.01 8.01 0 0 1 -8 8l-208-.126a8 8 0 0 1 -8-8l.014-24h8l74.234.045 6.166 18.534a8 8 0 0 0 7.586 5.475l32 .019a8 8 0 0 0 7.588-5.466l6.187-18.526 74.234.045h.013 7.987z"/><path d="m295.875 464.021-24-.014a8 8 0 0 0 0 16l24 .014a8 8 0 0 0 0-16z"/><path d="m327.875 464.041h-8a8 8 0 0 0 0 16h8a8 8 0 0 0 0-16z"/><path d="m79.933 367.892-32-.02h-.005a8 8 0 0 0 0 16l32 .02a8 8 0 0 0 .005-16z"/><path d="m111.933 367.911h-8-.005a8 8 0 0 0 0 16h8a8 8 0 0 0 .005-16z"/><path d="m224.029 207.979 144 .086a8 8 0 0 0 0-16l-144-.086a8 8 0 0 0 0 16z"/><path d="m224.015 231.979 144 .086a8 8 0 0 0 0-16l-144-.086a8 8 0 0 0 -.005 16z"/><path d="m328.005 256.041a8 8 0 0 0 0-16l-104-.062a8 8 0 0 0 0 16z"/><path d="m360.01 240.06h-8a8 8 0 0 0 0 16h8a8 8 0 0 0 0-16z"/><path d="m312.15 8.03-192-.11h-.01a8.006 8.006 0 0 0 -8 7.99l-.06 112a8 8 0 0 0 7.99 8.01l24 .01-.01 16-104-.06h-.01a24.021 24.021 0 0 0 -24 23.98l-.13 208a24 24 0 0 0 23.99 24.02l112 .07h.01a24 24 0 0 0 24-23.99l.13-208a24.56 24.56 0 0 0 -.39-4.3l35.73-35.68 100.68.06h.01a8.009 8.009 0 0 0 8-7.99l.06-112a7.991 7.991 0 0 0 -7.99-8.01zm-216.08 159.87 20.88.01-2.67 8-36.47-.02-2.66-8zm63.85 216.04a7.989 7.989 0 0 1 -8 8l-112-.07a8.006 8.006 0 0 1 -8-8.01l.13-208a8 8 0 0 1 8-7.99l18.24.01 6.16 18.53a8.023 8.023 0 0 0 7.59 5.48l48 .03a8 8 0 0 0 7.59-5.47l6.19-18.53 10.23.01-.01 16a8 8 0 0 0 4.94 7.39 7.822 7.822 0 0 0 3.06.62 8.045 8.045 0 0 0 5.66-2.34l2.34-2.35zm144.16-263.91-96-.06a8.008 8.008 0 0 0 -5.66 2.34l-42.37 42.32.01-4.69.02-32a8 8 0 0 0 -8-8l-24-.02.06-96 176 .11z"/><path d="m144.12 55.93 144 .087a8 8 0 0 0 0-16l-144-.087a8 8 0 0 0 0 16z"/><path d="m144.106 79.93 144 .087a8 8 0 0 0 0-16l-144-.087h-.005a8 8 0 0 0 0 16z"/><path d="m232.1 103.983a8 8 0 0 0 0-16l-88-.053a8 8 0 0 0 0 16z"/><path d="m264.1 88h-8a8 8 0 0 0 0 16h8a8 8 0 0 0 0-16z"/><path d="m440.072 136.108h.04a64 64 0 0 0 .037-128h-.039a64 64 0 0 0 -.038 128zm.038-112h.03a48 48 0 0 1 -.028 96h-.03a48 48 0 0 1 .028-96z"/><circle cx="440" cy="96" r="8"/><path d="m461.335 72.15a32 32 0 0 0 -42.67 0 8 8 0 1 0 10.67 11.922 16 16 0 0 1 21.33 0 8 8 0 1 0 10.67-11.922z"/><path d="m413.335 66.183a40 40 0 0 1 53.33 0 8 8 0 1 0 10.67-11.922 56 56 0 0 0 -74.67 0 8 8 0 1 0 10.67 11.922z"/><path d="m336.111 72.046 24 .015a8 8 0 0 0 0-16l-24-.015a8 8 0 0 0 0 16z"/><path d="m448.062 144.113a8 8 0 0 0 -8 8l-.038 64-24-.014a8 8 0 0 0 0 16l32 .019a8 8 0 0 0 8-8l.042-72a8 8 0 0 0 -8-8z"/></g></g></svg>