<svg height="512" viewBox="0 0 512 512" width="512" xmlns="http://www.w3.org/2000/svg"><g><g><path d="m329 136h-16a40 40 0 1 1 11.95-78.18 64.018 64.018 0 0 1 122.64 8.77 36 36 0 1 1 17.41 69.18 33.053 33.053 0 0 1 -4 .23h-20" fill="#e0e0e2"/><g><rect fill="#3d9ae2" height="240" rx="16" width="144" x="17" y="256"/><path d="m113 280h-48l-8-24h64z" fill="#2d2d30"/></g><g><g fill="#57565c"><rect height="48" rx="12" width="176" x="321" y="264"/><rect height="48" rx="12" width="176" x="321" y="312"/><rect height="48" rx="12" width="176" x="321" y="360"/></g><path d="m393 240h32v24h-32z" fill="#ffda44"/><path d="m393 408h32v24h-32z" fill="#ffda44"/></g><circle cx="385" cy="120" fill="#91cc04" r="56"/><path d="m465 135.77v.23h-4a33.053 33.053 0 0 0 4-.23z" fill="#ffda44"/></g><g><path d="m144 248h-112a24.032 24.032 0 0 0 -24 24v208a24.032 24.032 0 0 0 24 24h112a24.032 24.032 0 0 0 24-24v-208a24.032 24.032 0 0 0 -24-24zm-35.1 16-2.67 8h-36.46l-2.67-8zm43.1 216a8.011 8.011 0 0 1 -8 8h-112a8.011 8.011 0 0 1 -8-8v-208a8.011 8.011 0 0 1 8-8h18.23l6.18 18.53a8 8 0 0 0 7.59 5.47h48a8 8 0 0 0 7.59-5.47l6.18-18.53h18.23a8.011 8.011 0 0 1 8 8z"/><path d="m72 464h-32a8 8 0 0 0 0 16h32a8 8 0 0 0 0-16z"/><path d="m104 464h-8a8 8 0 0 0 0 16h8a8 8 0 0 0 0-16z"/><path d="m484 256h-52v-16a8 8 0 0 0 -8-8h-32a8 8 0 0 0 -8 8v16h-52a20.023 20.023 0 0 0 -20 20v24a19.869 19.869 0 0 0 4.038 12 19.869 19.869 0 0 0 -4.038 12v24a19.869 19.869 0 0 0 4.038 12 19.869 19.869 0 0 0 -4.038 12v24a20.023 20.023 0 0 0 20 20h52v16a8 8 0 0 0 8 8h32a8 8 0 0 0 8-8v-16h52a20.023 20.023 0 0 0 20-20v-24a19.869 19.869 0 0 0 -4.038-12 19.869 19.869 0 0 0 4.038-12v-24a19.869 19.869 0 0 0 -4.038-12 19.869 19.869 0 0 0 4.038-12v-24a20.023 20.023 0 0 0 -20-20zm-84-8h16v8h-16zm-72 28a4 4 0 0 1 4-4h152a4 4 0 0 1 4 4v24a4 4 0 0 1 -4 4h-152a4 4 0 0 1 -4-4zm160 48v24a4 4 0 0 1 -4 4h-152a4 4 0 0 1 -4-4v-24a4 4 0 0 1 4-4h152a4 4 0 0 1 4 4zm-72 100h-16v-8h16zm72-28a4 4 0 0 1 -4 4h-152a4 4 0 0 1 -4-4v-24a4 4 0 0 1 4-4h152a4 4 0 0 1 4 4z"/><circle cx="344" cy="288" r="8"/><circle cx="368" cy="288" r="8"/><path d="m432 296h40a8 8 0 0 0 0-16h-40a8 8 0 0 0 0 16z"/><circle cx="344" cy="336" r="8"/><circle cx="368" cy="336" r="8"/><path d="m432 344h40a8 8 0 0 0 0-16h-40a8 8 0 0 0 0 16z"/><circle cx="344" cy="384" r="8"/><circle cx="368" cy="384" r="8"/><path d="m472 376h-40a8 8 0 0 0 0 16h40a8 8 0 0 0 0-16z"/><circle cx="384" cy="144" r="8"/><path d="m405.336 120.15a32 32 0 0 0 -42.672 0 8 8 0 0 0 10.671 11.922 16 16 0 0 1 21.33 0 8 8 0 0 0 10.671-11.922z"/><path d="m421.335 102.261a56 56 0 0 0 -74.67 0 8 8 0 1 0 10.67 11.922 40 40 0 0 1 53.33 0 8 8 0 1 0 10.67-11.922z"/><path d="m312 144h12.687a63.975 63.975 0 0 0 118.626 0h20.687a7.963 7.963 0 0 0 2.893-.548 44 44 0 1 0 -14.755-86.752 72.02 72.02 0 0 0 -132.917-8.159 48 48 0 1 0 -7.221 95.459zm72 24a48 48 0 1 1 48-48 48.055 48.055 0 0 1 -48 48zm-72-104a31.958 31.958 0 0 1 9.561 1.455 8 8 0 0 0 9.894-4.865 56.018 56.018 0 0 1 107.311 7.667 8 8 0 0 0 10.817 5.752 27.719 27.719 0 0 1 10.417-2.009 28 28 0 0 1 3.029 55.829 25.216 25.216 0 0 1 -3.029.171h-12.518a64 64 0 1 0 -126.964 0h-8.518a32 32 0 0 1 0-64z"/><path d="m408 448a8 8 0 0 0 -8 8v8h-184a8 8 0 0 0 0 16h192a8 8 0 0 0 8-8v-16a8 8 0 0 0 -8-8z"/><path d="m192 464h-8a8 8 0 0 0 0 16h8a8 8 0 0 0 0-16z"/><path d="m400 200v16a8 8 0 0 0 16 0v-16a8 8 0 0 0 -16 0z"/><path d="m88 208a8 8 0 0 0 8-8v-88h152a8 8 0 0 0 0-16h-160a8 8 0 0 0 -8 8v96a8 8 0 0 0 8 8z"/><path d="m88 240a8 8 0 0 0 8-8v-8a8 8 0 0 0 -16 0v8a8 8 0 0 0 8 8z"/></g></g></svg>