<svg height="512" viewBox="0 0 512 512" width="512" xmlns="http://www.w3.org/2000/svg"><g><g><path d="m201 136h-16a40 40 0 1 1 11.95-78.18 64.018 64.018 0 0 1 122.64 8.77 36 36 0 1 1 17.41 69.18 33.053 33.053 0 0 1 -4 .23h-20" fill="#e0e0e2"/><path d="m17 448h240a0 0 0 0 1 0 0v32a16 16 0 0 1 -16 16h-208a16 16 0 0 1 -16-16v-32a0 0 0 0 1 0 0z" fill="#e0e0e2"/><path d="m49 296h176a16 16 0 0 1 16 16v136a0 0 0 0 1 0 0h-208a0 0 0 0 1 0 0v-136a16 16 0 0 1 16-16z" fill="#57565c"/><path d="m57 320h160v104h-160z" fill="#3d9ae2"/><path d="m153 472h-32l-8-24h48z" fill="#2d2d30"/><rect fill="#3d9ae2" height="240" rx="24" width="144" x="353" y="256"/><path d="m449 280h-48l-8-24h64z" fill="#57565c"/><circle cx="257" cy="120" fill="#91cc04" r="56"/><path d="m337 135.77v.23h-4a33.053 33.053 0 0 0 4-.23z" fill="#ffda44"/></g><g><path d="m256 440h-8v-128a24.032 24.032 0 0 0 -24-24h-176a24.032 24.032 0 0 0 -24 24v128h-8a8 8 0 0 0 -8 8v32a24.032 24.032 0 0 0 24 24h208a24.032 24.032 0 0 0 24-24v-32a8 8 0 0 0 -8-8zm-216-128a8.011 8.011 0 0 1 8-8h176a8.011 8.011 0 0 1 8 8v128h-192zm108.9 144-2.67 8h-20.46l-2.67-8zm99.1 24a8.011 8.011 0 0 1 -8 8h-208a8.011 8.011 0 0 1 -8-8v-24h82.23l6.18 18.53a8 8 0 0 0 7.59 5.47h32a8 8 0 0 0 7.59-5.47l6.18-18.53h82.23z"/><path d="m64 464h-24a8 8 0 0 0 0 16h24a8 8 0 0 0 0-16z"/><path d="m96 464h-8a8 8 0 0 0 0 16h8a8 8 0 0 0 0-16z"/><path d="m224 424v-104a8 8 0 0 0 -8-8h-160a8 8 0 0 0 -8 8v104a8 8 0 0 0 8 8h160a8 8 0 0 0 8-8zm-16-8h-144v-88h144z"/><path d="m472 248h-96a32.03 32.03 0 0 0 -32 32v192a32.03 32.03 0 0 0 32 32h96a32.03 32.03 0 0 0 32-32v-192a32.03 32.03 0 0 0 -32-32zm-27.1 16-2.67 8h-36.46l-2.67-8zm43.1 208a16.021 16.021 0 0 1 -16 16h-96a16.021 16.021 0 0 1 -16-16v-192a16.021 16.021 0 0 1 16-16h10.23l6.18 18.53a8 8 0 0 0 7.59 5.47h48a8 8 0 0 0 7.59-5.47l6.18-18.53h10.23a16.021 16.021 0 0 1 16 16z"/><path d="m416 464h-40a8 8 0 0 0 0 16h40a8 8 0 0 0 0-16z"/><path d="m448 464h-8a8 8 0 0 0 0 16h8a8 8 0 0 0 0-16z"/><circle cx="256" cy="144" r="8"/><path d="m277.336 120.15a32 32 0 0 0 -42.672 0 8 8 0 0 0 10.671 11.922 16 16 0 0 1 21.33 0 8 8 0 0 0 10.671-11.922z"/><path d="m293.335 102.261a56 56 0 0 0 -74.67 0 8 8 0 1 0 10.67 11.922 40 40 0 0 1 53.33 0 8 8 0 1 0 10.67-11.922z"/><path d="m332 56a43.764 43.764 0 0 0 -7.86.7 72.023 72.023 0 0 0 -132.92-8.16 48 48 0 1 0 -7.22 95.46h12.69a63.971 63.971 0 0 0 118.62 0h20.69a7.9 7.9 0 0 0 2.89-.55 44 44 0 0 0 -6.89-87.45zm-76 112a48 48 0 1 1 48-48 48.051 48.051 0 0 1 -48 48zm79.03-40.17a25.955 25.955 0 0 1 -3.03.17h-12.52a64 64 0 1 0 -126.96 0h-8.52a32 32 0 1 1 9.56-62.55 8 8 0 0 0 9.9-4.86 56.017 56.017 0 0 1 107.31 7.67 8 8 0 0 0 10.81 5.75 28 28 0 1 1 13.45 53.82z"/><path d="m64 272a8 8 0 0 0 8-8v-96h104a8 8 0 0 0 0-16h-112a8 8 0 0 0 -8 8v104a8 8 0 0 0 8 8z"/><path d="m416 232a8 8 0 0 0 16 0v-72a8 8 0 0 0 -8-8h-88a8 8 0 0 0 0 16h80z"/></g></g></svg>