<svg height="512" viewBox="0 0 512 512" width="512" xmlns="http://www.w3.org/2000/svg"><g><g><path d="m153 272v-232a24 24 0 0 1 24-24h240a24 24 0 0 1 24 24v432a24 24 0 0 1 -24 24h-240a24 24 0 0 1 -24-24v-16" fill="#3d9ae2"/><g><path d="m96 456h273v-72a24.006 24.006 0 0 0 -24-24h-96l-16 56h-56v-112h-32l-34.66 105.19" fill="#d80027"/><path d="m361 456h-96a48 48 0 0 1 96 0z" fill="#ab2300"/><path d="m343.99 456a32 32 0 1 1 -61.98 0" fill="#2d2d30"/><path d="m169 456h-96a48 48 0 0 1 96 0z" fill="#ab2300"/><path d="m151.99 456a32 32 0 1 1 -61.98 0" fill="#2d2d30"/><path d="m249 328h104a0 0 0 0 1 0 0v32a0 0 0 0 1 0 0h-104a16 16 0 0 1 -16-16 16 16 0 0 1 16-16z" fill="#57565c"/><path d="m137 272h56v32h-56z" fill="#ab2300"/><path d="m137 272v32h-8a16 16 0 1 1 0-32z" fill="#ffda44"/><path d="m289 248h80v80h-80z" fill="#a0815c"/><path d="m313 248h32v40h-32z" fill="#ffda44"/></g><path d="m353 48h-112l-9-32h129z" fill="#787680"/></g><g><path d="m416 8h-240a32.036 32.036 0 0 0 -32 32v224h-16a24 24 0 0 0 0 48h4.94l-29.86 90.62a56.1 56.1 0 0 0 -39.08 53.38 8 8 0 0 0 8 8h8a39.977 39.977 0 0 0 69.92 26.51 32 32 0 0 0 26.08 13.49h240a32.036 32.036 0 0 0 32-32v-432a32.036 32.036 0 0 0 -32-32zm-288 288a8 8 0 0 1 0-16zm221.75-272-4 16h-99.69l-4.5-16zm-205.75 256h40v16h-40zm5.79 32h18.21v104a8 8 0 0 0 8 8h56a8 8 0 0 0 7.69-5.8l14.34-50.2h89.97a16.021 16.021 0 0 1 16 16v43.19a55.982 55.982 0 0 0 -103.42 20.81h-81.16a56.081 56.081 0 0 0 -54.64-47.98zm162.21-16h32a8 8 0 0 0 8-8v-32h8v64h-64v-64h8v32a8 8 0 0 0 8 8zm8-16v-24h16v24zm24 56v16h-96a8 8 0 0 1 0-16zm7.2 112h-78.4a40.01 40.01 0 0 1 78.4 0zm-231.2 40a24.032 24.032 0 0 1 -24-24h48a24.032 24.032 0 0 1 -24 24zm-39.2-40a40.01 40.01 0 0 1 78.4 0zm95.2 40a16.021 16.021 0 0 1 -16-16v-8h112a39.808 39.808 0 0 0 8.02 24zm136 0a24.032 24.032 0 0 1 -24-24h48a24.032 24.032 0 0 1 -24 24zm120-16a16.021 16.021 0 0 1 -16 16h-72.02a39.808 39.808 0 0 0 8.02-24h16a8 8 0 0 0 8-8v-72a32.01 32.01 0 0 0 -16-27.69v-20.31h8a8 8 0 0 0 8-8v-80a8 8 0 0 0 -8-8h-80a8 8 0 0 0 -8 8v72h-32a24 24 0 0 0 -9.98 45.82l-12.05 42.18h-41.97v-96h8a8 8 0 0 0 8-8v-8h16a8 8 0 0 0 0-16h-16v-8a8 8 0 0 0 -8-8h-32v-224a16.021 16.021 0 0 1 16-16h48.94l7.36 26.17a8 8 0 0 0 7.7 5.83h112a8 8 0 0 0 7.76-6.06l6.49-25.94h49.75a16.021 16.021 0 0 1 16 16z"/><circle cx="328" cy="224" r="8"/><path d="m349.335 200.15a32 32 0 0 0 -42.67 0 8 8 0 1 0 10.67 11.922 16 16 0 0 1 21.33 0 8 8 0 1 0 10.67-11.922z"/><path d="m365.335 182.261a56 56 0 0 0 -74.67 0 8 8 0 1 0 10.67 11.922 40 40 0 0 1 53.33 0 8 8 0 1 0 10.67-11.922z"/></g></g></svg>