<svg height="512" viewBox="0 0 512 512" width="512" xmlns="http://www.w3.org/2000/svg"><g><g><path d="m497 40v24h-480v-24a24.006 24.006 0 0 1 24-24h432a24.006 24.006 0 0 1 24 24z" fill="#57565c"/><path d="m497 64v344a24.006 24.006 0 0 1 -24 24h-432a24.006 24.006 0 0 1 -24-24v-344z" fill="#83d8f4"/><circle cx="409" cy="152" fill="#91cc04" r="64"/><path d="m377.078 376h56" fill="#ffda44"/><path d="m465.078 376h-8" fill="#ffda44"/><g><g fill="#ffda44"><circle cx="96.001" cy="440.382" r="8"/><circle cx="288.334" cy="248.049" r="8"/><circle cx="288.334" cy="440.382" r="8"/><circle cx="96.001" cy="248.049" r="8"/></g><path d="m114.817 387.625a56 56 0 1 0 33.941 33.941" fill="#57565c"/><path d="m269.949 300.375a56 56 0 1 0 -33.941-33.941" fill="#57565c"/><path d="m148.758 266.434a56 56 0 1 0 -33.941 33.941" fill="#57565c"/><path d="m236.008 421.566a56 56 0 1 0 33.941-33.941" fill="#57565c"/><path d="m79.031 457.353a24 24 0 0 0 33.941 0l28.284-28.285a72 72 0 0 1 101.823 0l28.285 28.285a24 24 0 0 0 33.941 0 24 24 0 0 0 0-33.941l-28.285-28.285a72 72 0 0 1 0-101.823l28.285-28.284a24 24 0 0 0 0-33.941 24 24 0 0 0 -33.941 0l-28.285 28.284a72 72 0 0 1 -101.823 0l-28.284-28.284a24 24 0 0 0 -33.941 0 24 24 0 0 0 0 33.941l28.284 28.28a72 72 0 0 1 0 101.823l-28.284 28.289a24 24 0 0 0 0 33.941z" fill="#e0e0e2"/><circle cx="192.168" cy="344.216" fill="#ffda44" r="24"/></g></g><g><path d="m169.54 366.843a32 32 0 1 0 0-45.255 31.9 31.9 0 0 0 .001 45.256zm11.314-33.943a16 16 0 1 1 0 22.628 16.021 16.021 0 0 1 0-22.628z"/><path d="m90.344 434.726a8 8 0 1 0 11.314 0 8 8 0 0 0 -11.314 0z"/><path d="m293.991 253.706a8 8 0 1 0 -11.314 0 8 8 0 0 0 11.314 0z"/><path d="m293.991 446.039a8 8 0 1 0 -11.314 0 8 8 0 0 0 11.314 0z"/><path d="m90.344 242.392a8 8 0 1 0 11.314 0 8 8 0 0 0 -11.314 0z"/><path d="m312 120h-207.922a8 8 0 0 0 -8 8v31a8 8 0 0 0 16 0v-23h199.922a8 8 0 0 0 0-16z"/><path d="m408 80a72 72 0 1 0 72 72 72.081 72.081 0 0 0 -72-72zm0 128a56 56 0 1 1 56-56 56.063 56.063 0 0 1 -56 56z"/><path d="m472 8h-432a32.036 32.036 0 0 0 -32 32v368a32.057 32.057 0 0 0 24.06 31 63.959 63.959 0 1 0 127.9 1h64.04a7.026 7.026 0 0 0 .8-.04v.27a63.966 63.966 0 1 0 127.93-.23h119.27a32.036 32.036 0 0 0 32-32v-368a32.036 32.036 0 0 0 -32-32zm-342.06 466.32a48 48 0 1 1 -31.29-81.84l-25.28 25.27a32.012 32.012 0 0 0 0 45.26 31.828 31.828 0 0 0 22.63 9.37 31.817 31.817 0 0 0 22.63-9.37l25.28-25.28a48.281 48.281 0 0 1 -13.97 36.59zm31.23-50.32a64.236 64.236 0 0 1 61.99 0zm75.68-10.38h-.02a80.137 80.137 0 0 0 -89.43.07 7.76 7.76 0 0 0 -1.32.34 7.976 7.976 0 0 0 -4.46 3.94 78.808 78.808 0 0 0 -6.02 5.44l-28.29 28.29a16 16 0 1 1 -22.62-22.63l28.28-28.29a79.352 79.352 0 0 0 5.45-6.02 7.935 7.935 0 0 0 3.93-4.45 7.3 7.3 0 0 0 .33-1.28 80.013 80.013 0 0 0 -4.82-96.02l-.03-.04h-.01c-1.53-1.83-3.14-3.61-4.85-5.32l-28.28-28.29a15.995 15.995 0 0 1 22.62-22.62l28.29 28.28a79.837 79.837 0 0 0 10.29 8.67l.45.34.05.04c.02.01.05.01.07.02a80.193 80.193 0 0 0 91.17.17c.02 0 .04-.01.06-.01l.02-.01.59-.45c1.58-1.11 3.12-2.27 4.63-3.51l.13-.1.02-.02c0-.01.01-.01.01-.02 1.94-1.6 3.83-3.3 5.65-5.12l28.28-28.28a16 16 0 0 1 22.63 22.62l-28.29 28.29c-1.81 1.81-3.53 3.71-5.15 5.66a.01.01 0 0 1 -.01.01h-.01l-.13.17c-1.22 1.49-2.37 3.03-3.48 4.59l-.44.58v.01c0 .02 0 .03-.01.04a80 80 0 0 0 .17 91.25c.01.02.01.04.02.06l.42.56c.79 1.1 1.6 2.18 2.44 3.24l.25.33.11.15a.01.01 0 0 1 .01.01.037.037 0 0 0 .03.01 79.879 79.879 0 0 0 5.78 6.46l28.29 28.29a16 16 0 0 1 -22.63 22.63l-28.28-28.29c-1.71-1.71-3.49-3.31-5.31-4.83-.01-.01-.01-.01-.01-.02v-.01l-.22-.17q-3-2.475-6.16-4.62zm-163.48-142.94 24.87 24.86a47.987 47.987 0 1 1 45.65-44.86l-25.26-25.26a32 32 0 0 0 -45.26 45.26zm237.59-45.26a32.043 32.043 0 0 0 -45.25 0l-24.85 24.85a48.006 48.006 0 1 1 45.26 45.25l24.84-24.84a32.012 32.012 0 0 0 0-45.26zm11.75 248.9a47.978 47.978 0 0 1 -81.87-36.17l24.87 24.86a32 32 0 0 0 45.25-45.26l-25.25-25.25q1.47-.09 2.94-.09a47.97 47.97 0 0 1 34.06 81.91zm165.29-66.32a16.021 16.021 0 0 1 -16 16h-120a8.813 8.813 0 0 0 -1.36.12v-.01a63.521 63.521 0 0 0 -16.62-28.98 64.353 64.353 0 0 0 -60.34-16.95 64.024 64.024 0 0 1 .25-68.32 63.041 63.041 0 0 0 14.68 1.72 63.969 63.969 0 1 0 -62.11-49.13 64.2 64.2 0 0 1 -68.29.24 64.041 64.041 0 1 0 -62.05 48.89 63.058 63.058 0 0 0 14.3-1.63 64.06 64.06 0 0 1 .25 68.15 64.375 64.375 0 0 0 -59.96 17.03 63.577 63.577 0 0 0 -16.31 27.85 16 16 0 0 1 -10.44-14.98v-336h464zm0-352h-464v-16a16.021 16.021 0 0 1 16-16h432a16.021 16.021 0 0 1 16 16z"/><path d="m48 48h48a8 8 0 0 0 0-16h-48a8 8 0 0 0 0 16z"/><path d="m120 48h8a8 8 0 0 0 0-16h-8a8 8 0 0 0 0 16z"/><path d="m464.078 344h-88a8 8 0 0 0 0 16h88a8 8 0 0 0 0-16z"/><path d="m376.078 384h56a8 8 0 0 0 0-16h-56a8 8 0 0 0 0 16z"/><path d="m464.078 392h-88a8 8 0 0 0 0 16h88a8 8 0 0 0 0-16z"/><path d="m464.078 368h-8a8 8 0 0 0 0 16h8a8 8 0 0 0 0-16z"/><circle cx="408" cy="175" r="8"/><path d="m429.336 151.15a32 32 0 0 0 -42.672 0 8 8 0 0 0 10.671 11.922 16 16 0 0 1 21.33 0 8 8 0 0 0 10.671-11.922z"/><path d="m445.335 133.262a56 56 0 0 0 -74.67 0 8 8 0 0 0 10.67 11.922 40 40 0 0 1 53.33 0 8 8 0 1 0 10.67-11.922z"/></g></g></svg>