<svg height="512" viewBox="0 0 512 512" width="512" xmlns="http://www.w3.org/2000/svg"><g><g><path d="m257.078 400v-360a24.006 24.006 0 0 1 24-24h192a24.006 24.006 0 0 1 24 24v400a24.006 24.006 0 0 1 -24 24h-152.13" fill="#3d9ae2"/><g><g fill="#ffda44"><circle cx="73.001" cy="440.382" r="8"/><circle cx="265.334" cy="248.049" r="8"/><circle cx="265.334" cy="440.382" r="8"/><circle cx="73.001" cy="248.049" r="8"/></g><path d="m91.817 387.625a56 56 0 1 0 33.941 33.941" fill="#57565c"/><path d="m246.949 300.375a56 56 0 1 0 -33.941-33.941" fill="#57565c"/><path d="m125.758 266.434a56 56 0 1 0 -33.941 33.941" fill="#57565c"/><path d="m213.008 421.566a56 56 0 1 0 33.941-33.941" fill="#57565c"/><path d="m56.031 457.353a24 24 0 0 0 33.941 0l28.284-28.285a72 72 0 0 1 101.823 0l28.285 28.285a24 24 0 0 0 33.941 0 24 24 0 0 0 0-33.941l-28.285-28.285a72 72 0 0 1 0-101.823l28.285-28.284a24 24 0 0 0 0-33.941 24 24 0 0 0 -33.941 0l-28.285 28.284a72 72 0 0 1 -101.823 0l-28.284-28.284a24 24 0 0 0 -33.941 0 24 24 0 0 0 0 33.941l28.284 28.28a72 72 0 0 1 0 101.823l-28.284 28.289a24 24 0 0 0 0 33.941z" fill="#e0e0e2"/><circle cx="169.168" cy="344.216" fill="#ffda44" r="24"/></g><g fill="#ffda44"><path d="m345.078 40h64l8-24h-80z"/><path d="m377.078 233h88v32h-88z"/><path d="m377.078 313h56"/><path d="m465.078 313h-8"/><path d="m257.078 312v64"/><g><circle cx="401" cy="160" r="8"/><path d="m385 142.111a24 24 0 0 1 32 0"/><path d="m369 124.222a48 48 0 0 1 64 0"/></g></g><circle cx="401" cy="136" fill="#91cc04" r="64"/></g><g><path d="m190.8 321.59a31.985 31.985 0 1 0 0 45.25 31.775 31.775 0 0 0 0-45.25zm-11.32 33.94a16 16 0 1 1 0-22.63 16.018 16.018 0 0 1 0 22.63z"/><circle cx="72" cy="440.385" r="8.003"/><circle cx="264.335" cy="248.05" r="7.999"/><circle cx="264.335" cy="440.385" r="7.997"/><circle cx="72" cy="248.05" r="8.004"/><path d="m472.08 8h-192a32.036 32.036 0 0 0 -32 32v80h-184a8 8 0 0 0 -8 8v40a8 8 0 0 0 16 0v-32h176v49.84a63.549 63.549 0 0 0 -28.57 16.52 64.416 64.416 0 0 0 -17.01 60.1 64.162 64.162 0 0 1 -68.29.24 64.043 64.043 0 1 0 -62.05 48.88 63.231 63.231 0 0 0 14.32-1.63 64.143 64.143 0 0 1 .24 68.15 63.977 63.977 0 1 0 30.54 107.54 64.417 64.417 0 0 0 17.04-59.97 64.174 64.174 0 0 1 68.12.25 63.617 63.617 0 0 0 -1.62 14.3 64 64 0 0 0 109.22 45.42 63.586 63.586 0 0 0 10.39-13.64h151.67a32.042 32.042 0 0 0 32-32v-400a32.042 32.042 0 0 0 -32-32zm-67.1 16-2.67 8h-52.47l-2.66-8zm-174.16 189.68a48 48 0 1 1 31.3 81.84l24.84-24.84a32 32 0 0 0 -45.25-45.26l-24.85 24.85a48.235 48.235 0 0 1 13.96-36.59zm-192.76 67.88a48 48 0 1 1 81.83-30.88l-25.26-25.26a32 32 0 0 0 -45.26 45.26l24.87 24.86a48.234 48.234 0 0 1 -36.18-13.98zm67.88 192.76a48 48 0 1 1 -31.29-81.84l-25.28 25.27a32 32 0 0 0 45.26 45.26l25.28-25.28a48.23 48.23 0 0 1 -13.97 36.59zm85.38-70.9a80.266 80.266 0 0 0 -67.92 10.27c-1.98 1.32-3.91 2.76-5.79 4.29a80.466 80.466 0 0 0 -6.01 5.43l-28.29 28.29a16 16 0 1 1 -22.62-22.63l28.28-28.29a80.679 80.679 0 0 0 5.43-6.01q2.3-2.79 4.29-5.75a80.057 80.057 0 0 0 .07-89.5 73.761 73.761 0 0 0 -4.93-6.55q-2.3-2.76-4.86-5.32l-28.28-28.29a15.995 15.995 0 0 1 22.62-22.62l28.29 28.28a78.157 78.157 0 0 0 6.48 5.8c1.41 1.15 2.84 2.22 4.31 3.25a80.245 80.245 0 0 0 91.3.18l.02-.01.14-.1q2.64-1.83 5.14-3.91l.07-.05.02-.02c1.95-1.6 3.84-3.32 5.66-5.14l28.28-28.28a16 16 0 0 1 22.63 22.62l-28.29 28.29q-2.73 2.73-5.16 5.67h-.01l-.06.07c-1.39 1.7-2.72 3.44-3.97 5.24l-.02.03v.01a80.1 80.1 0 0 0 .18 91.35c1.02 1.46 2.09 2.89 3.22 4.27v.01a80.666 80.666 0 0 0 5.82 6.48l28.29 28.29a16 16 0 0 1 -22.63 22.63l-28.28-28.29q-2.58-2.565-5.32-4.86a77.077 77.077 0 0 0 -6.57-4.93 79.04 79.04 0 0 0 -21.53-10.2zm56.76-90.5v62.59a64.159 64.159 0 0 1 0-62.59zm50.63 161.4a47.978 47.978 0 0 1 -81.87-36.17l24.87 24.86a32 32 0 0 0 45.25-45.26l-25.25-25.25a47.979 47.979 0 0 1 37 81.82zm189.37-34.32a16.021 16.021 0 0 1 -16 16h-145.27a63.932 63.932 0 0 0 -62.74-79.58h-.01c0-.14.02-.28.02-.42v-64c0-.14-.02-.28-.02-.42h.55a63.962 63.962 0 1 0 -.53-127.92v-47.66h39.92a8 8 0 0 0 0-16h-39.92v-80a16.021 16.021 0 0 1 16-16h50.23l6.18 18.53a7.991 7.991 0 0 0 7.59 5.47h64a8 8 0 0 0 7.59-5.47l6.18-18.53h50.23a16.021 16.021 0 0 1 16 16z"/><path d="m464.08 225h-88a8 8 0 0 0 -8 8v32a8 8 0 0 0 8 8h88a8 8 0 0 0 8-8v-32a8 8 0 0 0 -8-8zm-8 32h-72v-16h72z"/><path d="m464.078 281h-88a8 8 0 0 0 0 16h88a8 8 0 0 0 0-16z"/><path d="m376.078 321h56a8 8 0 0 0 0-16h-56a8 8 0 0 0 0 16z"/><path d="m464.078 329h-88a8 8 0 0 0 0 16h88a8 8 0 0 0 0-16z"/><path d="m464.078 305h-8a8 8 0 0 0 0 16h8a8 8 0 0 0 0-16z"/><circle cx="400" cy="160" r="8"/><path d="m410.665 148.072a8 8 0 0 0 10.671-11.922 32 32 0 0 0 -42.672 0 8 8 0 0 0 10.671 11.922 16 16 0 0 1 21.33 0z"/><path d="m426.665 130.184a8 8 0 1 0 10.67-11.922 56 56 0 0 0 -74.67 0 8 8 0 0 0 10.67 11.922 40 40 0 0 1 53.33 0z"/><path d="m472 136a72 72 0 1 0 -72 72 72.083 72.083 0 0 0 72-72zm-128 0a56 56 0 1 1 56 56 56.062 56.062 0 0 1 -56-56z"/></g></g></svg>