<svg height="512" viewBox="0 0 512 512" width="512" xmlns="http://www.w3.org/2000/svg"><g><g><rect fill="#3d9ae2" height="480" rx="24" width="288" x="113" y="16"/><path d="m112 400 105-24v-16h80v16l103 24v96h-288z" fill="#91cc04"/><path d="m313 48h-112l-9-32h129z" fill="#2d2d30"/><g><path d="m336.54 208.27c-40.45 23.73-159.54 23.73-159.54 23.73v-16a64 64 0 0 1 64-64h32a64.017 64.017 0 0 1 63.52 56.07 1.5 1.5 0 0 0 .02.2z" fill="#ffda44"/><path d="m337 216v80a64 64 0 0 1 -64 64h-32a64 64 0 0 1 -64-64v-64s119.09 0 159.54-23.73a65.628 65.628 0 0 1 .46 7.73z" fill="#ffdaaa"/><g fill="#ffc477"><path d="m217 360c0 22.09 17.91 56 40 56s40-33.91 40-56"/><path d="m169 240h8a0 0 0 0 1 0 0v64a0 0 0 0 1 0 0h-8a16 16 0 0 1 -16-16v-32a16 16 0 0 1 16-16z"/><path d="m353 240h8a0 0 0 0 1 0 0v64a0 0 0 0 1 0 0h-8a16 16 0 0 1 -16-16v-32a16 16 0 0 1 16-16z" transform="matrix(-1 0 0 -1 698 544)"/></g><path d="m337 208c-.15.09-.3.18-.46.27a1.5 1.5 0 0 1 -.02-.2z" fill="#ffda44"/></g><path d="m280 72h96v104h-96z" fill="#1a6fb0"/><circle cx="328" cy="120" fill="#ffdaaa" r="16"/><path d="m328 144a24 24 0 0 1 24 24v8a0 0 0 0 1 0 0h-48a0 0 0 0 1 0 0v-8a24 24 0 0 1 24-24z" fill="#d80027"/></g><g><path d="m376 8h-240a32.036 32.036 0 0 0 -32 32v432a32.036 32.036 0 0 0 32 32h240a32.036 32.036 0 0 0 32-32v-432a32.036 32.036 0 0 0 -32-32zm-66.25 16-4 16h-99.69l-4.5-16zm82.25 448a16.021 16.021 0 0 1 -16 16h-8v-24a8 8 0 0 0 -16 0v24h-192v-24a8 8 0 0 0 -16 0v24h-8a16.021 16.021 0 0 1 -16-16v-63.91a55.827 55.827 0 0 1 11.17-3.91l77.85-18.32a48 48 0 0 0 93.96 0l77.85 18.32a55.827 55.827 0 0 1 11.17 3.91zm-112-288h37.97a55.723 55.723 0 0 1 8.71 19.88c-16.76 7.84-46.49 13.75-86.64 17.17-23.53 2.01-44.93 2.65-56.04 2.85v-7.9a56.062 56.062 0 0 1 56-56h32v16a8 8 0 0 0 8 8zm48-32a16.021 16.021 0 0 1 16 16h-32a16.021 16.021 0 0 1 16-16zm-8-32a8 8 0 1 1 8 8 8.011 8.011 0 0 1 -8-8zm22.2 19.33a24 24 0 1 0 -28.4 0 32.041 32.041 0 0 0 -17.8 28.67h-8v-88h80v88h-8a32.041 32.041 0 0 0 -17.8-28.67zm-14.2 81.35v75.32a56.062 56.062 0 0 1 -56 56h-32a56.062 56.062 0 0 1 -56-56v-56.08c25.24-.42 102.81-3.04 144-19.24zm-40 145.51v9.81a32 32 0 0 1 -64 0v-9.81a72.124 72.124 0 0 0 16 1.81h32a72.124 72.124 0 0 0 16-1.81zm104 24.61a74.332 74.332 0 0 0 -7.51-2.2l-80.49-18.94v-9.19a72.261 72.261 0 0 0 38.19-48.47h1.81a24.032 24.032 0 0 0 24-24v-32a24.032 24.032 0 0 0 -24-24v-16a72.868 72.868 0 0 0 -.52-8.69v-.02c-.01-.05-.01-.1-.02-.14a71.652 71.652 0 0 0 -6.95-23.15h39.49a8 8 0 0 0 8-8v-104a8 8 0 0 0 -8-8h-96a8 8 0 0 0 -8 8v72h-32a72.083 72.083 0 0 0 -72 72v16a24.032 24.032 0 0 0 -24 24v32a24.032 24.032 0 0 0 24 24h1.81a72.261 72.261 0 0 0 38.19 48.47v9.19l-80.49 18.94a74.332 74.332 0 0 0 -7.51 2.2v-350.8a16.021 16.021 0 0 1 16-16h48.94l7.36 26.17a8 8 0 0 0 7.7 5.83h112a8 8 0 0 0 7.76-6.06l6.49-25.94h49.75a16.021 16.021 0 0 1 16 16zm-48-94.8v-48a8.011 8.011 0 0 1 8 8v32a8.011 8.011 0 0 1 -8 8zm-176-48v48a8.011 8.011 0 0 1 -8-8v-32a8.011 8.011 0 0 1 8-8z"/><path d="m224 320a8 8 0 0 0 8 8h48a8 8 0 0 0 0-16h-48a8 8 0 0 0 -8 8z"/><circle cx="224" cy="264" r="8"/><circle cx="288" cy="264" r="8"/></g></g></svg>