<svg height="512" viewBox="0 0 512 512" width="512" xmlns="http://www.w3.org/2000/svg"><g><g><path d="m497 40v24h-480v-24a24.006 24.006 0 0 1 24-24h432a24.006 24.006 0 0 1 24 24z" fill="#57565c"/><path d="m497 64v344a24.006 24.006 0 0 1 -24 24h-432a24.006 24.006 0 0 1 -24-24v-344z" fill="#83d8f4"/><g><path d="m241 104h208v128h-208z" fill="#e0e0e2"/><path d="m241 256h208v216h-208z" fill="#e0e0e2"/><g fill="#57565c"><path d="m249 232h192v24h-192z"/><path d="m249 472h192v24h-192z"/></g></g><path d="m73 352h112v48h-112z" fill="#ffda44"/></g><g><path d="m424 208a8 8 0 0 0 8-8v-32a8 8 0 0 0 -16 0v32a8 8 0 0 0 8 8z"/><path d="m424 280a8 8 0 0 0 -8 8v32a8 8 0 0 0 16 0v-32a8 8 0 0 0 -8-8z"/><path d="m472 8h-432a32.036 32.036 0 0 0 -32 32v368a32.036 32.036 0 0 0 32 32h192v32a8 8 0 0 0 8 8v16a8 8 0 0 0 8 8h192a8 8 0 0 0 8-8v-16a8 8 0 0 0 8-8v-32h16a32.036 32.036 0 0 0 32-32v-368a32.036 32.036 0 0 0 -32-32zm-40 480h-176v-8h176zm8-24h-192v-200h192zm-184-216v-8h176v8zm184-24h-192v-112h192zm48 184a16.021 16.021 0 0 1 -16 16h-16v-168a8 8 0 0 0 -8-8v-8a8 8 0 0 0 8-8v-128a8 8 0 0 0 -8-8h-208a8 8 0 0 0 -8 8v128a8 8 0 0 0 8 8v8a8 8 0 0 0 -8 8v168h-192a16.021 16.021 0 0 1 -16-16v-336h464zm0-352h-464v-16a16.021 16.021 0 0 1 16-16h432a16.021 16.021 0 0 1 16 16z"/><path d="m48 48h48a8 8 0 0 0 0-16h-48a8 8 0 0 0 0 16z"/><path d="m120 48h8a8 8 0 0 0 0-16h-8a8 8 0 0 0 0 16z"/><path d="m193.5 281.87-3.2.86 4.05 2.34a8 8 0 0 1 -8 13.86l-4.05-2.35.85 3.21a7.99 7.99 0 0 1 -5.65 9.79 7.887 7.887 0 0 1 -2.08.28 8.008 8.008 0 0 1 -7.72-5.93l-5-18.66-26.7-15.41v30.83l13.66 13.65a8 8 0 0 1 -11.32 11.32l-2.34-2.35v4.69a8 8 0 0 1 -16 0v-4.69l-2.34 2.35a8 8 0 0 1 -11.32-11.32l13.66-13.65v-30.83l-26.7 15.41-5 18.66a8.008 8.008 0 0 1 -7.72 5.93 7.887 7.887 0 0 1 -2.08-.28 7.99 7.99 0 0 1 -5.65-9.79l.85-3.21-4.05 2.35a8 8 0 1 1 -8-13.86l4.05-2.34-3.2-.86a8 8 0 0 1 4.15-15.45l18.65 5 26.7-15.42-26.7-15.42-18.65 5a8 8 0 1 1 -4.15-15.45l3.2-.86-4.05-2.34a8 8 0 1 1 8-13.86l4.05 2.35-.85-3.21a8 8 0 0 1 15.45-4.14l5 18.66 26.7 15.41v-30.83l-13.66-13.65a8 8 0 0 1 11.32-11.32l2.34 2.35v-4.69a8 8 0 0 1 16 0v4.69l2.34-2.35a8 8 0 0 1 11.32 11.32l-13.66 13.65v30.83l26.7-15.41 5-18.66a8 8 0 0 1 15.45 4.14l-.85 3.21 4.05-2.35a8 8 0 0 1 8 13.86l-4.05 2.34 3.2.86a8 8 0 1 1 -4.15 15.45l-18.65-5-26.7 15.42 26.7 15.42 18.65-5a8 8 0 0 1 4.15 15.45z"/><path d="m80 112h104a8 8 0 0 0 0-16h-104a8 8 0 0 0 0 16z"/><path d="m80 136h72a8 8 0 0 0 0-16h-72a8 8 0 0 0 0 16z"/><path d="m184 120h-8a8 8 0 0 0 0 16h8a8 8 0 0 0 0-16z"/><path d="m80 160h104a8 8 0 0 0 0-16h-104a8 8 0 0 0 0 16z"/><path d="m184 344h-112a8 8 0 0 0 -8 8v48a8 8 0 0 0 8 8h112a8 8 0 0 0 8-8v-48a8 8 0 0 0 -8-8zm-8 48h-96v-32h96z"/></g></g></svg>