<svg height="512" viewBox="0 0 512 512" width="512" xmlns="http://www.w3.org/2000/svg"><g><g><g><path d="m17 48h232v152h-232z" fill="#e0e0e2"/><path d="m17 232h232v232h-232z" fill="#e0e0e2"/><g fill="#57565c"><path d="m25 200h216v32h-216z"/><path d="m25 464h216v32h-216z"/></g></g><rect fill="#3d9ae2" height="240" rx="16" width="144" x="353" y="256"/><path d="m449 280h-48l-8-24h64z" fill="#57565c"/><g fill="#91cc04"><circle cx="433" cy="80" r="64"/><circle cx="425" cy="376" r="32"/></g></g><g><path d="m256 200v-152a8 8 0 0 0 -8-8h-232a8 8 0 0 0 -8 8v152a8 8 0 0 0 8 8v16a8 8 0 0 0 -8 8v232a8 8 0 0 0 8 8v24a8 8 0 0 0 8 8h216a8 8 0 0 0 8-8v-24a8 8 0 0 0 8-8v-232a8 8 0 0 0 -8-8v-16a8 8 0 0 0 8-8zm-24 288h-200v-16h200zm8-32h-216v-216h216zm-208-232v-16h200v16zm208-32h-216v-136h216z"/><path d="m224 128a8 8 0 0 0 -8 8v32a8 8 0 0 0 16 0v-32a8 8 0 0 0 -8-8z"/><path d="m224 304a8 8 0 0 0 8-8v-32a8 8 0 0 0 -16 0v32a8 8 0 0 0 8 8z"/><path d="m408 464h-32a8 8 0 0 0 0 16h32a8 8 0 0 0 0-16z"/><path d="m440 464h-8a8 8 0 0 0 0 16h8a8 8 0 0 0 0-16z"/><path d="m432 8a72 72 0 1 0 72 72 72.083 72.083 0 0 0 -72-72zm0 128a56 56 0 1 1 56-56 56.062 56.062 0 0 1 -56 56z"/><path d="m480 248h-112a24.032 24.032 0 0 0 -24 24v208a24.032 24.032 0 0 0 24 24h112a24.032 24.032 0 0 0 24-24v-208a24.032 24.032 0 0 0 -24-24zm-35.1 16-2.67 8h-36.46l-2.67-8zm43.1 216a8.011 8.011 0 0 1 -8 8h-112a8.011 8.011 0 0 1 -8-8v-208a8.011 8.011 0 0 1 8-8h18.23l6.18 18.53a8 8 0 0 0 7.59 5.47h48a8 8 0 0 0 7.59-5.47l6.18-18.53h18.23a8.011 8.011 0 0 1 8 8z"/><path d="m416 232v-64a8 8 0 0 1 16 0v64a8 8 0 0 1 -16 0z"/><path d="m352 72a8 8 0 0 0 -8-8h-72a8 8 0 0 0 0 16h72a8 8 0 0 0 8-8z"/><path d="m432 336.805v-.805a8 8 0 0 0 -16 0v.805a40 40 0 1 0 16 0zm-8 63.195a24 24 0 0 1 -8-46.624v14.624a8 8 0 0 0 16 0v-14.624a24 24 0 0 1 -8 46.624z"/><circle cx="432" cy="104" r="8"/><path d="m453.336 80.15a32 32 0 0 0 -42.672 0 8 8 0 0 0 10.671 11.922 16 16 0 0 1 21.33 0 8 8 0 0 0 10.671-11.922z"/><path d="m405.335 74.183a40 40 0 0 1 53.33 0 8 8 0 1 0 10.67-11.922 56 56 0 0 0 -74.67 0 8 8 0 1 0 10.67 11.922z"/></g></g></svg>