<svg height="512" viewBox="0 0 512 512" width="512" xmlns="http://www.w3.org/2000/svg"><g><g><path d="m497 40v24h-480v-24a24.006 24.006 0 0 1 24-24h432a24.006 24.006 0 0 1 24 24z" fill="#57565c"/><path d="m497 64v344a24.006 24.006 0 0 1 -24 24h-432a24.006 24.006 0 0 1 -24-24v-344z" fill="#83d8f4"/><circle cx="97" cy="144" fill="#91cc04" r="48"/><path d="m377 96h32v24h-32z" fill="#ffda44"/><path d="m433 96h32v24h-32z" fill="#ffda44"/><path d="m129 368a32 32 0 1 1 -48-27.72v-60.28a16 16 0 1 1 32 0v60.28a32 32 0 0 1 16 27.72z" fill="#ff9811"/><circle cx="97" cy="368" fill="#ffda44" r="8"/><g><path d="m400 448v24a24.006 24.006 0 0 1 -24 24h-144a24.006 24.006 0 0 1 -24-24v-24z" fill="#57565c"/><path d="m400 256v192h-192v-144l-24-48z" fill="#e0e0e2"/><path d="m272 304h64a0 0 0 0 1 0 0v120a24 24 0 0 1 -24 24h-16a24 24 0 0 1 -24-24v-120a0 0 0 0 1 0 0z" fill="#3d9ae2" transform="matrix(-1 0 0 -1 608 752)"/><g fill="#ffda44"><path d="m304 328v112"/><path d="m304 336h-8"/><path d="m304 376h-8"/><path d="m304 400h-8"/><path d="m304 424h-8"/></g><path d="m240 232h128v24h-128z" fill="#acabb1" transform="matrix(-1 0 0 -1 608 488)"/><path d="m272 200h64a0 0 0 0 1 0 0v8a24 24 0 0 1 -24 24h-16a24 24 0 0 1 -24-24v-8a0 0 0 0 1 0 0z" fill="#57565c" transform="matrix(-1 0 0 -1 608 432)"/><path d="m440 324v44a12 12 0 0 1 -12 12l-28-4v24l40 4a24.006 24.006 0 0 0 24-24v-68a24.006 24.006 0 0 0 -24-24h-40v24h28a12 12 0 0 1 12 12z" fill="#acabb1"/></g></g><g><path d="m472 8h-432a32.042 32.042 0 0 0 -32 32v368a32.042 32.042 0 0 0 32 32h160v32a32.042 32.042 0 0 0 32 32h144a32.042 32.042 0 0 0 32-32v-32h64a32.042 32.042 0 0 0 32-32v-368a32.042 32.042 0 0 0 -32-32zm-80 464a16.021 16.021 0 0 1 -16 16h-144a16.021 16.021 0 0 1 -16-16v-16h176zm-88-152a8 8 0 0 0 -8 8 8 8 0 0 0 0 16v8a8 8 0 0 0 0 16v8a8 8 0 0 0 0 16v8a8 8 0 0 0 0 16v24h-16v-112a16.021 16.021 0 0 1 16-16h16a16.021 16.021 0 0 1 16 16v112h-16v-112a8 8 0 0 0 -8-8zm88 120h-48v-112a32.042 32.042 0 0 0 -32-32h-16a32.042 32.042 0 0 0 -32 32v112h-48v-136a8.081 8.081 0 0 0 -.84-3.58l-18.22-36.42h195.06zm-32-208v16h-112v-16zm-80-16a16.021 16.021 0 0 1 16-16h16a16.021 16.021 0 0 1 16 16zm208 192a16.021 16.021 0 0 1 -16 16h-64v-16h32a32.042 32.042 0 0 0 32-32v-64a32.042 32.042 0 0 0 -32-32h-32v-24a8 8 0 0 0 -8-8h-24v-24a8 8 0 0 0 -8-8h-24a32.042 32.042 0 0 0 -32-32h-16a32.042 32.042 0 0 0 -32 32h-24a8 8 0 0 0 -8 8v24h-48a8 8 0 0 0 -7.16 11.58l23.16 46.31v118.11h-160a16.021 16.021 0 0 1 -16-16v-336h464zm-60-24a20.02 20.02 0 0 0 20-20v-40a20.02 20.02 0 0 0 -20-20h-20v-8h32a16.021 16.021 0 0 1 16 16v64a16.021 16.021 0 0 1 -16 16h-32v-8zm-20-16v-48h20a4 4 0 0 1 4 4v40a4 4 0 0 1 -4 4zm80-312h-464v-16a16.021 16.021 0 0 1 16-16h432a16.021 16.021 0 0 1 16 16z"/><path d="m48 48h48a8 8 0 0 0 0-16h-48a8 8 0 0 0 0 16z"/><path d="m120 48h8a8 8 0 0 0 0-16h-8a8 8 0 0 0 0 16z"/><path d="m96 88a56 56 0 1 0 56 56 56.063 56.063 0 0 0 -56-56zm0 96a40 40 0 1 1 40-40 40.045 40.045 0 0 1 -40 40z"/><path d="m112 136h-8v-16a8 8 0 0 0 -16 0v24a8 8 0 0 0 8 8h16a8 8 0 0 0 0-16z"/><path d="m304 120h-128a8 8 0 0 0 0 16h120v32a8 8 0 0 0 16 0v-40a8 8 0 0 0 -8-8z"/><path d="m376 128h32a8 8 0 0 0 8-8v-24a8 8 0 0 0 -8-8h-32a8 8 0 0 0 -8 8v24a8 8 0 0 0 8 8zm8-24h16v8h-16z"/><path d="m464 88h-32a8 8 0 0 0 -8 8v24a8 8 0 0 0 8 8h32a8 8 0 0 0 8-8v-24a8 8 0 0 0 -8-8zm-8 24h-16v-8h16z"/><path d="m464 136h-88a8 8 0 0 0 0 16h88a8 8 0 0 0 0-16z"/><path d="m464 160h-88a8 8 0 0 0 0 16h88a8 8 0 0 0 0-16z"/><path d="m120 336v-56a24 24 0 0 0 -48 0v56a40 40 0 1 0 48 0zm-24 56a24 24 0 0 1 -11.994-44.8 8 8 0 0 0 3.994-6.92v-60.28a8 8 0 1 1 16 0v60.28a8 8 0 0 0 3.994 6.925 24 24 0 0 1 -11.994 44.795z"/><circle cx="96" cy="368" r="8"/><path d="m144 272h-8a8 8 0 0 0 0 16h8a8 8 0 0 0 0-16z"/><path d="m144 296h-8a8 8 0 0 0 0 16h8a8 8 0 0 0 0-16z"/><path d="m144 320h-8a8 8 0 0 0 0 16h8a8 8 0 0 0 0-16z"/></g></g></svg>