<svg height="512" viewBox="0 0 512 512" width="512" xmlns="http://www.w3.org/2000/svg"><g><g><g><rect fill="#3d9ae2" height="272" rx="16" width="160" x="17" y="16"/><path d="m129 16-8 24h-48l-8-24z" fill="#57565c"/></g><path d="m433 448v24a24.006 24.006 0 0 1 -24 24h-144a24.006 24.006 0 0 1 -24-24v-24z" fill="#57565c"/><path d="m433 272v176h-192v-128l-24-48z" fill="#e0e0e2"/><path d="m305 320h64a0 0 0 0 1 0 0v104a24 24 0 0 1 -24 24h-16a24 24 0 0 1 -24-24v-104a0 0 0 0 1 0 0z" fill="#3d9ae2" transform="matrix(-1 0 0 -1 674 768)"/><g fill="#ffda44"><path d="m337 344v96"/><path d="m337 352h-8"/><path d="m337 376h-8"/><path d="m337 400h-8"/><path d="m337 424h-8"/></g><path d="m273 248h128v24h-128z" fill="#acabb1" transform="matrix(-1 0 0 -1 674 520)"/><path d="m305 216h64a0 0 0 0 1 0 0v8a24 24 0 0 1 -24 24h-16a24 24 0 0 1 -24-24v-8a0 0 0 0 1 0 0z" fill="#57565c" transform="matrix(-1 0 0 -1 674 464)"/><path d="m473 340v40a12 12 0 0 1 -12 12h-28v24h40a24.006 24.006 0 0 0 24-24v-64a24.006 24.006 0 0 0 -24-24h-40v24h28a12 12 0 0 1 12 12z" fill="#acabb1"/><path d="m121 184a32 32 0 1 1 -48-27.72v-60.28a16 16 0 1 1 32 0v60.28a32 32 0 0 1 16 27.72z" fill="#ff9811"/><circle cx="337" cy="80" fill="#91cc04" r="64"/></g><g><path d="m472 296h-32v-24a8 8 0 0 0 -8-8h-24v-16a8 8 0 0 0 -8-8h-24a32.042 32.042 0 0 0 -32-32h-16a32.042 32.042 0 0 0 -32 32h-24a8 8 0 0 0 -8 8v16h-48a8 8 0 0 0 -7.16 11.58l23.16 46.31v150.11a32.042 32.042 0 0 0 32 32h144a32.042 32.042 0 0 0 32-32v-48h32a32.042 32.042 0 0 0 32-32v-64a32.042 32.042 0 0 0 -32-32zm-144-72h16a16.021 16.021 0 0 1 16 16h-48a16.021 16.021 0 0 1 16-16zm-48 32h112v8h-112zm144 216a16.021 16.021 0 0 1 -16 16h-144a16.021 16.021 0 0 1 -16-16v-16h176zm-88-136a8 8 0 0 0 -8 8 8 8 0 0 0 0 16v8a8 8 0 0 0 0 16v8a8 8 0 0 0 0 16v8a8 8 0 0 0 0 16v8h-16v-96a16.021 16.021 0 0 1 16-16h16a16.021 16.021 0 0 1 16 16v96h-16v-96a8 8 0 0 0 -8-8zm88 104h-48v-96a32.042 32.042 0 0 0 -32-32h-16a32.042 32.042 0 0 0 -32 32v96h-48v-120a8.081 8.081 0 0 0 -.84-3.58l-18.22-36.42h195.06zm16-104h20a4 4 0 0 1 4 4v40a4 4 0 0 1 -4 4h-20zm48 56a16.021 16.021 0 0 1 -16 16h-32v-8h20a20.02 20.02 0 0 0 20-20v-40a20.02 20.02 0 0 0 -20-20h-20v-8h32a16.021 16.021 0 0 1 16 16z"/><path d="m112 152v-56a24 24 0 0 0 -48 0v56a40 40 0 1 0 48 0zm-24 56a24 24 0 0 1 -11.994-44.795 8 8 0 0 0 3.994-6.925v-60.28a8 8 0 1 1 16 0v60.28a8 8 0 0 0 3.994 6.925 24 24 0 0 1 -11.994 44.795z"/><circle cx="88" cy="184" r="8"/><path d="m136 88h-8a8 8 0 0 0 0 16h8a8 8 0 0 0 0-16z"/><path d="m136 112h-8a8 8 0 0 0 0 16h8a8 8 0 0 0 0-16z"/><path d="m136 136h-8a8 8 0 0 0 0 16h8a8 8 0 0 0 0-16z"/><path d="m160 8h-128a24.032 24.032 0 0 0 -24 24v240a24.032 24.032 0 0 0 24 24h128a24.032 24.032 0 0 0 24-24v-240a24.032 24.032 0 0 0 -24-24zm-43.1 16-2.67 8h-36.46l-2.67-8zm51.1 248a8.011 8.011 0 0 1 -8 8h-128a8.011 8.011 0 0 1 -8-8v-240a8.011 8.011 0 0 1 8-8h26.23l6.18 18.53a8 8 0 0 0 7.59 5.47h48a8 8 0 0 0 7.59-5.47l6.18-18.53h26.23a8.011 8.011 0 0 1 8 8z"/><path d="m72 256h-32a8 8 0 0 0 0 16h32a8 8 0 0 0 0-16z"/><path d="m104 256h-8a8 8 0 0 0 0 16h8a8 8 0 0 0 0-16z"/><path d="m336 8a72 72 0 1 0 72 72 72.083 72.083 0 0 0 -72-72zm0 128a56 56 0 1 1 56-56 56.062 56.062 0 0 1 -56 56z"/><path d="m248 80a8 8 0 0 0 -8-8h-32a8 8 0 0 0 0 16h32a8 8 0 0 0 8-8z"/><path d="m328 168v24a8 8 0 0 0 16 0v-24a8 8 0 0 0 -16 0z"/><circle cx="336" cy="104" r="8"/><path d="m357.336 80.15a32 32 0 0 0 -42.672 0 8 8 0 1 0 10.672 11.922 16 16 0 0 1 21.328 0 8 8 0 0 0 10.672-11.922z"/><path d="m309.335 74.184a40 40 0 0 1 53.33 0 8 8 0 0 0 10.67-11.922 56 56 0 0 0 -74.67 0 8 8 0 1 0 10.67 11.922z"/></g></g></svg>