<svg height="512" viewBox="0 0 512 512" width="512" xmlns="http://www.w3.org/2000/svg"><g><g><path d="m465 232v160a16 16 0 0 1 -16 16h-232l-24-152v-24a16 16 0 0 1 16-16h240a16 16 0 0 1 16 16z" fill="#2d2d30"/><g><rect fill="#3d9ae2" height="240" rx="16" width="144" x="73" y="256"/><path d="m169 280h-48l-8-24h64z" fill="#57565c"/></g><path d="m360.92 277.714a32 32 0 0 1 -15.92 30.006v52.28a8 8 0 0 1 -8 8h-16a8 8 0 0 1 -8-8v-52.28a32 32 0 1 1 47.92-30.006z" fill="#ffda44"/><path d="m433 120v96h-32v-96a72 72 0 0 0 -144 0v96h-32v-96a104 104 0 0 1 208 0z" fill="#e0e0e2"/><circle cx="105.111" cy="135.109" fill="#91cc04" r="56"/><circle cx="145" cy="352" fill="#ffda44" r="16"/></g><g><path d="m128 464h-32a8 8 0 0 0 0 16h32a8 8 0 0 0 0-16z"/><path d="m160 464h-8a8 8 0 0 0 0 16h8a8 8 0 0 0 0-16z"/><path d="m448 208h-8v-88a112 112 0 0 0 -224 0v88h-8a24.032 24.032 0 0 0 -24 24v16h-96a24.032 24.032 0 0 0 -24 24v208a24.032 24.032 0 0 0 24 24h112a24.032 24.032 0 0 0 24-24v-64h224a24.032 24.032 0 0 0 24-24v-160a24.032 24.032 0 0 0 -24-24zm-216-88a96 96 0 0 1 192 0v88h-16v-88a80 80 0 0 0 -160 0v88h-16zm160 0v88h-128v-88a64 64 0 0 1 128 0zm-227.1 144-2.67 8h-36.46l-2.67-8zm43.1 216a8.011 8.011 0 0 1 -8 8h-112a8.011 8.011 0 0 1 -8-8v-208a8.011 8.011 0 0 1 8-8h18.23l6.18 18.53a8 8 0 0 0 7.59 5.47h48a8 8 0 0 0 7.59-5.47l6.18-18.53h18.23a8.011 8.011 0 0 1 8 8zm248-88a8.011 8.011 0 0 1 -8 8h-224v-128a24.032 24.032 0 0 0 -24-24v-16a8.011 8.011 0 0 1 8-8h240a8.011 8.011 0 0 1 8 8z"/><path d="m330.771 240.094a39.667 39.667 0 0 0 -30.071 10.676 40 40 0 0 0 3.3 61.23v48a16.019 16.019 0 0 0 16 16h16a16.019 16.019 0 0 0 16-16v-47.988a40.009 40.009 0 0 0 -21.229-71.918zm9.223 60.7a8 8 0 0 0 -3.994 6.926v52.28h-16v-52.28a8 8 0 0 0 -3.994-6.926 24.1 24.1 0 0 1 -12.006-20.794 24 24 0 0 1 23.991-24c.563 0 1.13.019 1.7.057a24.024 24.024 0 0 1 22.251 22.212 23.913 23.913 0 0 1 -11.948 22.525z"/><circle cx="440" cy="240" r="8"/><circle cx="440" cy="384" r="8"/><path d="m328 424a8 8 0 0 0 -8 8v16h-80a8 8 0 0 0 0 16h88a8 8 0 0 0 8-8v-24a8 8 0 0 0 -8-8z"/><path d="m104.112 199.108a64 64 0 0 0 .037-128h-.039a64 64 0 0 0 -.038 128zm-48-64.028a48.054 48.054 0 0 1 48-47.972h.03a48 48 0 0 1 -.028 96h-.03a48 48 0 0 1 -47.973-48.028z"/><circle cx="104" cy="160" r="8"/><path d="m114.665 148.072a8 8 0 1 0 10.67-11.922 32 32 0 0 0 -42.67 0 8 8 0 1 0 10.67 11.922 16 16 0 0 1 21.33 0z"/><path d="m130.665 130.183a8 8 0 1 0 10.67-11.922 56 56 0 0 0 -74.67 0 8 8 0 1 0 10.67 11.922 40 40 0 0 1 53.33 0z"/><path d="m96 216v16a8 8 0 0 0 16 0v-16a8 8 0 0 0 -16 0z"/><path d="m184 144h16a8 8 0 0 0 0-16h-16a8 8 0 0 0 0 16z"/><path d="m144 328a24 24 0 0 0 -8 46.624v17.376a8 8 0 0 0 16 0v-17.376a24 24 0 0 0 -8-46.624zm0 32a8 8 0 1 1 8-8 8.009 8.009 0 0 1 -8 8z"/></g></g></svg>