<svg height="512" viewBox="0 0 512 512" width="512" xmlns="http://www.w3.org/2000/svg"><g><g><path d="m201 192h-24v-80h-32l112-96 112 96h-32v80h-24" fill="#ffda44"/><g><path d="m16 432h480a0 0 0 0 1 0 0v32a32 32 0 0 1 -32 32h-416a32 32 0 0 1 -32-32v-32a0 0 0 0 1 0 0z" fill="#e0e0e2"/><path d="m297 464h-80l-8-32h96z" fill="#2d2d30"/><path d="m312.39 192h112.61a32 32 0 0 1 32 32v208h-400v-208a32 32 0 0 1 32-32h112.61" fill="#57565c"/><path d="m345.61 216h87.39v192h-352v-192h87.39" fill="#3d9ae2"/></g><circle cx="256" cy="272" fill="#91cc04" r="96"/><circle cx="257" cy="311" fill="#ffda44" r="16"/></g><g><path d="m496 424h-32v-200a40.04 40.04 0 0 0 -40-40h-80v-64h24a8 8 0 0 0 5.21-14.07l-112-96a8.005 8.005 0 0 0 -10.42 0l-112 96a8 8 0 0 0 5.21 14.07h24v64h-80a40.04 40.04 0 0 0 -40 40v200h-32a8 8 0 0 0 -8 8v32a40.04 40.04 0 0 0 40 40h416a40.04 40.04 0 0 0 40-40v-32a8 8 0 0 0 -8-8zm-330.37-320 90.37-77.46 90.37 77.46h-10.37a8 8 0 0 0 -8 8v72h-16.64a103.773 103.773 0 0 0 -110.72 0h-16.64v-72a8 8 0 0 0 -8-8zm182.61 120h75.76v176h-336v-176h75.76a104 104 0 1 0 184.48 0zm-92.24 136a88 88 0 1 1 88-88 88.1 88.1 0 0 1 -88 88zm-192-136a24.032 24.032 0 0 1 24-24h93.03a105.614 105.614 0 0 0 -6.95 8h-94.08a8 8 0 0 0 -8 8v192a8 8 0 0 0 8 8h352a8 8 0 0 0 8-8v-192a8 8 0 0 0 -8-8h-94.08a105.614 105.614 0 0 0 -6.95-8h93.03a24.032 24.032 0 0 1 24 24v200h-384zm229.75 216-4 16h-67.5l-4-16zm194.25 24a24.032 24.032 0 0 1 -24 24h-416a24.032 24.032 0 0 1 -24-24v-24h177.75l6.49 25.94a8 8 0 0 0 7.76 6.06h80a8 8 0 0 0 7.76-6.06l6.49-25.94h177.75z"/><path d="m88 448h-48a8 8 0 0 0 0 16h48a8 8 0 0 0 0-16z"/><path d="m120 448h-8a8 8 0 0 0 0 16h8a8 8 0 0 0 0-16z"/><path d="m256 288a24 24 0 1 0 24 24 24.028 24.028 0 0 0 -24-24zm0 32a8 8 0 1 1 8-8 8.009 8.009 0 0 1 -8 8z"/><path d="m256 256a55.606 55.606 0 0 0 -39.6 16.4 8 8 0 1 0 11.321 11.309 39.994 39.994 0 0 1 56.56 0 8 8 0 1 0 11.319-11.309 55.606 55.606 0 0 0 -39.6-16.4z"/><path d="m193.775 249.771a8 8 0 0 0 11.309 11.318 72.009 72.009 0 0 1 101.832 0 8 8 0 0 0 11.309-11.318 88.008 88.008 0 0 0 -124.45 0z"/></g></g></svg>