<svg height="512" viewBox="0 0 512 512" width="512" xmlns="http://www.w3.org/2000/svg"><g><g><path d="m497 40v24h-480v-24a24.006 24.006 0 0 1 24-24h432a24.006 24.006 0 0 1 24 24z" fill="#57565c"/><path d="m497 64v344a24.006 24.006 0 0 1 -24 24h-432a24.006 24.006 0 0 1 -24-24v-344z" fill="#83d8f4"/><path d="m433 304.7a87.992 87.992 0 0 1 -47.3 77.349 16.076 16.076 0 0 0 -8.7 14.228v19.723h-64v-19.726a15.938 15.938 0 0 0 -8.546-14.152 88.013 88.013 0 0 1 43.973-166.057c47.293 1.796 84.937 41.305 84.573 88.635z" fill="#ffda44"/><path d="m297 416h96v24h-96z" fill="#2d2d30"/><path d="m313 440h64a0 0 0 0 1 0 0v40a16 16 0 0 1 -16 16h-32a16 16 0 0 1 -16-16v-40a0 0 0 0 1 0 0z" fill="#57565c"/><g fill="#ffda44"><path d="m265.804 383.196-11.314 11.314"/><path d="m435.51 213.49-11.314 11.314"/><path d="m265.804 224.804-11.314-11.314"/><path d="m435.51 394.51-11.314-11.314"/></g><circle cx="97" cy="144" fill="#91cc04" r="48"/><path d="m49 224h128v24h-128z" fill="#ffda44"/></g><g><path d="m472 8h-432a32.036 32.036 0 0 0 -32 32v368a32.036 32.036 0 0 0 32 32h248a8 8 0 0 0 8 8h8v32a24.032 24.032 0 0 0 24 24h32a24.032 24.032 0 0 0 24-24v-32h8a8 8 0 0 0 8-8h72a32.036 32.036 0 0 0 32-32v-368a32.036 32.036 0 0 0 -32-32zm-104 472a8.011 8.011 0 0 1 -8 8h-32a8.011 8.011 0 0 1 -8-8v-32h48zm16-48h-80v-8h80zm-76.86-56.98a80 80 0 1 1 73.85-.07 24.034 24.034 0 0 0 -12.99 21.32v11.73h-48v-11.73a23.866 23.866 0 0 0 -12.86-21.25zm180.86 32.98a16.021 16.021 0 0 1 -16 16h-72v-8a8 8 0 0 0 -8-8h-8v-11.73a8.087 8.087 0 0 1 4.4-7.14 95.994 95.994 0 1 0 -88.64.09 7.89 7.89 0 0 1 4.24 7.05v11.73h-8a8 8 0 0 0 -8 8v8h-248a16.021 16.021 0 0 1 -16-16v-336h464zm0-352h-464v-16a16.021 16.021 0 0 1 16-16h432a16.021 16.021 0 0 1 16 16z"/><path d="m48 48h48a8 8 0 0 0 0-16h-48a8 8 0 0 0 0 16z"/><path d="m120 48h8a8 8 0 0 0 0-16h-8a8 8 0 0 0 0 16z"/><path d="m328 352v-72a8 8 0 0 0 -16 0v72a8 8 0 0 0 16 0z"/><path d="m368 360a8 8 0 0 0 8-8v-72a8 8 0 0 0 -16 0v72a8 8 0 0 0 8 8z"/><path d="m344 328a8 8 0 0 0 8-8v-16a8 8 0 0 0 -16 0v16a8 8 0 0 0 8 8z"/><path d="m232 296h-16a8 8 0 0 0 0 16h16a8 8 0 0 0 0-16z"/><path d="m472 296h-16a8 8 0 0 0 0 16h16a8 8 0 0 0 0-16z"/><path d="m247.833 400.166a8 8 0 0 0 11.314 0l11.314-11.313a8 8 0 0 0 -11.314-11.315l-11.314 11.314a8 8 0 0 0 0 11.314z"/><path d="m428.853 207.833-11.314 11.313a8 8 0 0 0 11.314 11.315l11.314-11.314a8 8 0 0 0 -11.314-11.314z"/><path d="m259.147 207.833a8 8 0 0 0 -11.314 11.314l11.314 11.314a8 8 0 0 0 11.314-11.315z"/><path d="m428.853 377.539a8 8 0 0 0 -11.314 11.315l11.314 11.313a8 8 0 0 0 11.314-11.314z"/><path d="m344 176a8 8 0 0 0 -8 8v8a8 8 0 0 0 16 0v-8a8 8 0 0 0 -8-8z"/><path d="m96 200a56 56 0 1 0 -56-56 56.063 56.063 0 0 0 56 56zm0-96a40 40 0 1 1 -40 40 40.045 40.045 0 0 1 40-40z"/><path d="m96 152h16a8 8 0 0 0 0-16h-8v-16a8 8 0 0 0 -16 0v24a8 8 0 0 0 8 8z"/><path d="m344 120h-176a8 8 0 0 0 0 16h168v24a8 8 0 0 0 16 0v-32a8 8 0 0 0 -8-8z"/><path d="m176 216h-128a8 8 0 0 0 -8 8v24a8 8 0 0 0 8 8h128a8 8 0 0 0 8-8v-24a8 8 0 0 0 -8-8zm-8 24h-112v-8h112z"/><path d="m176 264h-128a8 8 0 0 0 0 16h128a8 8 0 0 0 0-16z"/><path d="m176 288h-128a8 8 0 0 0 0 16h128a8 8 0 0 0 0-16z"/><path d="m48 328h96a8 8 0 0 0 0-16h-96a8 8 0 0 0 0 16z"/><path d="m176 336h-128a8 8 0 0 0 0 16h128a8 8 0 0 0 0-16z"/><path d="m176 312h-8a8 8 0 0 0 0 16h8a8 8 0 0 0 0-16z"/></g></g></svg>