<svg height="512" viewBox="0 0 512 512" width="512" xmlns="http://www.w3.org/2000/svg"><g><g><g><path d="m25 208h208v24h-208z" fill="#c6c5ca"/><path d="m25 80h208v24h-208z" fill="#c6c5ca"/><path d="m17 232h224v24h-224z" fill="#e0e0e2"/><path d="m241 80h-224v-24l112-40 112 40z" fill="#e0e0e2"/><g fill="#898890"><path d="m113 104h32v104h-32z"/><path d="m41 104h32v104h-32z"/><path d="m185 104h32v104h-32z"/></g></g><g><g fill="#4e901e"><path d="m497 120v40h-40a40 40 0 0 1 40-40z"/><path d="m345 160h-40v-40a40 40 0 0 1 40 40z"/><path d="m345 48a40 40 0 0 1 -40 40v-40z"/></g><path d="m497 88v32a40 40 0 0 0 -40 40h-112a40 40 0 0 0 -40-40v-32a40 40 0 0 0 40-40h112a40 40 0 0 0 40 40z" fill="#91cc04"/><circle cx="401" cy="104" fill="#ffda44" r="24"/><path d="m497 48v40a40 40 0 0 1 -40-40z" fill="#4e901e"/></g><rect fill="#3d9ae2" height="240" rx="16" width="144" x="329" y="256"/><path d="m425 280h-48l-8-24h64z" fill="#57565c"/><path d="m17 448h240a0 0 0 0 1 0 0v32a16 16 0 0 1 -16 16h-208a16 16 0 0 1 -16-16v-32a0 0 0 0 1 0 0z" fill="#e0e0e2"/><path d="m49 296h176a16 16 0 0 1 16 16v136a0 0 0 0 1 0 0h-208a0 0 0 0 1 0 0v-136a16 16 0 0 1 16-16z" fill="#57565c"/><path d="m57 320h160v104h-160z" fill="#3d9ae2"/><path d="m153 472h-32l-8-24h48z" fill="#2d2d30"/></g><g><path d="m232 112a8 8 0 0 0 8-8v-16a8 8 0 0 0 8-8v-24a8 8 0 0 0 -5.31-7.53l-112-40a7.893 7.893 0 0 0 -5.38 0l-112 40a8 8 0 0 0 -5.31 7.53v24a8 8 0 0 0 8 8v16a8 8 0 0 0 8 8h8v88h-8a8 8 0 0 0 -8 8v16a8 8 0 0 0 -8 8v24a8 8 0 0 0 8 8h224a8 8 0 0 0 8-8v-24a8 8 0 0 0 -8-8v-16a8 8 0 0 0 -8-8h-8v-88zm-208-40v-10.36l104-37.14 104 37.14v10.36zm8 144h192v8h-192zm16-16v-88h16v88zm32 0v-88h24v88zm40 0v-88h16v88zm32 0v-88h24v88zm40 0v-88h16v88zm40 40v8h-208v-8zm-200-144v-8h192v8z"/><path d="m496 40h-192a8 8 0 0 0 -8 8v112a8 8 0 0 0 8 8h192a8 8 0 0 0 8-8v-112a8 8 0 0 0 -8-8zm-184 16h22.99a32.12 32.12 0 0 1 -22.99 22.99zm0 96v-22.99a32.12 32.12 0 0 1 22.99 22.99zm176 0h-22.99a32.12 32.12 0 0 1 22.99-22.99zm0-39.32a48.094 48.094 0 0 0 -39.32 39.32h-97.36a48.094 48.094 0 0 0 -39.32-39.32v-17.36a48.094 48.094 0 0 0 39.32-39.32h97.36a48.094 48.094 0 0 0 39.32 39.32zm0-33.69a32.12 32.12 0 0 1 -22.99-22.99h22.99z"/><path d="m400 72a32 32 0 1 0 32 32 32.036 32.036 0 0 0 -32-32zm0 48a16 16 0 1 1 16-16 16.019 16.019 0 0 1 -16 16z"/><path d="m264 112h16a8 8 0 0 0 0-16h-16a8 8 0 0 0 0 16z"/><path d="m304 368h-40a8 8 0 0 0 0 16h40a8 8 0 0 0 0-16z"/><path d="m408 232v-48a8 8 0 0 0 -16 0v48a8 8 0 0 0 16 0z"/><path d="m456 248h-112a24.032 24.032 0 0 0 -24 24v208a24.032 24.032 0 0 0 24 24h112a24.032 24.032 0 0 0 24-24v-208a24.032 24.032 0 0 0 -24-24zm-35.1 16-2.67 8h-36.46l-2.67-8zm43.1 216a8.011 8.011 0 0 1 -8 8h-112a8.011 8.011 0 0 1 -8-8v-208a8.011 8.011 0 0 1 8-8h18.23l6.18 18.53a8 8 0 0 0 7.59 5.47h48a8 8 0 0 0 7.59-5.47l6.18-18.53h18.23a8.011 8.011 0 0 1 8 8z"/><path d="m384 464h-32a8 8 0 0 0 0 16h32a8 8 0 0 0 0-16z"/><path d="m416 464h-8a8 8 0 0 0 0 16h8a8 8 0 0 0 0-16z"/><path d="m256 440h-8v-128a24.032 24.032 0 0 0 -24-24h-176a24.032 24.032 0 0 0 -24 24v128h-8a8 8 0 0 0 -8 8v32a24.032 24.032 0 0 0 24 24h208a24.032 24.032 0 0 0 24-24v-32a8 8 0 0 0 -8-8zm-216-128a8.011 8.011 0 0 1 8-8h176a8.011 8.011 0 0 1 8 8v128h-192zm108.9 144-2.67 8h-20.46l-2.67-8zm99.1 24a8.011 8.011 0 0 1 -8 8h-208a8.011 8.011 0 0 1 -8-8v-24h82.23l6.18 18.53a8 8 0 0 0 7.59 5.47h32a8 8 0 0 0 7.59-5.47l6.18-18.53h82.23z"/><path d="m64 464h-24a8 8 0 0 0 0 16h24a8 8 0 0 0 0-16z"/><path d="m96 464h-8a8 8 0 0 0 0 16h8a8 8 0 0 0 0-16z"/><path d="m224 424v-104a8 8 0 0 0 -8-8h-160a8 8 0 0 0 -8 8v104a8 8 0 0 0 8 8h160a8 8 0 0 0 8-8zm-16-8h-144v-88h144z"/></g></g></svg>