<svg height="512" viewBox="0 0 512 512" width="512" xmlns="http://www.w3.org/2000/svg"><g><g><path d="m193 80h288v272h-448v-272h32" fill="#3d9ae2"/><g fill="#ffda44"><circle cx="129" cy="104" r="8"/><path d="m113 86.111a24 24 0 0 1 32 0"/><path d="m97 68.222a48 48 0 0 1 64 0"/></g><circle cx="129" cy="80" fill="#91cc04" r="64"/><path d="m17 352h480v24h-480z" fill="#57565c"/><path d="m377 240h80v88h-80z" fill="#e0e0e2"/><circle cx="417" cy="272" fill="#ffdaaa" r="16"/><path d="m417 296a24 24 0 0 1 24 24v8a0 0 0 0 1 0 0h-48a0 0 0 0 1 0 0v-8a24 24 0 0 1 24-24z" fill="#91cc04"/><g fill="#ffda44"><path d="m217 104v112h96l40 40v-40h16v-112z"/><path d="m241 176h8l12 12 28-60h56"/><path d="m305 152 32 32"/><path d="m337 152-32 32"/></g><circle cx="257" cy="432" fill="#ffdaaa" r="24"/><path d="m237 464h40a20 20 0 0 1 20 20v12a0 0 0 0 1 0 0h-80a0 0 0 0 1 0 0v-12a20 20 0 0 1 20-20z" fill="#d80027"/><circle cx="361" cy="432" fill="#ffdaaa" r="24"/><path d="m341 464h40a20 20 0 0 1 20 20v12a0 0 0 0 1 0 0h-80a0 0 0 0 1 0 0v-12a20 20 0 0 1 20-20z" fill="#d80027"/><circle cx="153" cy="432" fill="#ffdaaa" r="24"/><path d="m133 464h40a20 20 0 0 1 20 20v12a0 0 0 0 1 0 0h-80a0 0 0 0 1 0 0v-12a20 20 0 0 1 20-20z" fill="#d80027"/><path d="m65 248h120v80h-120z" fill="#ffda44"/></g><g><circle cx="128" cy="104" r="8"/><path d="m149.335 80.15a32 32 0 0 0 -42.67 0 8 8 0 1 0 10.67 11.922 16 16 0 0 1 21.33 0 8 8 0 1 0 10.67-11.922z"/><path d="m101.335 74.183a40 40 0 0 1 53.33 0 8 8 0 1 0 10.67-11.922 56 56 0 0 0 -74.67 0 8 8 0 1 0 10.67 11.922z"/><path d="m496 344h-8v-264a8 8 0 0 0 -8-8h-280.46a71.984 71.984 0 0 0 -143.08 0h-24.46a8 8 0 0 0 -8 8v264h-8a8 8 0 0 0 -8 8v24a8 8 0 0 0 8 8h480a8 8 0 0 0 8-8v-24a8 8 0 0 0 -8-8zm-368-320a56 56 0 1 1 -56 56 56.062 56.062 0 0 1 56-56zm-88 64h16.46a71.984 71.984 0 0 0 143.08 0h272.46v256h-432zm448 280h-464v-8h464z"/><path d="m456 232h-80a8 8 0 0 0 -8 8v88a8 8 0 0 0 8 8h80a8 8 0 0 0 8-8v-88a8 8 0 0 0 -8-8zm-56 88a16 16 0 0 1 32 0zm8-48a8 8 0 1 1 8 8 8.011 8.011 0 0 1 -8-8zm40 48a32.041 32.041 0 0 0 -17.8-28.67 24 24 0 1 0 -28.4 0 32.041 32.041 0 0 0 -17.8 28.67v-72h64z"/><path d="m368 96h-152a8 8 0 0 0 -8 8v112a8 8 0 0 0 8 8h92.69l37.65 37.66a8 8 0 0 0 13.66-5.66v-32h8a8 8 0 0 0 8-8v-112a8 8 0 0 0 -8-8zm-8 112h-8a8 8 0 0 0 -8 8v20.69l-26.34-26.35a8.008 8.008 0 0 0 -5.66-2.34h-88v-96h136z"/><path d="m240 184h4.687l9.656 9.657a8 8 0 0 0 12.906-2.274l25.851-55.383h50.9a8 8 0 0 0 0-16h-56a8 8 0 0 0 -7.249 4.617l-23.171 49.65-3.923-3.924a8 8 0 0 0 -5.657-2.343h-8a8 8 0 0 0 0 16z"/><path d="m341.657 146.343a8 8 0 0 0 -11.314 0l-10.343 10.343-10.343-10.343a8 8 0 0 0 -11.314 11.314l10.343 10.343-10.343 10.343a8 8 0 0 0 11.314 11.314l10.343-10.343 10.343 10.343a8 8 0 1 0 11.314-11.314l-10.343-10.343 10.343-10.343a8 8 0 0 0 0-11.314z"/><path d="m184 160h-120a8 8 0 0 0 0 16h120a8 8 0 0 0 0-16z"/><path d="m184 184h-120a8 8 0 0 0 0 16h120a8 8 0 0 0 0-16z"/><path d="m64 224h56a8 8 0 0 0 0-16h-56a8 8 0 0 0 0 16z"/><path d="m152 224a8 8 0 0 0 0-16h-8a8 8 0 0 0 0 16z"/><path d="m336 272h-120a8 8 0 0 0 0 16h120a8 8 0 0 0 0-16z"/><path d="m336 296h-120a8 8 0 0 0 0 16h120a8 8 0 0 0 0-16z"/><path d="m272 320h-56a8 8 0 0 0 0 16h56a8 8 0 0 0 0-16z"/><path d="m304 320h-8a8 8 0 0 0 0 16h8a8 8 0 0 0 0-16z"/><path d="m456 488h-48v-4a28.028 28.028 0 0 0 -26.9-27.97 32 32 0 1 0 -42.2 0 28.028 28.028 0 0 0 -26.9 27.97v4h-8v-4a28.028 28.028 0 0 0 -26.9-27.97 32 32 0 1 0 -42.2 0 28.028 28.028 0 0 0 -26.9 27.97v4h-8v-4a28.028 28.028 0 0 0 -26.9-27.97 32 32 0 1 0 -42.2 0 28.028 28.028 0 0 0 -26.9 27.97v4h-48a8 8 0 0 0 0 16h400a8 8 0 0 0 0-16zm-304-72a16 16 0 1 1 -16 16 16.021 16.021 0 0 1 16-16zm32 72h-64v-4a12.01 12.01 0 0 1 12-12h40a12.01 12.01 0 0 1 12 12zm72-72a16 16 0 1 1 -16 16 16.021 16.021 0 0 1 16-16zm32 72h-64v-4a12.01 12.01 0 0 1 12-12h40a12.01 12.01 0 0 1 12 12zm72-72a16 16 0 1 1 -16 16 16.021 16.021 0 0 1 16-16zm32 72h-64v-4a12.01 12.01 0 0 1 12-12h40a12.01 12.01 0 0 1 12 12z"/><path d="m184 240h-120a8 8 0 0 0 -8 8v80a8 8 0 0 0 8 8h120a8 8 0 0 0 8-8v-80a8 8 0 0 0 -8-8zm-8 80h-104v-64h104z"/></g></g></svg>