<svg height="512" viewBox="0 0 512 512" width="512" xmlns="http://www.w3.org/2000/svg"><g><path d="m384 160h-256l16-48h224z" fill="#d80027"/><g><g><g><path d="m17 416h480a0 0 0 0 1 0 0v32a32 32 0 0 1 -32 32h-416a32 32 0 0 1 -32-32v-32a0 0 0 0 1 0 0z" fill="#e0e0e2"/><path d="m297 448h-80l-8-32h96z" fill="#2d2d30"/><path d="m385.39 176h39.61a32 32 0 0 1 32 32v208h-400v-208a32 32 0 0 1 32-32h39.61" fill="#57565c"/><path d="m385.61 208h17.39a30 30 0 0 1 30 30v162h-352v-162a30 30 0 0 1 30-30h17.39" fill="#3d9ae2"/></g><g><path d="m369 208v128h-224v-128" fill="#e0e0e2"/><path d="m129 336h256v24h-256z" fill="#57565c"/><path d="m139.09 141.02-10.09 18.98" fill="#ffda44"/><path d="m225 232h64v104h-64z" fill="#83d8f4"/><path d="m225 160h32a0 0 0 0 1 0 0v32a16 16 0 0 1 -16 16 16 16 0 0 1 -16-16v-32a0 0 0 0 1 0 0z" fill="#d80027"/><path d="m193 160h32a0 0 0 0 1 0 0v32a16 16 0 0 1 -16 16 16 16 0 0 1 -16-16v-32a0 0 0 0 1 0 0z" fill="#ffda44"/><path d="m161 160h32a0 0 0 0 1 0 0v32a16 16 0 0 1 -16 16 16 16 0 0 1 -16-16v-32a0 0 0 0 1 0 0z" fill="#d80027"/><path d="m129 160h32a0 0 0 0 1 0 0v32a16 16 0 0 1 -16 16 16 16 0 0 1 -16-16v-32a0 0 0 0 1 0 0z" fill="#ffda44"/><path d="m353 160h32a0 0 0 0 1 0 0v32a16 16 0 0 1 -16 16 16 16 0 0 1 -16-16v-32a0 0 0 0 1 0 0z" fill="#d80027"/><path d="m321 160h32a0 0 0 0 1 0 0v32a16 16 0 0 1 -16 16 16 16 0 0 1 -16-16v-32a0 0 0 0 1 0 0z" fill="#ffda44"/><path d="m289 160h32a0 0 0 0 1 0 0v32a16 16 0 0 1 -16 16 16 16 0 0 1 -16-16v-32a0 0 0 0 1 0 0z" fill="#d80027"/><path d="m257 160h32a0 0 0 0 1 0 0v32a16 16 0 0 1 -16 16 16 16 0 0 1 -16-16v-32a0 0 0 0 1 0 0z" fill="#ffda44"/><g fill="#83d8f4"><path d="m169 232h32v40h-32z"/><path d="m313 232h32v40h-32z"/></g></g></g><circle cx="256" cy="80" fill="#91cc04" r="56"/></g><g><path d="m496 416h-32v-200a40.04 40.04 0 0 0 -40-40h-32v-16a8.176 8.176 0 0 0 -.41-2.53l-16-48a8 8 0 0 0 -7.59-5.47h-52.69a64 64 0 1 0 -118.62 0h-52.69a8 8 0 0 0 -7.59 5.47l-16 48a8.176 8.176 0 0 0 -.41 2.53v16h-32a40.04 40.04 0 0 0 -40 40v200h-32a8 8 0 0 0 -8 8v32a40.04 40.04 0 0 0 40 40h416a40.04 40.04 0 0 0 40-40v-32a8 8 0 0 0 -8-8zm-120-248v32a8 8 0 0 1 -16 0v-32zm-200 56a23.9 23.9 0 0 0 16-6.13 23.946 23.946 0 0 0 32 0 23.946 23.946 0 0 0 32 0 23.946 23.946 0 0 0 32 0 23.946 23.946 0 0 0 32 0 23.946 23.946 0 0 0 32 0 23.9 23.9 0 0 0 8 4.75v113.38h-64v-96a8 8 0 0 0 -8-8h-64a8 8 0 0 0 -8 8v96h-64v-113.38a23.9 23.9 0 0 0 8-4.75 23.9 23.9 0 0 0 16 6.13zm-8-24v-32h16v32a8 8 0 0 1 -16 0zm32 0v-32h16v32a8 8 0 0 1 -16 0zm32 0v-32h16v32a8 8 0 0 1 -16 0zm32 0v-32h16v32a8 8 0 0 1 -16 0zm32 0v-32h16v32a8 8 0 0 1 -16 0zm32 0v-32h16v32a8 8 0 0 1 -16 0zm-48 48v88h-48v-88zm96 104v8h-240v-8zm-120-320a48 48 0 1 1 -48 48 48.051 48.051 0 0 1 48-48zm-106.23 88h56.32a63.9 63.9 0 0 0 99.82 0h56.32l10.67 32h-233.8zm-13.77 48h16v32a8 8 0 0 1 -16 0zm-9.87 48a23.948 23.948 0 0 0 9.87 6.62v113.38h-8a8 8 0 0 0 -8 8v16h-16a8 8 0 0 0 0 16h304a8 8 0 0 0 0-16h-16v-16a8 8 0 0 0 -8-8h-8v-113.38a23.948 23.948 0 0 0 9.87-6.62h30.13a8.011 8.011 0 0 1 8 8v168h-336v-168a8.011 8.011 0 0 1 8-8zm-62.13 0a24.032 24.032 0 0 1 24-24h32v8h-24a24.032 24.032 0 0 0 -24 24v176a8 8 0 0 0 8 8h352a8 8 0 0 0 8-8v-176a24.032 24.032 0 0 0 -24-24h-24v-8h32a24.032 24.032 0 0 1 24 24v200h-384zm229.75 216-4 16h-67.5l-4-16zm194.25 24a24.032 24.032 0 0 1 -24 24h-416a24.032 24.032 0 0 1 -24-24v-24h177.75l6.49 25.94a8 8 0 0 0 7.76 6.06h80a8 8 0 0 0 7.76-6.06l6.49-25.94h177.75z"/><path d="m88 440h-48a8 8 0 0 0 0 16h48a8 8 0 0 0 0-16z"/><path d="m120 440h-8a8 8 0 0 0 0 16h8a8 8 0 0 0 0-16z"/><path d="m264 304a8 8 0 0 0 8-8v-8a8 8 0 0 0 -16 0v8a8 8 0 0 0 8 8z"/><path d="m160 280a8 8 0 0 0 8 8h32a8 8 0 0 0 8-8v-40a8 8 0 0 0 -8-8h-32a8 8 0 0 0 -8 8zm16-32h16v24h-16z"/><path d="m312 288h32a8 8 0 0 0 8-8v-40a8 8 0 0 0 -8-8h-32a8 8 0 0 0 -8 8v40a8 8 0 0 0 8 8zm8-40h16v24h-16z"/><circle cx="256" cy="104" r="8"/><path d="m277.335 80.15a32 32 0 0 0 -42.67 0 8 8 0 1 0 10.67 11.922 16 16 0 0 1 21.33 0 8 8 0 1 0 10.67-11.922z"/><path d="m229.335 74.183a40 40 0 0 1 53.33 0 8 8 0 1 0 10.67-11.922 56 56 0 0 0 -74.67 0 8 8 0 1 0 10.67 11.922z"/></g></g></svg>