<svg height="512" viewBox="0 0 512 512" width="512" xmlns="http://www.w3.org/2000/svg"><g><g><g><path d="m17 416h480a0 0 0 0 1 0 0v32a32 32 0 0 1 -32 32h-416a32 32 0 0 1 -32-32v-32a0 0 0 0 1 0 0z" fill="#e0e0e2"/><path d="m297 448h-80l-8-32h96z" fill="#2d2d30"/><path d="m376.39 176h48.61a32 32 0 0 1 32 32v208h-400v-208a32 32 0 0 1 32-32h48.61" fill="#57565c"/><path d="m376.61 200h56.39v192h-352v-192h56.39" fill="#3d9ae2"/></g><path d="m145 104h224v256h-224z" fill="#ffda44"/><circle cx="257" cy="232" fill="#91cc04" r="56"/></g><g><path d="m496 408h-32v-200a40.04 40.04 0 0 0 -40-40h-48v-64a8 8 0 0 0 -8-8h-56v-40a32.03 32.03 0 0 0 -32-32h-48a32.03 32.03 0 0 0 -32 32v40h-56a8 8 0 0 0 -8 8v64h-48a40.04 40.04 0 0 0 -40 40v200h-32a8 8 0 0 0 -8 8v32a40.04 40.04 0 0 0 40 40h416a40.04 40.04 0 0 0 40-40v-32a8 8 0 0 0 -8-8zm-280-352a16.021 16.021 0 0 1 16-16h48a16.021 16.021 0 0 1 16 16v40h-80zm-64 56h48v16a8 8 0 0 0 16 0v-16h80v16a8 8 0 0 0 16 0v-16h48v240h-208zm248 256a8 8 0 0 0 0-16h-24v-144h48v176h-336v-176h48v144h-24a8 8 0 0 0 0 16zm-336-160a24.032 24.032 0 0 1 24-24h48v8h-56a8 8 0 0 0 -8 8v192a8 8 0 0 0 8 8h352a8 8 0 0 0 8-8v-192a8 8 0 0 0 -8-8h-56v-8h48a24.032 24.032 0 0 1 24 24v200h-384zm229.75 216-4 16h-67.5l-4-16zm194.25 24a24.032 24.032 0 0 1 -24 24h-416a24.032 24.032 0 0 1 -24-24v-24h177.75l6.49 25.94a8 8 0 0 0 7.76 6.06h80a8 8 0 0 0 7.76-6.06l6.49-25.94h177.75z"/><path d="m88 432h-48a8 8 0 0 0 0 16h48a8 8 0 0 0 0-16z"/><path d="m120 432h-8a8 8 0 0 0 0 16h8a8 8 0 0 0 0-16z"/><path d="m256 168a64 64 0 1 0 64 64 64.072 64.072 0 0 0 -64-64zm0 112a48 48 0 1 1 48-48 48.055 48.055 0 0 1 -48 48z"/><circle cx="256" cy="256" r="8"/><path d="m277.336 232.15a32 32 0 0 0 -42.672 0 8 8 0 0 0 10.671 11.922 16 16 0 0 1 21.33 0 8 8 0 0 0 10.671-11.922z"/><path d="m218.665 214.261a8 8 0 1 0 10.67 11.922 40 40 0 0 1 53.33 0 8 8 0 1 0 10.67-11.922 56 56 0 0 0 -74.67 0z"/></g></g></svg>