<svg height="512" viewBox="0 0 512 512" width="512" xmlns="http://www.w3.org/2000/svg"><g><g><g><path d="m144 256v-88a24 24 0 0 1 24-24h304a24 24 0 0 1 24 24v304a24 24 0 0 1 -24 24h-321" fill="#e0e0e2"/><circle cx="320" cy="320" fill="#57565c" r="120"/><circle cx="320" cy="384" fill="#2d2d30" r="24"/><circle cx="320" cy="256" fill="#2d2d30" r="24"/><path d="m232 88h176a16 16 0 0 1 16 16v40a0 0 0 0 1 0 0h-208a0 0 0 0 1 0 0v-40a16 16 0 0 1 16-16z" fill="#2d2d30"/><g fill="#ffda44"><path d="m264 16a16 16 0 0 1 16 16v56a0 0 0 0 1 0 0h-32a0 0 0 0 1 0 0v-56a16 16 0 0 1 16-16z"/><path d="m376 16a16 16 0 0 1 16 16v56a0 0 0 0 1 0 0h-32a0 0 0 0 1 0 0v-56a16 16 0 0 1 16-16z"/><circle cx="168" cy="168" r="8"/><circle cx="472" cy="168" r="8"/><circle cx="472" cy="472" r="8"/></g></g><rect fill="#3d9ae2" height="240" rx="16" width="144" x="16" y="256"/><path d="m120 256-8 24h-48l-8-24z" fill="#57565c"/><circle cx="88" cy="376" fill="#ffda44" r="32"/></g><g><path d="m72 464h-32a8 8 0 0 0 0 16h32a8 8 0 0 0 0-16z"/><path d="m104 464h-8a8 8 0 0 0 0 16h8a8 8 0 0 0 0-16z"/><path d="m472 136h-40v-32a24.032 24.032 0 0 0 -24-24h-8v-48a24 24 0 0 0 -48 0v48h-64v-48a24 24 0 0 0 -48 0v48h-8a24.032 24.032 0 0 0 -24 24v32h-40a32.03 32.03 0 0 0 -32 32v80h-104a24.032 24.032 0 0 0 -24 24v208a24.032 24.032 0 0 0 24 24h440a32.036 32.036 0 0 0 32-32v-304a32.03 32.03 0 0 0 -32-32zm-104-104a8 8 0 0 1 16 0v48h-16zm-112 0a8 8 0 0 1 16 0v48h-16zm-32 72a8.011 8.011 0 0 1 8-8h176a8.011 8.011 0 0 1 8 8v32h-192zm-115.1 160-2.67 8h-36.46l-2.67-8zm43.1 216a8.011 8.011 0 0 1 -8 8h-112a8.011 8.011 0 0 1 -8-8v-208a8.011 8.011 0 0 1 8-8h18.23l6.18 18.53a8 8 0 0 0 7.59 5.47h48a8 8 0 0 0 7.59-5.47l6.18-18.53h18.23a8.011 8.011 0 0 1 8 8zm336-8a16.021 16.021 0 0 1 -16 16h-305.38a23.841 23.841 0 0 0 1.38-8v-208a24.031 24.031 0 0 0 -16-22.62v-81.38a16.021 16.021 0 0 1 16-16h304a16.021 16.021 0 0 1 16 16z"/><path d="m320 192a128 128 0 1 0 128 128 128.145 128.145 0 0 0 -128-128zm0 240a112 112 0 1 1 112-112 112.127 112.127 0 0 1 -112 112z"/><path d="m320 352a32 32 0 1 0 32 32 32.036 32.036 0 0 0 -32-32zm0 48a16 16 0 1 1 16-16 16.019 16.019 0 0 1 -16 16z"/><path d="m320 224a32 32 0 1 0 32 32 32.036 32.036 0 0 0 -32-32zm0 48a16 16 0 1 1 16-16 16.019 16.019 0 0 1 -16 16z"/><path d="m312 104h-72a8 8 0 0 0 0 16h72a8 8 0 0 0 0-16z"/><path d="m344 104h-8a8 8 0 0 0 0 16h8a8 8 0 0 0 0-16z"/><circle cx="168" cy="168" r="8"/><circle cx="472" cy="168" r="8"/><circle cx="472" cy="472" r="8"/><path d="m96 336.805v-.805a8 8 0 0 0 -16 0v.805a40 40 0 1 0 16 0zm-8 63.195a24 24 0 0 1 -8-46.624v14.624a8 8 0 0 0 16 0v-14.624a24 24 0 0 1 -8 46.624z"/><circle cx="128" cy="128" r="8"/><path d="m144 118.111a8 8 0 0 0 5.338-13.961 32 32 0 0 0 -42.672 0 8 8 0 0 0 10.671 11.922 16 16 0 0 1 21.33 0 7.968 7.968 0 0 0 5.333 2.039z"/><path d="m101.335 98.183a40 40 0 0 1 53.33 0 8 8 0 1 0 10.67-11.922 56 56 0 0 0 -74.67 0 8 8 0 1 0 10.67 11.922z"/></g></g></svg>