<svg height="512" viewBox="0 0 512 512" width="512" xmlns="http://www.w3.org/2000/svg"><g><g><path d="m497 207v128a16 16 0 0 1 -16 16h-448a16 16 0 0 1 -16-16v-128z" fill="#e0e0e2"/><rect fill="#3d9ae2" height="240" rx="16" width="144" x="313" y="232"/><path d="m417 232-8 24h-48l-8-24z" fill="#57565c"/><path d="m497 143v64h-480v-64a16 16 0 0 1 16-16h448a16 16 0 0 1 16 16z" fill="#57565c"/><path d="m153 47h208v80h-208z" fill="#ffeb99"/><path d="m153 279h160v137h-160z" fill="#ffeb99"/><g fill="#2d2d30"><path d="m121 87h32v40h-32z"/><path d="m361 87h32v40h-32z"/><path d="m121 279h32v40h-32z"/></g><circle cx="57" cy="167" fill="#d80027" r="16"/><circle cx="113" cy="167" fill="#ffda44" r="16"/><circle cx="169" cy="167" fill="#91cc04" r="16"/><path d="m433 416h-96v-128h63l33 33z" fill="#ffeb99"/><path d="m393 296v32h33" fill="#ffda44"/></g><g><path d="m368 440h-32a8 8 0 0 0 0 16h32a8 8 0 0 0 0-16z"/><path d="m400 440h-8a8 8 0 0 0 0 16h8a8 8 0 0 0 0-16z"/><path d="m480 119h-80v-32a8 8 0 0 0 -8-8h-24v-32a8 8 0 0 0 -8-8h-208a8 8 0 0 0 -8 8v32h-24a8 8 0 0 0 -8 8v32h-80a24.032 24.032 0 0 0 -24 24v192a24.032 24.032 0 0 0 24 24h112v57a8 8 0 0 0 8 8h152v32a24.032 24.032 0 0 0 24 24h112a24.032 24.032 0 0 0 24-24v-97h16a24.032 24.032 0 0 0 24-24v-192a24.032 24.032 0 0 0 -24-24zm-112-24h16v24h-16zm-208-40h192v64h-192zm-32 40h16v24h-16zm16 216h-16v-24h16zm160 97h-144v-121h144zm144 48a8.011 8.011 0 0 1 -8 8h-112a8.011 8.011 0 0 1 -8-8v-208a8.011 8.011 0 0 1 8-8h18.23l6.18 18.53a8 8 0 0 0 7.59 5.47h48a8 8 0 0 0 7.59-5.47l6.18-18.53h18.23a8.011 8.011 0 0 1 8 8zm-84.9-216h41.8l-2.67 8h-36.46zm124.9 95a8.011 8.011 0 0 1 -8 8h-16v-95a24.032 24.032 0 0 0 -24-24h-112a24.032 24.032 0 0 0 -24 24v23h-184a8 8 0 0 0 -8 8v40a8 8 0 0 0 8 8h24v16h-112a8.011 8.011 0 0 1 -8-8v-120h464zm0-136h-464v-56a8.011 8.011 0 0 1 8-8h448a8.011 8.011 0 0 1 8 8z"/><path d="m56 191a24 24 0 1 0 -24-24 24.028 24.028 0 0 0 24 24zm0-32a8 8 0 1 1 -8 8 8.009 8.009 0 0 1 8-8z"/><path d="m112 191a24 24 0 1 0 -24-24 24.028 24.028 0 0 0 24 24zm0-32a8 8 0 1 1 -8 8 8.009 8.009 0 0 1 8-8z"/><path d="m168 191a24 24 0 1 0 -24-24 24.028 24.028 0 0 0 24 24zm0-32a8 8 0 1 1 -8 8 8.009 8.009 0 0 1 8-8z"/><path d="m416 167h56a8 8 0 0 0 0-16h-56a8 8 0 0 0 0 16z"/><path d="m472 175h-24a8 8 0 0 0 0 16h24a8 8 0 0 0 0-16z"/><path d="m404.657 282.343a8 8 0 0 0 -5.657-2.343h-63a8 8 0 0 0 -8 8v128a8 8 0 0 0 8 8h96a8 8 0 0 0 8-8v-95a8 8 0 0 0 -2.343-5.657zm15.03 37.657h-19.687v-19.687zm-75.687 88v-112h40v32a8 8 0 0 0 8 8h32v72z"/></g></g></svg>