<svg height="512" viewBox="0 0 512 512" width="512" xmlns="http://www.w3.org/2000/svg"><g><g><g><path d="m16 376h480a0 0 0 0 1 0 0v32a32 32 0 0 1 -32 32h-416a32 32 0 0 1 -32-32v-32a0 0 0 0 1 0 0z" fill="#e0e0e2"/><path d="m264 400h-48l-8-24h64z" fill="#2d2d30"/><path d="m312.39 136h79.61a32 32 0 0 1 32 32v208h-367v-208a32 32 0 0 1 32-32h112.61" fill="#57565c"/><path d="m345.61 160h54.39v192h-319v-192h87.39" fill="#83d8f4"/></g><rect fill="#3d9ae2" height="240" rx="16" width="144" x="353" y="200"/><path d="m457 200-8 24h-48l-8-24z" fill="#57565c"/><circle cx="169" cy="144" fill="#91cc04" r="64"/></g><g><path d="m480 192h-48v-24a40.04 40.04 0 0 0 -40-40h-153.81a71.988 71.988 0 0 0 -140.38 0h-9.81a40.04 40.04 0 0 0 -40 40v200h-32a8 8 0 0 0 -8 8v32a40.04 40.04 0 0 0 40 40h432a24.032 24.032 0 0 0 24-24v-208a24.032 24.032 0 0 0 -24-24zm-35.1 16-2.67 8h-36.46l-2.67-8zm-204.9-64h152a24.032 24.032 0 0 1 24 24v24h-8v-32a8 8 0 0 0 -8-8h-160.46a70.439 70.439 0 0 0 .46-8zm-72-56a56 56 0 1 1 -56 56 56.062 56.062 0 0 1 56-56zm-104 80a24.032 24.032 0 0 1 24-24h8a70.439 70.439 0 0 0 .46 8h-16.46a8 8 0 0 0 -8 8v192a8 8 0 0 0 8 8h264v8h-280zm196.9 216-2.67 8h-36.46l-2.67-8zm-212.9 48a24.032 24.032 0 0 1 -24-24v-24h178.23l6.18 18.53a8 8 0 0 0 7.59 5.47h48a8 8 0 0 0 7.59-5.47l6.18-18.53h66.23v40a23.841 23.841 0 0 0 1.38 8zm296-216v128h-256v-176h12.13a71.983 71.983 0 0 0 135.74 0h156.13v24h-24a24.032 24.032 0 0 0 -24 24zm144 208a8.011 8.011 0 0 1 -8 8h-112a8.011 8.011 0 0 1 -8-8v-208a8.011 8.011 0 0 1 8-8h18.23l6.18 18.53a8 8 0 0 0 7.59 5.47h48a8 8 0 0 0 7.59-5.47l6.18-18.53h18.23a8.011 8.011 0 0 1 8 8z"/><path d="m408 408h-32a8 8 0 0 0 0 16h32a8 8 0 0 0 0-16z"/><path d="m440 408h-8a8 8 0 0 0 0 16h8a8 8 0 0 0 0-16z"/><path d="m88 392h-48a8 8 0 0 0 0 16h48a8 8 0 0 0 0-16z"/><path d="m120 392h-8a8 8 0 0 0 0 16h8a8 8 0 0 0 0-16z"/><circle cx="424" cy="336" r="8"/><path d="m413.336 324.072a16 16 0 0 1 21.328 0 8 8 0 0 0 10.672-11.922 32 32 0 0 0 -42.672 0 8 8 0 1 0 10.672 11.922z"/><path d="m461.335 294.262a56 56 0 0 0 -74.67 0 8 8 0 1 0 10.67 11.922 40 40 0 0 1 53.33 0 8 8 0 0 0 10.67-11.922z"/><circle cx="168" cy="168" r="8"/><path d="m189.336 144.15a32 32 0 0 0 -42.672 0 8 8 0 1 0 10.672 11.922 16 16 0 0 1 21.328 0 8 8 0 0 0 10.672-11.922z"/><path d="m130.039 137.558a8 8 0 0 0 11.3.626 40 40 0 0 1 53.33 0 8 8 0 1 0 10.67-11.922 56 56 0 0 0 -74.67 0 8 8 0 0 0 -.63 11.296z"/></g></g></svg>