<svg height="512" viewBox="0 0 512 512" width="512" xmlns="http://www.w3.org/2000/svg"><g><g><path d="m497 40v24h-480v-24a24.006 24.006 0 0 1 24-24h432a24.006 24.006 0 0 1 24 24z" fill="#57565c"/><path d="m497 64v344a24.006 24.006 0 0 1 -24 24h-432a24.006 24.006 0 0 1 -24-24v-344z" fill="#83d8f4"/><path d="m409 352v72h-304v-72a24.006 24.006 0 0 1 24-24h256a24.006 24.006 0 0 1 24 24z" fill="#ff9811"/><path d="m349.36 256h-184.72l.78-4.29a23.987 23.987 0 0 1 23.61-19.71h135.94a23.987 23.987 0 0 1 23.61 19.71z" fill="#ff9811"/><path d="m361 328h-208l11.64-72h184.72z" fill="#3d9ae2"/><path d="m97 424h320v32h-320z" fill="#e0e0e2"/><path d="m145 496h-16a16 16 0 0 1 -16-16v-24h48v24a16 16 0 0 1 -16 16z" fill="#2d2d30"/><path d="m385 496h-16a16 16 0 0 1 -16-16v-24h48v24a16 16 0 0 1 -16 16z" fill="#2d2d30"/><path d="m313 400h-112l16-48h80z" fill="#e0e0e2"/><circle cx="153" cy="376" fill="#ffda44" r="24"/><circle cx="361" cy="376" fill="#ffda44" r="24"/><path d="m137 136.286c0 26.509-48 71.428-48 71.428s-48-44.919-48-71.428a48 48 0 0 1 96 0z" fill="#d80027"/><circle cx="417" cy="144" fill="#91cc04" r="56"/><circle cx="89" cy="136" fill="#ffda44" r="16"/></g><g><path d="m200 408h112a8 8 0 0 0 7.589-10.53l-16-48a8 8 0 0 0 -7.589-5.47h-80a8 8 0 0 0 -7.589 5.47l-16 48a8 8 0 0 0 7.589 10.53zm21.766-48h68.468l10.666 32h-89.8z"/><path d="m152 408a32 32 0 1 0 -32-32 32.036 32.036 0 0 0 32 32zm0-48a16 16 0 1 1 -16 16 16.019 16.019 0 0 1 16-16z"/><path d="m360 408a32 32 0 1 0 -32-32 32.036 32.036 0 0 0 32 32zm0-48a16 16 0 1 1 -16 16 16.019 16.019 0 0 1 16-16z"/><path d="m472 8h-432a32.036 32.036 0 0 0 -32 32v368a32.036 32.036 0 0 0 32 32h48v16a8 8 0 0 0 8 8h8v16a24.032 24.032 0 0 0 24 24h16a24.032 24.032 0 0 0 24-24v-16h176v16a24.032 24.032 0 0 0 24 24h16a24.032 24.032 0 0 0 24-24v-16h8a8 8 0 0 0 8-8v-16h48a32.036 32.036 0 0 0 32-32v-368a32.036 32.036 0 0 0 -32-32zm-320 472a8.011 8.011 0 0 1 -8 8h-16a8.011 8.011 0 0 1 -8-8v-16h32zm240 0a8.011 8.011 0 0 1 -8 8h-16a8.011 8.011 0 0 1 -8-8v-16h32zm16-32h-304v-12.13a7.933 7.933 0 0 0 1-3.87h303zm-66.45-184 9.05 56h-189.2l9.05-56zm-167.38-16a15.979 15.979 0 0 1 13.86-8h135.94a15.979 15.979 0 0 1 13.86 8zm209.83 88a16.021 16.021 0 0 1 16 16v64h-288v-64a16.021 16.021 0 0 1 16-16zm104 72a16.021 16.021 0 0 1 -16 16h-48a8 8 0 0 0 -8-8v-64a32.036 32.036 0 0 0 -32-32h-17.19l-10.55-65.28a.235.235 0 0 1 -.02-.08.17.17 0 0 0 -.01-.07l-.78-4.29a31.969 31.969 0 0 0 -31.48-26.28h-135.94a31.969 31.969 0 0 0 -31.48 26.28l-.78 4.29a.17.17 0 0 0 -.01.07.235.235 0 0 1 -.02.08l-10.55 65.28h-17.19a32.036 32.036 0 0 0 -32 32v64a8 8 0 0 0 -8 8h-48a16.021 16.021 0 0 1 -16-16v-336h464zm0-352h-464v-16a16.021 16.021 0 0 1 16-16h432a16.021 16.021 0 0 1 16 16z"/><path d="m48 48h48a8 8 0 0 0 0-16h-48a8 8 0 0 0 0 16z"/><path d="m120 48h8a8 8 0 0 0 0-16h-8a8 8 0 0 0 0 16z"/><path d="m88 80.286a56.063 56.063 0 0 0 -56 56c0 12.9 8.69 29.975 25.83 50.746a312.677 312.677 0 0 0 24.7 26.523 8 8 0 0 0 10.932 0 312.677 312.677 0 0 0 24.7-26.523c17.148-20.771 25.838-37.844 25.838-50.746a56.063 56.063 0 0 0 -56-56zm0 116.28c-17.343-17.392-40-45.176-40-60.28a40 40 0 0 1 80 0c0 15.104-22.657 42.888-40 60.28z"/><path d="m416 80a64 64 0 1 0 64 64 64.072 64.072 0 0 0 -64-64zm0 112a48 48 0 1 1 48-48 48.054 48.054 0 0 1 -48 48z"/><path d="m88 112a24 24 0 1 0 24 24 24.027 24.027 0 0 0 -24-24zm0 32a8 8 0 1 1 8-8 8.009 8.009 0 0 1 -8 8z"/><path d="m128 280h-32v-40a8 8 0 0 0 -16 0v48a8 8 0 0 0 8 8h40a8 8 0 0 0 0-16z"/><path d="m424 232a8 8 0 0 0 -8 8v40h-32a8 8 0 0 0 0 16h40a8 8 0 0 0 8-8v-48a8 8 0 0 0 -8-8z"/><circle cx="416" cy="168" r="8"/><path d="m437.336 144.15a32 32 0 0 0 -42.672 0 8 8 0 0 0 10.671 11.922 16 16 0 0 1 21.33 0 8 8 0 0 0 10.671-11.922z"/><path d="m378.665 126.262a8 8 0 0 0 10.67 11.922 40 40 0 0 1 53.33 0 8 8 0 1 0 10.67-11.922 56 56 0 0 0 -74.67 0z"/></g></g></svg>