<svg height="512" viewBox="0 0 512 512" width="512" xmlns="http://www.w3.org/2000/svg"><g><g><path d="m89 256h336v200h-336z" fill="#e0e0e2"/><path d="m129 296h96v160h-96z" fill="#a0815c"/><path d="m375.46 183.68 89.54 72.32h-416l208-168 48.39 39.08" fill="#d80027"/><path d="m281 296h96v80h-96z" fill="#3d9ae2"/><path d="m265 376h128v24h-128z" fill="#c6c5ca"/><g fill="#ffda44"><circle cx="369" cy="144" r="8"/><path d="m353 126.111a24 24 0 0 1 32 0"/><path d="m337 108.222a48 48 0 0 1 64 0"/></g><circle cx="369" cy="120" fill="#91cc04" r="64"/><path d="m233 152h48v48h-48z" fill="#3d9ae2"/><path d="m217 200h80v24h-80z" fill="#c6c5ca"/></g><g><path d="m464 448h-32v-184h32a8 8 0 0 0 5.03-14.22l-76.76-62a72 72 0 1 0 -95.63-77.24l-35.61-28.76a8.006 8.006 0 0 0 -10.06 0l-208 168a8 8 0 0 0 5.03 14.22h32v184h-64a8 8 0 0 0 0 16h448a8 8 0 0 0 0-16zm-96-384a56 56 0 1 1 -56 56 56.062 56.062 0 0 1 56-56zm-297.36 184 185.36-149.72 40.9 33.03a72.1 72.1 0 0 0 71.1 60.69c1.31 0 2.6-.04 3.89-.11l69.47 56.11zm145.36 200h-80v-144h80zm200 0h-184v-152a8 8 0 0 0 -8-8h-96a8 8 0 0 0 -8 8v152h-24v-184h320z"/><path d="m200 344a8 8 0 0 0 -8 8v16a8 8 0 0 0 16 0v-16a8 8 0 0 0 -8-8z"/><path d="m392 368h-8v-72a8 8 0 0 0 -8-8h-96a8 8 0 0 0 -8 8v72h-8a8 8 0 0 0 -8 8v24a8 8 0 0 0 8 8h128a8 8 0 0 0 8-8v-24a8 8 0 0 0 -8-8zm-56-64h32v64h-32zm-48 0h32v64h-32zm96 88h-112v-8h112z"/><circle cx="368" cy="144" r="8"/><path d="m389.335 120.15a32 32 0 0 0 -42.67 0 8 8 0 1 0 10.67 11.922 16 16 0 0 1 21.33 0 8 8 0 1 0 10.67-11.922z"/><path d="m341.335 114.183a40 40 0 0 1 53.33 0 8 8 0 1 0 10.67-11.922 56 56 0 0 0 -74.67 0 8 8 0 1 0 10.67 11.922z"/><path d="m296 192h-8v-40a8 8 0 0 0 -8-8h-48a8 8 0 0 0 -8 8v40h-8a8 8 0 0 0 -8 8v24a8 8 0 0 0 8 8h80a8 8 0 0 0 8-8v-24a8 8 0 0 0 -8-8zm-32-32h8v32h-8zm-24 0h8v32h-8zm48 56h-64v-8h64z"/><path d="m496 448h-8a8 8 0 0 0 0 16h8a8 8 0 0 0 0-16z"/></g></g></svg>