<svg height="512" viewBox="0 0 512 512" width="512" xmlns="http://www.w3.org/2000/svg"><g><g><path d="m56 352h176v144h-176z" fill="#e0e0e2"/><path d="m273 352h-256l128-112z" fill="#d80027"/><path d="m113 416h64v80h-64z" fill="#a0815c"/><path d="m280 128h176v144h-176z" fill="#e0e0e2"/><path d="m497 128h-256l128-112z" fill="#d80027"/><circle cx="81" cy="80" fill="#91cc04" r="64"/><circle cx="433" cy="432" fill="#91cc04" r="64"/><path d="m337 192h64v80h-64z" fill="#a0815c"/></g><g><path d="m277.27 345.98-128-112a8 8 0 0 0 -10.54 0l-128 112a8 8 0 0 0 5.27 14.02h32v136a8 8 0 0 0 8 8h176a8 8 0 0 0 8-8v-136h32a8 8 0 0 0 5.27-14.02zm-109.27 142.02h-48v-64h48zm56 0h-40v-72a8 8 0 0 0 -8-8h-64a8 8 0 0 0 -8 8v72h-40v-128h160zm-186.71-144 106.71-93.37 106.71 93.37z"/><path d="m501.27 121.98-128-112a8 8 0 0 0 -10.54 0l-128 112a8 8 0 0 0 5.27 14.02h32v136a8 8 0 0 0 8 8h176a8 8 0 0 0 8-8v-136h32a8 8 0 0 0 5.27-14.02zm-109.27 142.02h-48v-64h48zm56 0h-40v-72a8 8 0 0 0 -8-8h-64a8 8 0 0 0 -8 8v72h-40v-128h160zm-186.71-144 106.71-93.37 106.71 93.37z"/><path d="m80 152a72 72 0 1 0 -72-72 72.081 72.081 0 0 0 72 72zm0-128a56 56 0 1 1 -56 56 56.063 56.063 0 0 1 56-56z"/><path d="m432 360a72 72 0 1 0 72 72 72.081 72.081 0 0 0 -72-72zm0 128a56 56 0 1 1 56-56 56.063 56.063 0 0 1 -56 56z"/><path d="m72 176v72a8 8 0 0 0 16 0v-72a8 8 0 0 0 -16 0z"/><path d="m176 88h64a8 8 0 0 0 0-16h-64a8 8 0 0 0 0 16z"/><path d="m424 304v32a8 8 0 0 0 16 0v-32a8 8 0 0 0 -16 0z"/><path d="m336 424h-72a8 8 0 0 0 0 16h72a8 8 0 0 0 0-16z"/><path d="m152 440a8 8 0 0 0 -8 8v16a8 8 0 0 0 16 0v-16a8 8 0 0 0 -8-8z"/><path d="m376 216a8 8 0 0 0 -8 8v16a8 8 0 0 0 16 0v-16a8 8 0 0 0 -8-8z"/><circle cx="432" cy="456" r="8"/><path d="m453.336 432.15a32 32 0 0 0 -42.672 0 8 8 0 0 0 10.671 11.922 16 16 0 0 1 21.33 0 8 8 0 0 0 10.671-11.922z"/><path d="m469.335 414.262a56 56 0 0 0 -74.67 0 8 8 0 1 0 10.67 11.922 40 40 0 0 1 53.33 0 8 8 0 0 0 10.67-11.922z"/><circle cx="80" cy="104" r="8"/><path d="m101.336 80.15a32 32 0 0 0 -42.672 0 8 8 0 0 0 10.671 11.922 16 16 0 0 1 21.33 0 8 8 0 0 0 10.671-11.922z"/><path d="m53.335 74.184a40 40 0 0 1 53.33 0 8 8 0 1 0 10.67-11.922 56 56 0 0 0 -74.67 0 8 8 0 0 0 10.67 11.922z"/></g></g></svg>