<svg height="512" viewBox="0 0 512 512" width="512" xmlns="http://www.w3.org/2000/svg"><g><g><g><path d="m353 256v-80h-272v168h32 80 144" fill="#e0e0e2"/><path d="m113 200h80v144h-80z" fill="#a0815c"/><path d="m217 200h96v64h-96z" fill="#3d9ae2"/><path d="m84.04 140.49-51.04 35.51h48 272 48l-184-128-48.02 33.4" fill="#d80027"/></g><rect fill="#3d9ae2" height="240" rx="16" width="144" x="337" y="256"/><path d="m441 256-8 24h-48l-8-24z" fill="#57565c"/><circle cx="105" cy="80" fill="#91cc04" r="64"/><g fill="#ffda44"><circle cx="105" cy="104" r="8"/><path d="m89 86.111a24 24 0 0 1 32 0"/><path d="m73 68.222a48 48 0 0 1 64 0"/></g></g><g><path d="m168 248a8 8 0 0 0 -8 8v16a8 8 0 0 0 16 0v-16a8 8 0 0 0 -8-8z"/><path d="m312 192h-96a8 8 0 0 0 -8 8v64a8 8 0 0 0 8 8h96a8 8 0 0 0 8-8v-64a8 8 0 0 0 -8-8zm-88 16h32v48h-32zm80 48h-32v-48h32z"/><path d="m464 248h-104v-64h40a8 8 0 0 0 4.57-14.57l-184-128a8.006 8.006 0 0 0 -9.14 0l-36.64 25.49a71.991 71.991 0 1 0 -107.66 74.89l-39.7 27.62a8 8 0 0 0 4.57 14.57h40v160a8 8 0 0 0 8 8h248v128a24.032 24.032 0 0 0 24 24h112a24.032 24.032 0 0 0 24-24v-208a24.032 24.032 0 0 0 -24-24zm-35.1 16-2.67 8h-36.46l-2.67-8zm-380.9-184a56 56 0 1 1 56 56 56.062 56.062 0 0 1 -56-56zm9.51 88 26.91-18.73a71.925 71.925 0 0 0 91.33-63.53l40.25-27.99 158.49 110.25zm126.49 168h-64v-128h64zm144-64v64h-128v-136a8 8 0 0 0 -8-8h-80a8 8 0 0 0 -8 8v136h-16v-152h256v65.38a24.031 24.031 0 0 0 -16 22.62zm144 208a8.011 8.011 0 0 1 -8 8h-112a8.011 8.011 0 0 1 -8-8v-208a8.011 8.011 0 0 1 8-8h18.23l6.18 18.53a8 8 0 0 0 7.59 5.47h48a8 8 0 0 0 7.59-5.47l6.18-18.53h18.23a8.011 8.011 0 0 1 8 8z"/><path d="m392 464h-32a8 8 0 0 0 0 16h32a8 8 0 0 0 0-16z"/><path d="m424 464h-8a8 8 0 0 0 0 16h8a8 8 0 0 0 0-16z"/><path d="m304 440h-136v-72a8 8 0 0 0 -16 0v80a8 8 0 0 0 8 8h144a8 8 0 0 0 0-16z"/><path d="m328 96h120v136a8 8 0 0 0 16 0v-144a8 8 0 0 0 -8-8h-128a8 8 0 0 0 0 16z"/><circle cx="408" cy="392" r="8"/><path d="m397.336 380.072a16 16 0 0 1 21.328 0 8 8 0 0 0 10.672-11.922 32 32 0 0 0 -42.672 0 8 8 0 1 0 10.672 11.922z"/><path d="m445.335 350.262a56 56 0 0 0 -74.67 0 8 8 0 1 0 10.67 11.922 40 40 0 0 1 53.33 0 8 8 0 0 0 10.67-11.922z"/><circle cx="104" cy="104" r="8"/><path d="m114.664 92.072a8 8 0 1 0 10.672-11.922 32 32 0 0 0 -42.672 0 8 8 0 1 0 10.672 11.922 16 16 0 0 1 21.328 0z"/><path d="m130.665 74.184a8 8 0 1 0 10.67-11.922 56 56 0 0 0 -74.67 0 8 8 0 0 0 10.67 11.922 40 40 0 0 1 53.33 0z"/></g></g></svg>