<svg height="512" viewBox="0 0 512 512" width="512" xmlns="http://www.w3.org/2000/svg"><g><g><path d="m137 136h-72a40 40 0 1 1 11.95-78.18 64.024 64.024 0 0 1 115.49-9.82" fill="#c6c5ca"/><path d="m377 224.5v-152.5a24.006 24.006 0 0 0 -24-24h-192a24.006 24.006 0 0 0 -24 24v400a24.006 24.006 0 0 0 24 24h192a24.006 24.006 0 0 0 24-24v-128" fill="#3d9ae2"/><path d="m289 72h-64l-8-24h80z" fill="#57565c"/><g fill="#ffda44"><circle cx="257" cy="176" r="32"/><path d="m302.255 130.745 5.657-5.657"/><path d="m206.088 226.912 5.657-5.657"/><path d="m302.255 221.255 5.657 5.657"/><path d="m206.088 125.088 5.657 5.657"/></g><path d="m225 400a32 32 0 1 1 -48-27.72v-60.28a16 16 0 1 1 32 0v60.28a32 32 0 0 1 16 27.72z" fill="#ff9811"/><circle cx="193" cy="400" fill="#ffda44" r="8"/><path d="m441 344h20a33.053 33.053 0 0 0 4-.23 36 36 0 1 0 -17.41-69.18 64.018 64.018 0 0 0 -122.64-8.77 40 40 0 1 0 -11.95 78.18z" fill="#e0e0e2"/></g><g><path d="m460 264a43.764 43.764 0 0 0 -7.86.7 72.394 72.394 0 0 0 -68.14-48.7v-144a32.036 32.036 0 0 0 -32-32h-156.13a72.018 72.018 0 0 0 -124.65 8.54 48 48 0 1 0 -7.22 95.46h64v328a32.036 32.036 0 0 0 32 32h192a32.036 32.036 0 0 0 32-32v-120h76a40.73 40.73 0 0 0 4.87-.28 43.995 43.995 0 0 0 -4.87-87.72zm-175.1-208-2.67 8h-52.46l-2.67-8zm-156.9 16v56h-64a32 32 0 1 1 9.56-62.54 8.02 8.02 0 0 0 9.9-4.87 55.982 55.982 0 0 1 91.7-20.59h-15.16a32.036 32.036 0 0 0 -32 32zm240 400a16.021 16.021 0 0 1 -16 16h-192a16.021 16.021 0 0 1 -16-16v-400a16.021 16.021 0 0 1 16-16h50.23l6.18 18.53a8 8 0 0 0 7.59 5.47h64a8 8 0 0 0 7.59-5.47l6.18-18.53h50.23a16.021 16.021 0 0 1 16 16v145.83a72.425 72.425 0 0 0 -48.78 38.71 48 48 0 1 0 -7.22 95.46h56zm95.03-136.17a25.955 25.955 0 0 1 -3.03.17h-148a32 32 0 1 1 9.56-62.54 8.02 8.02 0 0 0 9.9-4.87 56.017 56.017 0 0 1 107.31 7.67 8 8 0 0 0 10.81 5.75 28 28 0 1 1 13.45 53.82z"/><path d="m256 216a40 40 0 1 0 -40-40 40.045 40.045 0 0 0 40 40zm0-64a24 24 0 1 1 -24 24 24.028 24.028 0 0 1 24-24z"/><path d="m256 120a8 8 0 0 0 8-8v-8a8 8 0 0 0 -16 0v8a8 8 0 0 0 8 8z"/><path d="m256 232a8 8 0 0 0 -8 8v8a8 8 0 0 0 16 0v-8a8 8 0 0 0 -8-8z"/><path d="m312 176a8 8 0 0 0 8 8h8a8 8 0 0 0 0-16h-8a8 8 0 0 0 -8 8z"/><path d="m184 184h8a8 8 0 0 0 0-16h-8a8 8 0 0 0 0 16z"/><path d="m301.255 138.745a7.973 7.973 0 0 0 5.657-2.344l5.657-5.657a8 8 0 0 0 -11.315-11.312l-5.656 5.657a8 8 0 0 0 5.657 13.656z"/><path d="m205.088 215.6-5.657 5.657a8 8 0 1 0 11.315 11.312l5.656-5.657a8 8 0 1 0 -11.314-11.312z"/><path d="m306.912 215.6a8 8 0 1 0 -11.312 11.311l5.656 5.657a8 8 0 0 0 11.315-11.312z"/><path d="m205.088 136.4a8 8 0 1 0 11.312-11.311l-5.656-5.657a8 8 0 0 0 -11.315 11.312z"/><path d="m216 456h-48a8 8 0 0 0 0 16h48a8 8 0 0 0 0-16z"/><path d="m256 456h-8a8 8 0 0 0 0 16h8a8 8 0 0 0 0-16z"/><path d="m216 368v-56a24 24 0 0 0 -48 0v56a40 40 0 1 0 48 0zm-24 56a24 24 0 0 1 -11.994-44.8 8 8 0 0 0 3.994-6.92v-60.28a8 8 0 1 1 16 0v60.28a8 8 0 0 0 3.994 6.925 24 24 0 0 1 -11.994 44.795z"/><circle cx="192" cy="400" r="8"/><path d="m240 304h-8a8 8 0 0 0 0 16h8a8 8 0 0 0 0-16z"/><path d="m240 328h-8a8 8 0 0 0 0 16h8a8 8 0 0 0 0-16z"/><path d="m248 360a8 8 0 0 0 -8-8h-8a8 8 0 0 0 0 16h8a8 8 0 0 0 8-8z"/></g></g></svg>