<svg height="512" viewBox="0 0 512 512" width="512" xmlns="http://www.w3.org/2000/svg"><g><g><g><g><path d="m177 368h-128l7.111 128 113.778 1z" fill="#57565c"/><path d="m48 144h128l-7.111-128h-113.778z" fill="#57565c"/><rect fill="#3d9ae2" height="224" rx="24" width="192" x="17" y="144"/></g><circle cx="113" cy="257" fill="#91cc04" r="40"/></g><path d="m457 168.7a87.992 87.992 0 0 1 -47.3 77.349 16.076 16.076 0 0 0 -8.7 14.228v19.723h-64v-19.726a15.938 15.938 0 0 0 -8.546-14.152 88.013 88.013 0 0 1 43.973-166.057c47.293 1.796 84.937 41.305 84.573 88.635z" fill="#ffda44"/><path d="m321 280h96v24h-96z" fill="#2d2d30"/><path d="m337 304h64a0 0 0 0 1 0 0v32a16 16 0 0 1 -16 16h-32a16 16 0 0 1 -16-16v-32a0 0 0 0 1 0 0z" fill="#57565c"/><g fill="#ffda44"><path d="m289.804 247.196-11.314 11.314"/><path d="m459.51 77.49-11.314 11.314"/><path d="m289.804 88.804-11.314-11.314"/><path d="m459.51 258.51-11.314-11.314"/></g></g><g><path d="m112 344a8 8 0 0 0 -8-8h-64a8 8 0 0 0 0 16h64a8 8 0 0 0 8-8z"/><path d="m136 336h-8a8 8 0 0 0 0 16h8a8 8 0 0 0 0-16z"/><path d="m184 136h-.43l-6.69-120.44a8.012 8.012 0 0 0 -7.99-7.56h-113.78a8.012 8.012 0 0 0 -7.99 7.56l-6.69 120.44h-.43a32.036 32.036 0 0 0 -32 32v176a32.036 32.036 0 0 0 32 32h.43l6.69 120.44a8.006 8.006 0 0 0 7.92 7.56l113.78 1h.07a8.012 8.012 0 0 0 7.99-7.56l6.69-121.44h.43a32.042 32.042 0 0 0 32-32v-176a32.042 32.042 0 0 0 -32-32zm-121.32-112h98.64l6.22 112h-111.08zm98.64 464.93-98.64-.86-6.22-112.07h111.09zm38.68-144.93a16.021 16.021 0 0 1 -16 16h-144a16.021 16.021 0 0 1 -16-16v-176a16.021 16.021 0 0 1 16-16h144a16.021 16.021 0 0 1 16 16z"/><path d="m112 305a48 48 0 0 0 8-95.321v-8.679a8 8 0 0 0 -16 0v8.679a48 48 0 0 0 8 95.321zm-8-78.987v14.987a8 8 0 0 0 16 0v-14.987a32 32 0 1 1 -16 0z"/><path d="m412.4 253.13a95.994 95.994 0 1 0 -88.64.09 7.89 7.89 0 0 1 4.24 7.05v11.73h-8a8 8 0 0 0 -8 8v24a8 8 0 0 0 8 8h8v24a24.032 24.032 0 0 0 24 24h8v80h-160a8 8 0 0 0 0 16h168a8 8 0 0 0 8-8v-88h8a24.032 24.032 0 0 0 24-24v-24h8a8 8 0 0 0 8-8v-24a8 8 0 0 0 -8-8h-8v-11.73a8.087 8.087 0 0 1 4.4-7.14zm-20.4 82.87a8.011 8.011 0 0 1 -8 8h-32a8.011 8.011 0 0 1 -8-8v-24h48zm16-40h-80v-8h80zm-3.01-57.05a24.034 24.034 0 0 0 -12.99 21.32v11.73h-48v-11.73a23.866 23.866 0 0 0 -12.86-21.25 80 80 0 1 1 73.85-.07z"/><path d="m344 136a8 8 0 0 0 -8 8v72a8 8 0 0 0 16 0v-72a8 8 0 0 0 -8-8z"/><path d="m400 216v-72a8 8 0 0 0 -16 0v72a8 8 0 0 0 16 0z"/><path d="m368 160a8 8 0 0 0 -8 8v16a8 8 0 0 0 16 0v-16a8 8 0 0 0 -8-8z"/><path d="m240 176h16a8 8 0 0 0 0-16h-16a8 8 0 0 0 0 16z"/><path d="m496 160h-16a8 8 0 0 0 0 16h16a8 8 0 0 0 0-16z"/><path d="m277.49 266.51a7.974 7.974 0 0 0 5.657-2.343l11.314-11.313a8 8 0 0 0 -11.315-11.315l-11.313 11.314a8 8 0 0 0 5.657 13.657z"/><path d="m452.853 71.833-11.314 11.313a8 8 0 0 0 11.315 11.315l11.313-11.314a8 8 0 0 0 -11.314-11.314z"/><path d="m283.146 94.461a8 8 0 0 0 11.315-11.315l-11.314-11.313a8 8 0 0 0 -11.314 11.314z"/><path d="m452.854 241.539a8 8 0 0 0 -11.315 11.315l11.314 11.313a8 8 0 0 0 11.314-11.314z"/><path d="m368 64a8 8 0 0 0 8-8v-8a8 8 0 0 0 -16 0v8a8 8 0 0 0 8 8z"/></g></g></svg>