<svg height="512" viewBox="0 0 512 512" width="512" xmlns="http://www.w3.org/2000/svg"><g><g><g><g><path d="m177 368h-128l7.111 128 113.778 1z" fill="#57565c"/><path d="m49 144h128l-7.111-128h-113.778z" fill="#57565c"/><rect fill="#3d9ae2" height="224" rx="24" width="192" x="17" y="144"/></g><circle cx="113" cy="256" fill="#91cc04" r="40"/></g><path d="m273 136h176v128h-176z" fill="#e0e0e2"/><path d="m489 136h-256l128-112z" fill="#d80027"/><circle cx="433" cy="432" fill="#91cc04" r="64"/><path d="m329 176h64v88h-64z" fill="#a0815c"/><g fill="#ffda44"><circle cx="433" cy="456" r="8"/><path d="m417 438.111a24 24 0 0 1 32 0"/><path d="m401 420.222a48 48 0 0 1 64 0"/></g></g><g><path d="m112 344a8 8 0 0 0 -8-8h-64a8 8 0 0 0 0 16h64a8 8 0 0 0 8-8z"/><path d="m136 336h-8a8 8 0 0 0 0 16h8a8 8 0 0 0 0-16z"/><path d="m184 136h-.43l-6.69-120.44a8.012 8.012 0 0 0 -7.99-7.56h-113.78a8.012 8.012 0 0 0 -7.99 7.56l-6.69 120.44h-.43a32.042 32.042 0 0 0 -32 32v176a32.042 32.042 0 0 0 32 32h.43l6.69 120.44a8.006 8.006 0 0 0 7.92 7.56l113.78 1h.07a8.012 8.012 0 0 0 7.99-7.56l6.69-121.44h.43a32.042 32.042 0 0 0 32-32v-176a32.042 32.042 0 0 0 -32-32zm-121.32-112h98.64l6.22 112h-111.08zm98.64 464.93-98.64-.86-6.22-112.07h111.09zm38.68-144.93a16.021 16.021 0 0 1 -16 16h-144a16.021 16.021 0 0 1 -16-16v-176a16.021 16.021 0 0 1 16-16h144a16.021 16.021 0 0 1 16 16z"/><path d="m112 304a48 48 0 0 0 8-95.321v-8.679a8 8 0 0 0 -16 0v8.679a48 48 0 0 0 8 95.321zm-8-78.987v14.987a8 8 0 0 0 16 0v-14.987a32 32 0 1 1 -16 0z"/><path d="m493.27 129.98-128-112a8 8 0 0 0 -10.54 0l-128 112a8 8 0 0 0 5.27 14.02h32v120a8 8 0 0 0 8 8h176a8 8 0 0 0 8-8v-120h32a8 8 0 0 0 5.27-14.02zm-109.27 126.02h-48v-72h48zm56 0h-40v-80a8 8 0 0 0 -8-8h-64a8 8 0 0 0 -8 8v80h-40v-112h160zm-186.71-128 106.71-93.37 106.71 93.37z"/><path d="m432 360a72 72 0 1 0 72 72 72.081 72.081 0 0 0 -72-72zm0 128a56 56 0 1 1 56-56 56.063 56.063 0 0 1 -56 56z"/><path d="m424 288v48a8 8 0 0 0 16 0v-48a8 8 0 0 0 -16 0z"/><path d="m336 424h-136a8 8 0 0 0 0 16h136a8 8 0 0 0 0-16z"/><path d="m368 208a8 8 0 0 0 -8 8v16a8 8 0 0 0 16 0v-16a8 8 0 0 0 -8-8z"/><circle cx="432" cy="456" r="8"/><path d="m453.336 432.15a32 32 0 0 0 -42.672 0 8 8 0 1 0 10.672 11.922 16 16 0 0 1 21.328 0 8 8 0 0 0 10.672-11.922z"/><path d="m469.335 414.262a56 56 0 0 0 -74.67 0 8 8 0 1 0 10.67 11.922 40 40 0 0 1 53.33 0 8 8 0 0 0 10.67-11.922z"/></g></g></svg>