<svg height="512" viewBox="0 0 512 512" width="512" xmlns="http://www.w3.org/2000/svg"><g><g><path d="m113 472v-432a24.006 24.006 0 0 1 24-24h240a24.006 24.006 0 0 1 24 24v368" fill="#3d9ae2"/><path d="m401 173.96v298.04a24.006 24.006 0 0 1 -24 24h-240a24.006 24.006 0 0 1 -24-24" fill="#3d9ae2"/><path d="m313 48h-112l-9-32h129z" fill="#57565c"/><g fill="#ffda44"><circle cx="369" cy="152" r="8"/><path d="m353 134.111a24 24 0 0 1 32 0"/><path d="m337 116.222a48 48 0 0 1 64 0"/></g><circle cx="369" cy="128" fill="#91cc04" r="56"/><path d="m185 464h-96v-144h112v128z" fill="#ffda44"/></g><g><circle cx="368" cy="152" r="8"/><path d="m389.335 128.15a32 32 0 0 0 -42.67 0 8 8 0 1 0 10.67 11.922 16 16 0 0 1 21.33 0 8 8 0 1 0 10.67-11.922z"/><path d="m330.665 110.261a8 8 0 1 0 10.67 11.922 40 40 0 0 1 53.33 0 8 8 0 1 0 10.67-11.922 56 56 0 0 0 -74.67 0z"/><path d="m408 78.09v-38.09a32.036 32.036 0 0 0 -32-32h-240a32.036 32.036 0 0 0 -32 32v272h-16a8 8 0 0 0 -8 8v144a8 8 0 0 0 8 8h16a32.036 32.036 0 0 0 32 32h240a32.036 32.036 0 0 0 32-32v-294.09a63.9 63.9 0 0 0 0-99.82zm-98.25-54.09-4 16h-99.69l-4.5-16zm-213.75 432v-128h96v116.69l-11.31 11.31zm296 16a16.021 16.021 0 0 1 -16 16h-240a16.021 16.021 0 0 1 -16-16h64a8.008 8.008 0 0 0 5.66-2.34l16-16a8.008 8.008 0 0 0 2.34-5.66v-128a8 8 0 0 0 -8-8h-80v-272a16.021 16.021 0 0 1 16-16h48.94l7.36 26.17a8 8 0 0 0 7.7 5.83h112a8 8 0 0 0 7.76-6.06l6.49-25.94h49.75a16.021 16.021 0 0 1 16 16v28.69a64 64 0 1 0 0 118.62zm-24-296a48 48 0 1 1 48-48 48.051 48.051 0 0 1 -48 48z"/><path d="m376 208v192a8 8 0 0 1 -8 8h-116.69l10.35 10.34a8 8 0 0 1 -11.32 11.32l-24-24a8.015 8.015 0 0 1 0-11.32l24-24a8 8 0 0 1 11.32 11.32l-10.35 10.34h108.69v-184a8 8 0 0 1 16 0z"/><path d="m112 352h64a8 8 0 0 0 0-16h-64a8 8 0 0 0 0 16z"/><path d="m184 440a8 8 0 0 0 -8-8h-64a8 8 0 0 0 0 16h64a8 8 0 0 0 8-8z"/><path d="m112 376h64a8 8 0 0 0 0-16h-64a8 8 0 0 0 0 16z"/><path d="m112 424h64a8 8 0 0 0 0-16h-64a8 8 0 0 0 0 16z"/><path d="m112 400h32a8 8 0 0 0 0-16h-32a8 8 0 0 0 0 16z"/><path d="m176 384h-8a8 8 0 0 0 0 16h8a8 8 0 0 0 0-16z"/></g></g></svg>