<svg height="512" viewBox="0 0 512 512" width="512" xmlns="http://www.w3.org/2000/svg"><g><g><g><path d="m177 368h-128l7.111 128 113.778 1z" fill="#2d2d30"/><path d="m49 144h128l-7.111-128h-113.778z" fill="#2d2d30"/><rect fill="#91cc04" height="224" rx="24" width="192" x="17" y="144"/></g><g><rect fill="#3d9ae2" height="368" rx="16" width="208" x="289" y="72"/><path d="m425 104h-64l-8-32h80z" fill="#57565c"/></g><path d="m463.66 201.367c.222 2.292.34 4.614.34 6.966 0 39.213-71 94.667-71 94.667s-71-55.454-71-94.667c0-2.352.118-4.674.34-6.966a35.426 35.426 0 0 1 9.925-29.835.015.015 0 0 1 .015-.015 35.414 35.414 0 0 1 25.22-10.517c19.6 0 35.5 4.068 35.5 23.667 0-19.6 15.9-23.667 35.5-23.667a35.414 35.414 0 0 1 25.22 10.517.015.015 0 0 1 .015.015 35.426 35.426 0 0 1 9.925 29.835z" fill="#d80027"/></g><g><path d="m104 335h-64a8 8 0 0 0 0 16h64a8 8 0 0 0 0-16z"/><path d="m136 335h-8a8 8 0 0 0 0 16h8a8 8 0 0 0 0-16z"/><path d="m480 63h-176a24.032 24.032 0 0 0 -24 24v156.69l-43.31 43.31h-20.69v-120a32.03 32.03 0 0 0 -32-32h-.43l-6.69-120.44a8.012 8.012 0 0 0 -7.99-7.56h-113.78a8.012 8.012 0 0 0 -7.99 7.56l-6.69 120.44h-.43a32.03 32.03 0 0 0 -32 32v176a32.03 32.03 0 0 0 32 32h.43l6.69 120.44a8.006 8.006 0 0 0 7.92 7.56l113.78 1h.07a8.012 8.012 0 0 0 7.99-7.56l6.69-121.44h.43a32.03 32.03 0 0 0 32-32v-40h24a8.008 8.008 0 0 0 5.66-2.34l34.34-34.35v156.69a24.032 24.032 0 0 0 24 24h176a24.032 24.032 0 0 0 24-24v-336a24.032 24.032 0 0 0 -24-24zm-417.32-40h98.64l6.22 112h-111.08zm98.64 464.93-98.64-.86-6.22-112.07h111.09zm38.68-200.93h-40a8 8 0 0 0 0 16h40v40a16.021 16.021 0 0 1 -16 16h-144a16.021 16.021 0 0 1 -16-16v-176a16.021 16.021 0 0 1 16-16h144a16.021 16.021 0 0 1 16 16zm221.75-208-4 16h-51.5l-4-16zm66.25 344a8.011 8.011 0 0 1 -8 8h-176a8.011 8.011 0 0 1 -8-8v-172.69l19.31-19.31h2.66c6.1 13.32 16.86 28.17 32.22 44.41a368.429 368.429 0 0 0 36.89 33.89 7.97 7.97 0 0 0 9.84 0 368.429 368.429 0 0 0 36.89-33.89c15.36-16.24 26.12-31.09 32.22-44.41h5.97a8 8 0 0 0 0-16h-.75a45.666 45.666 0 0 0 .75-8v-12a43.767 43.767 0 0 0 -12.7-30.92c-.01-.02-.03-.03-.04-.05a43.72 43.72 0 0 0 -31.26-13.03c-15.39 0-28.24 6.09-36 15.98-7.76-9.89-20.61-15.98-36-15.98a43.72 43.72 0 0 0 -31.26 13.03c-.01.02-.03.03-.04.05a43.767 43.767 0 0 0 -12.7 30.92v12a45.666 45.666 0 0 0 .75 8h-.75a8.008 8.008 0 0 0 -5.66 2.34l-10.34 10.35v-140.69a8.011 8.011 0 0 1 8-8h41.75l6.49 25.94a8 8 0 0 0 7.76 6.06h64a8 8 0 0 0 7.76-6.06l6.49-25.94h41.75a8.011 8.011 0 0 1 8 8zm-80-208a8.033 8.033 0 0 0 -6.66 3.56l-8.98 13.48-17.5-29.16a8.011 8.011 0 0 0 -14.02.54l-5.78 11.58h-25.98a32.734 32.734 0 0 1 -1.08-8v-12a27.882 27.882 0 0 1 8.1-19.7.138.138 0 0 1 .04-.03 27.819 27.819 0 0 1 19.86-8.27c19.34 0 28 11.91 28 23.71a8 8 0 1 0 16 0c0-11.8 8.66-23.71 28-23.71a27.819 27.819 0 0 1 19.86 8.27.138.138 0 0 1 .04.03 27.882 27.882 0 0 1 8.1 19.7v12a32.734 32.734 0 0 1 -1.08 8zm40.1 16c-13.31 23.28-40.28 48.62-56.1 61.72-15.82-13.1-42.79-38.44-56.1-61.72h24.1a8.011 8.011 0 0 0 7.16-4.42l1.48-2.97 16.5 27.51a8 8 0 0 0 13.52.32l13.62-20.44z"/><path d="m376 407h-64a8 8 0 0 0 0 16h64a8 8 0 0 0 0-16z"/><path d="m408 407h-8a8 8 0 0 0 0 16h8a8 8 0 0 0 0-16z"/><circle cx="112" cy="271" r="8"/><path d="m101.335 259.072a16 16 0 0 1 21.33 0 8 8 0 0 0 10.671-11.922 32 32 0 0 0 -42.672 0 8 8 0 0 0 10.671 11.922z"/><path d="m149.335 229.261a56 56 0 0 0 -74.67 0 8 8 0 1 0 10.67 11.922 40 40 0 0 1 53.33 0 8 8 0 1 0 10.67-11.922z"/></g></g></svg>