<svg height="512" viewBox="0 0 512 512" width="512" xmlns="http://www.w3.org/2000/svg"><g><g><g><path d="m145 295v-263a16 16 0 0 1 16-16h144a16 16 0 0 1 16 16v256a16 16 0 0 1 -16 16h-144" fill="#2d2d30"/><circle cx="233" cy="88" fill="#ffda44" r="40"/><circle cx="233" cy="88" fill="#57565c" r="16"/><circle cx="233" cy="216" fill="#ffda44" r="64"/><circle cx="233" cy="216" fill="#57565c" r="40"/></g><g><rect fill="#2d2d30" height="288" rx="16" width="176" x="321" y="16"/><circle cx="409" cy="88" fill="#ffda44" r="40"/><circle cx="409" cy="88" fill="#57565c" r="16"/><circle cx="409" cy="216" fill="#ffda44" r="64"/><circle cx="409" cy="216" fill="#57565c" r="40"/></g><g fill="#3d9ae2"><rect height="240" rx="16" width="144" x="17" y="256"/><path d="m113 280h-48l-8-24h64z"/></g><path d="m121 368-64 40v-80z" fill="#ffda44"/><circle cx="105" cy="128" fill="#91cc04" r="56"/></g><g><circle cx="104" cy="152" r="8"/><path d="m125.336 128.15a32 32 0 0 0 -42.672 0 8 8 0 0 0 10.671 11.922 16 16 0 0 1 21.33 0 8 8 0 0 0 10.671-11.922z"/><path d="m141.961 121.558a8 8 0 0 0 -.626-11.3 56 56 0 0 0 -74.67 0 8 8 0 1 0 10.67 11.922 40 40 0 0 1 53.33 0 8 8 0 0 0 11.3-.625z"/><path d="m232 136a48 48 0 1 0 -48-48 48.055 48.055 0 0 0 48 48zm0-80a32 32 0 1 1 -32 32 32.036 32.036 0 0 1 32-32z"/><path d="m232 112a24 24 0 1 0 -24-24 24.027 24.027 0 0 0 24 24zm0-32a8 8 0 1 1 -8 8 8.009 8.009 0 0 1 8-8z"/><path d="m232 144a72 72 0 1 0 72 72 72.081 72.081 0 0 0 -72-72zm0 128a56 56 0 1 1 56-56 56.064 56.064 0 0 1 -56 56z"/><path d="m232 168a48 48 0 1 0 48 48 48.055 48.055 0 0 0 -48-48zm0 80a32 32 0 1 1 32-32 32.036 32.036 0 0 1 -32 32z"/><circle cx="168" cy="40" r="8"/><circle cx="296" cy="40" r="8"/><circle cx="296" cy="280" r="8"/><path d="m408 136a48 48 0 1 0 -48-48 48.055 48.055 0 0 0 48 48zm0-80a32 32 0 1 1 -32 32 32.036 32.036 0 0 1 32-32z"/><path d="m408 112a24 24 0 1 0 -24-24 24.027 24.027 0 0 0 24 24zm0-32a8 8 0 1 1 -8 8 8.009 8.009 0 0 1 8-8z"/><path d="m408 144a72 72 0 1 0 72 72 72.081 72.081 0 0 0 -72-72zm0 128a56 56 0 1 1 56-56 56.064 56.064 0 0 1 -56 56z"/><path d="m408 168a48 48 0 1 0 48 48 48.055 48.055 0 0 0 -48-48zm0 80a32 32 0 1 1 32-32 32.036 32.036 0 0 1 -32 32z"/><path d="m480 8h-144a23.9 23.9 0 0 0 -16 6.13 23.9 23.9 0 0 0 -16-6.13h-144a24.032 24.032 0 0 0 -24 24v40.61a64 64 0 1 0 0 110.78v64.61h-104a24.032 24.032 0 0 0 -24 24v208a24.032 24.032 0 0 0 24 24h112a24.032 24.032 0 0 0 24-24v-168h136a23.9 23.9 0 0 0 16-6.13 23.9 23.9 0 0 0 16 6.13h144a24.032 24.032 0 0 0 24-24v-256a24.032 24.032 0 0 0 -24-24zm-376 168a48 48 0 1 1 48-48 48.051 48.051 0 0 1 -48 48zm4.9 88-2.67 8h-36.46l-2.67-8zm43.1 216a8.011 8.011 0 0 1 -8 8h-112a8.011 8.011 0 0 1 -8-8v-208a8.011 8.011 0 0 1 8-8h18.23l6.18 18.53a8 8 0 0 0 7.59 5.47h48a8 8 0 0 0 7.59-5.47l6.18-18.53h18.23a8.011 8.011 0 0 1 8 8zm160-192a8.011 8.011 0 0 1 -8 8h-136v-24a24.031 24.031 0 0 0 -16-22.62v-79.12a63.81 63.81 0 0 0 0-84.52v-53.74a8.011 8.011 0 0 1 8-8h144a8.011 8.011 0 0 1 8 8zm176 0a8.011 8.011 0 0 1 -8 8h-144a8.011 8.011 0 0 1 -8-8v-256a8.011 8.011 0 0 1 8-8h144a8.011 8.011 0 0 1 8 8z"/><circle cx="344" cy="40" r="8"/><circle cx="472" cy="40" r="8"/><circle cx="344" cy="280" r="8"/><circle cx="472" cy="280" r="8"/><path d="m72 464h-32a8 8 0 0 0 0 16h32a8 8 0 0 0 0-16z"/><path d="m104 464h-8a8 8 0 0 0 0 16h8a8 8 0 0 0 0-16z"/><path d="m96 232v-24a8 8 0 0 0 -16 0v24a8 8 0 0 0 16 0z"/><path d="m124.24 361.216-64-40a8 8 0 0 0 -12.24 6.784v80a8 8 0 0 0 12.24 6.784l64-40a8 8 0 0 0 0-13.568zm-60.24 32.35v-51.132l40.906 25.566z"/><path d="m352 320a8 8 0 0 0 -8 8v112h-128a8 8 0 0 0 0 16h136a8 8 0 0 0 8-8v-120a8 8 0 0 0 -8-8z"/><path d="m192 440h-8a8 8 0 0 0 0 16h8a8 8 0 0 0 0-16z"/></g></g></svg>