<svg height="512" viewBox="0 0 512 512" width="512" xmlns="http://www.w3.org/2000/svg"><g><g><g><rect fill="#3d9ae2" height="272" rx="16" width="160" x="337" y="16"/><path d="m449 16-8 24h-48l-8-24z" fill="#57565c"/></g><path d="m465 136.286c0 26.509-48 71.428-48 71.428s-48-44.919-48-71.428a48 48 0 0 1 96 0z" fill="#d80027"/><circle cx="417" cy="136" fill="#ffda44" r="16"/><g><path d="m289 344v112a16 16 0 0 1 -16 16h-240a16 16 0 0 1 -16-16v-112z" fill="#a0815c"/><path d="m289 312v32h-272v-32a16 16 0 0 1 16-16h240a16 16 0 0 1 16 16z" fill="#a0815c"/><path d="m185 368h-64l-8-24h80z" fill="#5f4d37"/><path d="m249 472h24a0 0 0 0 1 0 0v16a8 8 0 0 1 -8 8h-8a8 8 0 0 1 -8-8v-16a0 0 0 0 1 0 0z" fill="#2d2d30"/><path d="m33 472h24a0 0 0 0 1 0 0v16a8 8 0 0 1 -8 8h-8a8 8 0 0 1 -8-8v-16a0 0 0 0 1 0 0z" fill="#2d2d30"/><rect fill="#5f4d37" height="24" rx="8" width="192" x="57" y="112"/><g fill="#ffda44"><path d="m57 272h48v24h-48z"/><path d="m201 272h48v24h-48z"/></g></g></g><g><path d="m480 8h-128a24.032 24.032 0 0 0 -24 24v240a24.032 24.032 0 0 0 24 24h128a24.032 24.032 0 0 0 24-24v-240a24.032 24.032 0 0 0 -24-24zm-43.1 16-2.67 8h-36.46l-2.67-8zm51.1 248a8.011 8.011 0 0 1 -8 8h-128a8.011 8.011 0 0 1 -8-8v-240a8.011 8.011 0 0 1 8-8h26.23l6.18 18.53a8 8 0 0 0 7.59 5.47h48a8 8 0 0 0 7.59-5.47l6.18-18.53h26.23a8.011 8.011 0 0 1 8 8z"/><path d="m392 256h-32a8 8 0 0 0 0 16h32a8 8 0 0 0 0-16z"/><path d="m424 256h-8a8 8 0 0 0 0 16h8a8 8 0 0 0 0-16z"/><path d="m416 80.286a56.063 56.063 0 0 0 -56 56c0 12.9 8.69 29.975 25.829 50.746a312.967 312.967 0 0 0 24.7 26.523 8 8 0 0 0 10.932 0 312.967 312.967 0 0 0 24.7-26.523c17.149-20.771 25.839-37.844 25.839-50.746a56.063 56.063 0 0 0 -56-56zm0 116.28c-17.344-17.392-40-45.176-40-60.28a40 40 0 0 1 80 0c0 15.104-22.656 42.888-40 60.28z"/><path d="m416 112a24 24 0 1 0 24 24 24.028 24.028 0 0 0 -24-24zm0 32a8 8 0 1 1 8-8 8.009 8.009 0 0 1 -8 8z"/><path d="m272 288h-16v-16a8 8 0 0 0 -8-8h-16v-120h8a16.021 16.021 0 0 0 16-16v-8a16.021 16.021 0 0 0 -16-16h-176a16.021 16.021 0 0 0 -16 16v8a16.021 16.021 0 0 0 16 16h8v120h-16a8 8 0 0 0 -8 8v16h-16a24.032 24.032 0 0 0 -24 24v144a24.031 24.031 0 0 0 16 22.62v9.38a16.021 16.021 0 0 0 16 16h8a16.021 16.021 0 0 0 16-16v-8h176v8a16.021 16.021 0 0 0 16 16h8a16.021 16.021 0 0 0 16-16v-9.38a24.031 24.031 0 0 0 16-22.62v-144a24.032 24.032 0 0 0 -24-24zm-32-8v8h-32v-8zm-136-16h-16v-120h128v120h-16a8 8 0 0 0 -8 8v16h-80v-16a8 8 0 0 0 -8-8zm-40-136v-8h176l.01 8zm0 152h32v8h-32zm-16 208h-8v-8h8l.01 8zm216 0h-8v-8h8l.01 8zm16-32a8.011 8.011 0 0 1 -8 8h-240a8.011 8.011 0 0 1 -8-8v-104h82.23l6.18 18.53a8 8 0 0 0 7.59 5.47h64a8 8 0 0 0 7.59-5.47l6.18-18.53h82.23zm-156.9-104h57.8l-2.67 8h-52.46zm156.9-16h-256v-24a8.011 8.011 0 0 1 8-8h240a8.011 8.011 0 0 1 8 8z"/><path d="m80 440h-40a8 8 0 0 0 0 16h40a8 8 0 0 0 0-16z"/><path d="m112 440h-8a8 8 0 0 0 0 16h8a8 8 0 0 0 0-16z"/><path d="m424 312a8 8 0 0 0 -8 8v72h-96a8 8 0 0 0 0 16h104a8 8 0 0 0 8-8v-80a8 8 0 0 0 -8-8z"/><circle cx="152" cy="80" r="8"/><path d="m168 70.111a8 8 0 0 0 5.339-13.961 32 32 0 0 0 -42.672 0 8 8 0 1 0 10.672 11.922 16 16 0 0 1 21.328 0 7.975 7.975 0 0 0 5.333 2.039z"/><path d="m125.335 50.184a40 40 0 0 1 53.33 0 8 8 0 0 0 10.67-11.922 56 56 0 0 0 -74.67 0 8 8 0 1 0 10.67 11.922z"/></g></g></svg>