<svg height="512" viewBox="0 0 512 512" width="512" xmlns="http://www.w3.org/2000/svg"><g><g><path d="m497 40v24h-480v-24a24.006 24.006 0 0 1 24-24h432a24.006 24.006 0 0 1 24 24z" fill="#57565c"/><path d="m497 64v344a24.006 24.006 0 0 1 -24 24h-432a24.006 24.006 0 0 1 -24-24v-344z" fill="#83d8f4"/><path d="m233 408a88 88 0 0 1 -91.428 87.935c-47.3-1.8-84.948-41.319-84.569-88.653a87.918 87.918 0 0 1 39.997-73.042v-150.24a48 48 0 0 1 48-48 48 48 0 0 1 48 48v150.24a87.916 87.916 0 0 1 40 73.76z" fill="#ff9811"/><path d="m145 472q-1.254 0-2.518-.048c-34.175-1.3-61.755-30.223-61.481-64.478a63.914 63.914 0 0 1 29.105-53.129l10.893-7.1v-163.245a24 24 0 0 1 48 0v163.243l10.893 7.1a64 64 0 0 1 -34.892 117.657z" fill="#e0e0e2"/><circle cx="145" cy="408" fill="#91cc04" r="32"/><path d="m417 392h20a33.053 33.053 0 0 0 4-.23 36 36 0 1 0 -17.41-69.18 64.018 64.018 0 0 0 -122.64-8.77 40 40 0 1 0 -11.95 78.18z" fill="#e0e0e2"/><g fill="#ffda44"><circle cx="393" cy="168" r="32"/><path d="m438.255 122.745 5.657-5.657"/><path d="m342.088 218.912 5.657-5.657"/><path d="m438.255 213.255 5.657 5.657"/><path d="m342.088 117.088 5.657 5.657"/></g></g><g><path d="m472 8h-432a32.036 32.036 0 0 0 -32 32v368a32.036 32.036 0 0 0 32 32h13.52a96.409 96.409 0 0 0 86.75 63.93c1.26.05 2.52.07 3.77.07a96.2 96.2 0 0 0 90.53-64h237.43a32.042 32.042 0 0 0 32-32v-368a32.042 32.042 0 0 0 -32-32zm-272.52 457.64a80 80 0 1 1 -99.11-124.7 8.018 8.018 0 0 0 3.63-6.7v-150.24a40 40 0 0 1 80 0v150.24a8.018 8.018 0 0 0 3.63 6.7 80.008 80.008 0 0 1 11.85 124.7zm288.52-57.64a16.021 16.021 0 0 1 -16 16h-233.32a97.5 97.5 0 0 0 1.32-16 95.728 95.728 0 0 0 -40-77.98v-10.02h16a8 8 0 0 0 0-16h-16v-16h16a8 8 0 0 0 0-16h-16v-16h16a8 8 0 0 0 0-16h-16v-16h16a8 8 0 0 0 0-16h-16v-16h16a8 8 0 0 0 0-16h-16.58a56 56 0 0 0 -111.42 8v146.02a95.718 95.718 0 0 0 -38.63 93.98h-9.37a16.021 16.021 0 0 1 -16-16v-336h464zm0-352h-464v-16a16.021 16.021 0 0 1 16-16h432a16.021 16.021 0 0 1 16 16z"/><path d="m48 48h48a8 8 0 0 0 0-16h-48a8 8 0 0 0 0 16z"/><path d="m120 48h8a8 8 0 0 0 0-16h-8a8 8 0 0 0 0 16z"/><path d="m183.26 347.64-7.26-4.73v-158.91a32 32 0 0 0 -64 0v158.91l-7.26 4.73a71.9 71.9 0 0 0 -32.74 59.77c-.31 38.54 30.73 71.08 69.19 72.54.94.03 1.88.05 2.81.05a72 72 0 0 0 39.26-132.36zm-39.26 116.36c-.74 0-1.48-.01-2.21-.04-29.9-1.14-54.03-26.45-53.79-56.42a55.931 55.931 0 0 1 25.48-46.49l10.89-7.11a7.992 7.992 0 0 0 3.63-6.7v-163.24a16 16 0 0 1 32 0v163.24a7.992 7.992 0 0 0 3.63 6.7l10.89 7.11a56 56 0 0 1 -30.52 102.95z"/><path d="m144 368a40 40 0 1 0 40 40 40.045 40.045 0 0 0 -40-40zm0 64a24 24 0 1 1 24-24 24.028 24.028 0 0 1 -24 24z"/><path d="m436 312a43.764 43.764 0 0 0 -7.86.7 72.023 72.023 0 0 0 -132.92-8.16 48 48 0 1 0 -7.22 95.46h148a40.73 40.73 0 0 0 4.87-.28 43.995 43.995 0 0 0 -4.87-87.72zm3.03 71.83a25.955 25.955 0 0 1 -3.03.17h-148a32 32 0 1 1 9.56-62.54 8.02 8.02 0 0 0 9.9-4.87 56.017 56.017 0 0 1 107.31 7.67 8 8 0 0 0 10.81 5.75 28 28 0 1 1 13.45 53.82z"/><path d="m392 208a40 40 0 1 0 -40-40 40.045 40.045 0 0 0 40 40zm0-64a24 24 0 1 1 -24 24 24.028 24.028 0 0 1 24-24z"/><path d="m392 112a8 8 0 0 0 8-8v-8a8 8 0 0 0 -16 0v8a8 8 0 0 0 8 8z"/><path d="m384 232v8a8 8 0 0 0 16 0v-8a8 8 0 0 0 -16 0z"/><path d="m448 168a8 8 0 0 0 8 8h8a8 8 0 0 0 0-16h-8a8 8 0 0 0 -8 8z"/><path d="m320 176h8a8 8 0 0 0 0-16h-8a8 8 0 0 0 0 16z"/><path d="m437.255 130.745a7.974 7.974 0 0 0 5.657-2.343l5.657-5.657a8 8 0 1 0 -11.314-11.314l-5.657 5.657a8 8 0 0 0 5.657 13.657z"/><path d="m341.088 207.6-5.657 5.657a8 8 0 0 0 11.314 11.314l5.657-5.657a8 8 0 1 0 -11.314-11.314z"/><path d="m442.912 207.6a8 8 0 1 0 -11.312 11.312l5.657 5.657a8 8 0 1 0 11.314-11.314z"/><path d="m341.088 128.4a8 8 0 0 0 11.312-11.312l-5.657-5.657a8 8 0 1 0 -11.314 11.314z"/><path d="m104 88h-56a8 8 0 0 0 0 16h56a8 8 0 0 0 0-16z"/><path d="m64 112h-16a8 8 0 0 0 0 16h16a8 8 0 0 0 0-16z"/></g></g></svg>