<svg height="512" viewBox="0 0 512 512" width="512" xmlns="http://www.w3.org/2000/svg"><g><g><path d="m257 320h-240v-288h480v288h-96" fill="#83d8f4"/><rect fill="#d80027" height="112" rx="16" width="128" x="105" y="64"/><g><rect fill="#3d9ae2" height="240" rx="16" width="144" x="257" y="240"/><path d="m353 264h-48l-8-24h64z" fill="#2d2d30"/></g><g fill="#e0e0e2"><path d="m49 320h24v32h-24z"/><path d="m441 320h24v32h-24z"/><path d="m145 152v-64l56 32z"/></g></g><g><path d="m312 448h-32a8 8 0 0 0 0 16h32a8 8 0 0 0 0-16z"/><path d="m344 448h-8a8 8 0 0 0 0 16h8a8 8 0 0 0 0-16z"/><circle cx="328" cy="368" r="8"/><path d="m317.335 356.072a16 16 0 0 1 21.33 0 8 8 0 1 0 10.67-11.922 32 32 0 0 0 -42.67 0 8 8 0 1 0 10.67 11.922z"/><path d="m365.335 326.261a56 56 0 0 0 -74.67 0 8 8 0 1 0 10.67 11.922 40 40 0 0 1 53.33 0 8 8 0 1 0 10.67-11.922z"/><path d="m496 24h-480a8 8 0 0 0 -8 8v288a8 8 0 0 0 8 8h24v16h-8a8 8 0 0 0 0 16h56a8 8 0 0 0 0-16h-8v-16h168v136a24.032 24.032 0 0 0 24 24h112a24.032 24.032 0 0 0 24-24v-136h24v16h-8a8 8 0 0 0 0 16h56a8 8 0 0 0 0-16h-8v-16h24a8 8 0 0 0 8-8v-288a8 8 0 0 0 -8-8zm-432 320h-8v-16h8zm328 120a8.011 8.011 0 0 1 -8 8h-112a8.011 8.011 0 0 1 -8-8v-208a8.011 8.011 0 0 1 8-8h18.23l6.18 18.53a8 8 0 0 0 7.59 5.47h48a8 8 0 0 0 7.59-5.47l6.18-18.53h18.23a8.011 8.011 0 0 1 8 8zm-84.9-216h41.8l-2.67 8h-36.46zm148.9 96h-8v-16h8zm32-32h-80v-56a24.032 24.032 0 0 0 -24-24h-112a24.032 24.032 0 0 0 -24 24v56h-224v-272h464z"/><path d="m216 56h-96a24.032 24.032 0 0 0 -24 24v80a24.032 24.032 0 0 0 24 24h96a24.032 24.032 0 0 0 24-24v-80a24.032 24.032 0 0 0 -24-24zm8 104a8.011 8.011 0 0 1 -8 8h-96a8.011 8.011 0 0 1 -8-8v-80a8.011 8.011 0 0 1 8-8h96a8.011 8.011 0 0 1 8 8z"/><path d="m203.97 113.05-56-32a8 8 0 0 0 -11.97 6.95v64a8.006 8.006 0 0 0 11.97 6.95l56-32a8.008 8.008 0 0 0 0-13.9zm-51.97 25.16v-36.42l31.88 18.21z"/><path d="m232 272h-64v-72a8 8 0 0 0 -16 0v80a8 8 0 0 0 8 8h72a8 8 0 0 0 0-16z"/><path d="m256 120h64v96a8 8 0 0 0 16 0v-104a8 8 0 0 0 -8-8h-72a8 8 0 0 0 0 16z"/></g></g></svg>