<svg height="512" viewBox="0 0 512 512" width="512" xmlns="http://www.w3.org/2000/svg"><g><g><path d="m497 16v400h-336l-16-160v-240z" fill="#e0e0e2"/><path d="m144 392h352v24h-352z" fill="#57565c"/><rect fill="#3d9ae2" height="240" rx="16" width="144" x="17" y="256"/><path d="m121 256-8 24h-48l-8-24z" fill="#57565c"/><circle cx="89" cy="368" fill="#ffda44" r="48"/><path d="m89 344v24l8 8" fill="#ffda44"/><circle cx="321" cy="232" fill="#2d2d30" r="104"/><circle cx="321" cy="232" fill="#3d9ae2" r="80"/><path d="m145 16h352v80h-352z" fill="#57565c"/><g fill="#ffda44"><path d="m169 40h96v32h-96z"/><path d="m441 337h32v32h-32z"/></g></g><g><path d="m72 464h-32a8 8 0 0 0 0 16h32a8 8 0 0 0 0-16z"/><path d="m104 464h-8a8 8 0 0 0 0 16h8a8 8 0 0 0 0-16z"/><path d="m88 312a56 56 0 1 0 56 56 56.063 56.063 0 0 0 -56-56zm0 96a40 40 0 1 1 40-40 40.045 40.045 0 0 1 -40 40z"/><path d="m96 364.687v-20.687a8 8 0 0 0 -16 0v24a8 8 0 0 0 2.343 5.657l8 8a8 8 0 1 0 11.314-11.314z"/><path d="m320 344a112 112 0 1 0 -112-112 112.127 112.127 0 0 0 112 112zm0-208a96 96 0 1 1 -96 96 96.108 96.108 0 0 1 96-96z"/><path d="m320 320a88 88 0 1 0 -88-88 88.1 88.1 0 0 0 88 88zm0-160a72 72 0 1 1 -72 72 72.081 72.081 0 0 1 72-72z"/><path d="m496 8h-352a8 8 0 0 0 -8 8v232h-104a24.032 24.032 0 0 0 -24 24v208a24.032 24.032 0 0 0 24 24h112a24.032 24.032 0 0 0 24-24v-56h328a8 8 0 0 0 8-8v-400a8 8 0 0 0 -8-8zm-387.1 256-2.67 8h-36.46l-2.67-8zm43.1 216a8.011 8.011 0 0 1 -8 8h-112a8.011 8.011 0 0 1 -8-8v-208a8.011 8.011 0 0 1 8-8h18.23l6.18 18.53a8 8 0 0 0 7.59 5.47h48a8 8 0 0 0 7.59-5.47l6.18-18.53h18.23a8.011 8.011 0 0 1 8 8zm336-72h-320v-8h320zm0-24h-320v-112a24.031 24.031 0 0 0 -16-22.62v-145.38h336zm0-296h-336v-64h336z"/><path d="m264 32h-96a8 8 0 0 0 -8 8v32a8 8 0 0 0 8 8h96a8 8 0 0 0 8-8v-32a8 8 0 0 0 -8-8zm-8 32h-80v-16h80z"/><path d="m472 32h-64a8 8 0 0 0 0 16h64a8 8 0 0 0 0-16z"/><path d="m472 56h-24a8 8 0 0 0 0 16h24a8 8 0 0 0 0-16z"/><path d="m432 369a8 8 0 0 0 8 8h32a8 8 0 0 0 8-8v-32a8 8 0 0 0 -8-8h-32a8 8 0 0 0 -8 8zm16-24h16v16h-16z"/><path d="m456 288a8 8 0 0 0 8-8v-96a8 8 0 0 0 -16 0v96a8 8 0 0 0 8 8z"/></g></g></svg>